<svg id="Layer_1" data-name="Layer 1" xmlns="http://www.w3.org/2000/svg" viewBox="0 0 140 140"><path d="M90.85,32.44l-.34,1.21L88,42.59l-.32,1.14-.22.79h0l-.1.4a10.08,10.08,0,0,0-1.63-.69h0a9.94,9.94,0,0,0-2.26-.44h-.06a7,7,0,0,0-1,0,11.55,11.55,0,0,0-1.77.2h0l-2.45-.69-1.92-.54-12-3.37h-.07L63,39l.22-.76.39-1.42v0l2.78-9.91.34-1.19Z" fill="#231f20"/><path d="M55.2,23.74,101.76,36.8a1.25,1.25,0,0,0,.66-2.4L55.86,21.34a1.25,1.25,0,0,0-.66,2.4Z" fill="#231f20"/><path d="M100.24,35.34c-.24,3.77-.49,7.55-.72,11.32-.08,1.2,1.79,1.19,1.86,0l.72-11.32c.08-1.2-1.79-1.19-1.86,0Z" fill="#231f20"/><path d="M102.56,49.21A2.23,2.23,0,0,0,101,47.33l-.11,0a2.13,2.13,0,0,0-1.2,0,2.24,2.24,0,0,0-1.6,1.58,2.27,2.27,0,0,0,1.58,2.79,2.23,2.23,0,0,0,2.38-.78,2.31,2.31,0,0,0,.42-.79A2,2,0,0,0,102.56,49.21Zm-1,.63A1.34,1.34,0,0,1,99,49.11C99.41,47.42,102,48.16,101.61,49.84Z" fill="#fff"/><path d="M101.39,46.47l-.21-.08a2.74,2.74,0,0,0-1.65,0,3.54,3.54,0,0,0-2.3,2.27,3.2,3.2,0,0,0,6.06,2l0-.06a1.84,1.84,0,0,0,.09-.25,1.45,1.45,0,0,0,0-.3A3.26,3.26,0,0,0,101.39,46.47Zm.22,3.37A1.34,1.34,0,0,1,99,49.11C99.41,47.42,102,48.16,101.61,49.84Z" fill="#231f20"/><path d="M89.9,88.6v.9c0,.41,0,.81,0,1.2,0,.18,0,.35,0,.53l-1.22.4-.1,0-.05,0c-1.41.32-2-2-.52-2.44l.72-.25.09,0,0,0Z" fill="#20856f"/><path d="M51.56,91.63l-1.1-.36-.07,0L49,90.81c0-.43,0-.87,0-1.31V88.21l1.14.34.16,0c.65.2,1.29.41,1.93.64C53.73,89.75,53.08,92.16,51.56,91.63Z" fill="#20856f"/><path d="M89.65,56.49a.79.79,0,0,0,.14-.17H88.2a.89.89,0,0,0,.44.33,1,1,0,0,0,.9-.06h.11a.11.11,0,0,0,0-.08ZM89,63.28l-.36.26a11.43,11.43,0,0,1-6.3,2.09,10.13,10.13,0,0,1-7.18-2.74A9.14,9.14,0,0,1,74.3,62a9.59,9.59,0,0,1-.79-1,10.72,10.72,0,0,1-1.15-2.07,10.89,10.89,0,0,1-.49-1.35.5.5,0,0,0,0-.13c-.1-.36-.18-.74-.25-1.12H68.77c0,.07,0,.16,0,.23-.07.35-.14.68-.24,1,0,.09,0,.18-.08.26-.1.32-.21.65-.34,1A10.56,10.56,0,0,1,66.81,61,9.7,9.7,0,0,1,66,62a10.42,10.42,0,0,1-.89.87A11.37,11.37,0,0,1,58,65.63,10.13,10.13,0,0,1,50.92,63c-.24-.2-.46-.43-.68-.65s-.49-.54-.71-.83-.23-.29-.33-.44l-.21-.3V86.21c.36.09.71.21,1.07.33l.19.06A43.37,43.37,0,0,1,59.58,91c.39.25.77.5,1.14.76s.64.44,1,.67a31.65,31.65,0,0,1,6,5.61H50.84l.29.6c.1.22.21.43.32.64h36c.2-.36.38-.73.56-1.11a.75.75,0,0,1,.06-.13h-.62a6,6,0,0,1-.75,0h0a.17.17,0,0,1,0,0H72.48a31.59,31.59,0,0,1,5-4.89c.3-.25.61-.48.93-.71s.74-.53,1.13-.78A41.7,41.7,0,0,1,88.66,87l.18-.07,1.06-.37V62.5A10.68,10.68,0,0,1,89,63.28ZM58,68.12a12.48,12.48,0,0,0,8.65-3.2l2.46,3.26a1.27,1.27,0,0,0,2.15,0l2.47-3.32a14.31,14.31,0,0,0,8.65,3.26,12.14,12.14,0,0,0,5.12-1A20,20,0,0,1,70,77.9,19.49,19.49,0,0,1,52.34,66.76,14.17,14.17,0,0,0,58,68.12ZM70.1,60.26a12.77,12.77,0,0,0,1.83,2.86c-.59.8-1.18,1.58-1.77,2.37l-1.81-2.4A14.87,14.87,0,0,0,70.1,60.26Zm-6.84-3.94a1,1,0,0,0,1.58,0Zm-12.75,0a1,1,0,0,0,1.58,0Zm24.94,0a1,1,0,0,0,1.59,0Z" fill="#20856f"/><path d="M91.22,88.2c0,.4,0,.8-.07,1.2v0l0,.35h0c0,.35-.06.71-.1,1.06-.39.12-.79.24-1.19.38l-1.22.4-.1,0-.05,0c.06-.39.12-.79.15-1.2,0-.23.06-.46.07-.7v0c0-.23,0-.45.06-.68,0,0,0-.07,0-.11l0,0,1.12-.35.58-.19.67-.2Z" fill="#231f20"/><path d="M50.39,91.24,49,90.81l-1.2-.35c-.09-.87-.15-1.74-.17-2.62l1.32.37,1.14.34C50.19,89.46,50.26,90.36,50.39,91.24Z" fill="#231f20"/><path d="M89.37,98c-.13.34-.27.68-.43,1a2.26,2.26,0,0,1-.11.22l-.3.63a.56.56,0,0,1-.1.15,1.11,1.11,0,0,1-.69.47H51.45a1.26,1.26,0,0,1-1.07-.62c-.11-.21-.21-.41-.31-.63s-.13-.27-.19-.41-.24-.55-.35-.83H86.67a.17.17,0,0,0,0,0h0a6,6,0,0,0,.75,0Z" fill="#231f20"/><path d="M50.24,62.35V76c0,2.52-.16,5.2-.19,7.9,0,.49,0,1,0,1.45s0,.77,0,1.15c-.36-.12-.71-.24-1.07-.33s-.91-.29-1.37-.41c0-.37,0-.74,0-1.11s0-1,0-1.45c0-2.41.14-4.81.14-7.14V58.35l0,.09A12.3,12.3,0,0,0,49,60.78l.21.3c.1.15.22.3.33.44S50,62.08,50.24,62.35Z" fill="#231f20"/><path d="M52.35,55.08a4.4,4.4,0,0,0-.09.74,1,1,0,0,1-.17.5,1,1,0,0,1-1.58,0,.55.55,0,0,1-.1-.22h0a.86.86,0,0,1,0-.28c0-.25,0-.49.07-.74Z" fill="#231f20"/><path d="M65,55.82a.86.86,0,0,1-.12.5,1,1,0,0,1-1.58,0,1,1,0,0,1-.15-.34.78.78,0,0,1,0-.16c0-.26,0-.5-.08-.74h1.87a4.9,4.9,0,0,1,.07.67A.17.17,0,0,1,65,55.82Z" fill="#231f20"/><path d="M71.87,57.57H68.49c.1-.34.17-.67.24-1,0-.07,0-.16,0-.23h-.12l.13-.14c0-.3.09-.59.12-.9a1.41,1.41,0,0,1,0-.2h2.52c0,.24,0,.47.07.7,0,0,0,0,0,0a2.63,2.63,0,0,0,.06.39h0a.37.37,0,0,0,0,.11c.07.38.15.76.25,1.12A.5.5,0,0,1,71.87,57.57Z" fill="#231f20"/><path d="M77.29,55.08a5.76,5.76,0,0,0-.09.74h0a1,1,0,0,1-.16.49,1,1,0,0,1-1.59,0,.86.86,0,0,1-.12-.41v-.09c0-.25,0-.49.08-.74Z" fill="#231f20"/><path d="M89.65,56.49h0a.11.11,0,0,1,0,.08h-.11a1,1,0,0,1-.9.06.89.89,0,0,1-.44-.33.88.88,0,0,1-.16-.5,2.91,2.91,0,0,0,0-.31,2.12,2.12,0,0,0-.06-.43h1.89a.59.59,0,0,1,0,.14.33.33,0,0,1,0,.1,2.92,2.92,0,0,1,.05.5.86.86,0,0,1-.11.5A.79.79,0,0,1,89.65,56.49Z" fill="#231f20"/><path d="M91.28,85c0,.39,0,.76,0,1.14l-.12,0c-.42.12-.83.25-1.25.39L88.84,87q0-.59,0-1.17V84.35c0-2.84-.17-5.65-.2-8.3,0-.31,0-.62,0-.93V63.54l.36-.26a10.68,10.68,0,0,0,.88-.78,6.91,6.91,0,0,0,.79-.83c.16-.19.32-.39.46-.59v15.5c0,2.3.09,4.64.12,7C91.27,84.07,91.28,84.55,91.28,85Z" fill="#231f20"/><path d="M89.79,56.32a.86.86,0,0,0,.11-.5,2.92,2.92,0,0,0-.05-.5.33.33,0,0,0,0-.1.59.59,0,0,0,0-.14,6.07,6.07,0,0,0-.2-1,7.39,7.39,0,0,0-1-2.2l0-.07h0a7.49,7.49,0,0,0-6-3.28c-3.7-.2-6.47,2.79-7.14,6.14h0c0,.14,0,.27-.07.4s-.06.49-.08.74v.09a.86.86,0,0,0,.12.41,1,1,0,0,0,1.59,0,1,1,0,0,0,.16-.49h0a5.76,5.76,0,0,1,.09-.74,2.83,2.83,0,0,1,.1-.47c1.27-5.23,8.79-5.35,10.36-.37a4.3,4.3,0,0,1,.19.84,2.12,2.12,0,0,1,.06.43,2.91,2.91,0,0,1,0,.31.88.88,0,0,0,.16.5.89.89,0,0,0,.44.33,1,1,0,0,0,.9-.06h.11a.11.11,0,0,0,0-.08h0A.79.79,0,0,0,89.79,56.32ZM65,55.75a4.9,4.9,0,0,0-.07-.67,7.4,7.4,0,0,0-7.2-6.54,7,7,0,0,0-6.76,4.8v0a8.63,8.63,0,0,0-.45,1.71c0,.25-.05.49-.07.74a.86.86,0,0,0,0,.28h0a.55.55,0,0,0,.1.22,1,1,0,0,0,1.58,0,1,1,0,0,0,.17-.5,4.4,4.4,0,0,1,.09-.74c1-6,9.68-6,10.66,0,0,.24.06.48.08.74a.78.78,0,0,0,0,.16,1,1,0,0,0,.15.34,1,1,0,0,0,1.58,0,.86.86,0,0,0,.12-.5A.17.17,0,0,0,65,55.75Zm25,6.75a10.68,10.68,0,0,1-.88.78l-.36.26a11.43,11.43,0,0,1-6.3,2.09,10.13,10.13,0,0,1-7.18-2.74A9.14,9.14,0,0,1,74.3,62a9.59,9.59,0,0,1-.79-1,10.72,10.72,0,0,1-1.15-2.07,10.89,10.89,0,0,1-.49-1.35.5.5,0,0,0,0-.13c-.1-.36-.18-.74-.25-1.12a.37.37,0,0,1,0-.11h0a2.63,2.63,0,0,1-.06-.39s0,0,0,0c0-.23,0-.46-.07-.7V55a2.26,2.26,0,0,1,0-.26V54.6a1.27,1.27,0,0,1,0-.2,1.41,1.41,0,0,1,0-.2c.09-5.23,4.22-9.34,9.16-10.26h0a11.55,11.55,0,0,1,1.77-.2,7,7,0,0,1,1,0h.06a9.94,9.94,0,0,1,2.26.44,4.61,4.61,0,0,0-.37-.4c-.15-.17-.31-.33-.47-.48s-.48-.48-.73-.71a16.89,16.89,0,0,0-1.67-1.37,15.94,15.94,0,0,0-1.74-1.16l-.63-.37c-.21-.11-.42-.23-.65-.34L79,39.17c-.28-.13-.55-.26-.83-.37s-.49-.21-.75-.3a5.31,5.31,0,0,0-.56-.2l-.48-.16a4.58,4.58,0,0,0-.49-.15,3.92,3.92,0,0,0-.49-.13A11.41,11.41,0,0,0,74,37.53q-.42-.09-.84-.15l-.35-.05a16.1,16.1,0,0,0-1.85-.16c-.3,0-.62,0-.93,0s-.65,0-1,0l-.51,0a19.28,19.28,0,0,0-2.42.31l-.54.11a7.91,7.91,0,0,0-.81.19h-.07c-.23.06-.45.12-.67.2a.19.19,0,0,0-.12,0,4.21,4.21,0,0,0-.63.2l-.75.26c-.52.19-1,.42-1.52.65l-.49.24-.25.13-.35.19-.35.19-.59.35c-.49.31-1,.63-1.42,1h0a20.9,20.9,0,0,0-1.77,1.47c-.17.15-.32.29-.47.45l-.32.32c-.11.1-.21.21-.3.31s-.19.21-.29.32a6.4,6.4,0,0,0-.42.49,11.33,11.33,0,0,1,2.48-.71h0A12.82,12.82,0,0,1,58,43.74c5.94-.15,10.53,4.83,10.92,10.48,0,.16,0,.31,0,.46s0,.27,0,.4a1.41,1.41,0,0,0,0,.2c0,.31-.07.6-.12.9l-.13.14h.12c0,.07,0,.16,0,.23-.07.35-.14.68-.24,1,0,.09,0,.18-.08.26-.1.32-.21.65-.34,1A10.56,10.56,0,0,1,66.81,61,9.7,9.7,0,0,1,66,62a10.42,10.42,0,0,1-.89.87A11.37,11.37,0,0,1,58,65.63,10.13,10.13,0,0,1,50.92,63c-.24-.2-.46-.43-.68-.65s-.49-.54-.71-.83-.23-.29-.33-.44a4,4,0,0,0,.08.5,17.27,17.27,0,0,0,.45,2.07c.14.56.32,1.1.51,1.64,0,.11.08.23.13.34a21,21,0,0,0,38.29,2.13,16.18,16.18,0,0,0,.75-1.64,12.12,12.12,0,0,0,.49-1.31,7.07,7.07,0,0,0,.24-.74h0a17.62,17.62,0,0,0,.55-2.39A6.91,6.91,0,0,1,89.9,62.5ZM70.1,60.26a12.77,12.77,0,0,0,1.83,2.86c-.59.8-1.18,1.58-1.77,2.37l-1.81-2.4A14.87,14.87,0,0,0,70.1,60.26ZM70,77.9A19.49,19.49,0,0,1,52.34,66.76,14.17,14.17,0,0,0,58,68.12a12.48,12.48,0,0,0,8.65-3.2l2.46,3.26a1.27,1.27,0,0,0,2.15,0l2.47-3.32a14.31,14.31,0,0,0,8.65,3.26,12.14,12.14,0,0,0,5.12-1A20,20,0,0,1,70,77.9Z" fill="#fff"/><path d="M89.85,55.32a.33.33,0,0,0,0-.1.59.59,0,0,0,0-.14,6.07,6.07,0,0,0-.2-1,7.39,7.39,0,0,0-1-2.2l0-.07a20,20,0,0,1,.65,2.29c.08.32.14.64.19,1a2.5,2.5,0,0,1,.05.29c0,.31.09.63.12,1a.52.52,0,0,1,0,.17.79.79,0,0,0,.14-.17.86.86,0,0,0,.11-.5A2.92,2.92,0,0,0,89.85,55.32Zm-2.3-10.68a.47.47,0,0,0-.09-.12h0c-.15-.21-.32-.42-.49-.62s-.43-.5-.65-.74h0l-.52-.54a15.4,15.4,0,0,0-1.16-1.12,22.31,22.31,0,0,0-10.89-5.27A20.85,20.85,0,0,0,68,36c-.24,0-.46,0-.69.06s-.71.09-1.05.15l-.58.11c-.67.14-1.34.32-2,.51a22.51,22.51,0,0,0-8.19,4.6,20.25,20.25,0,0,0-1.92,1.9h0l-.52.59-.48.6a6.62,6.62,0,0,0-.46.62c-.22.28-.42.57-.62.86a.09.09,0,0,1,0,0A11.62,11.62,0,0,1,54,44.6a11.33,11.33,0,0,1,2.48-.71l.24-.21.47-.41a5.07,5.07,0,0,1,.44-.37l.51-.4h0c.23-.18.46-.34.7-.51L59,41.9l.76-.49a20.8,20.8,0,0,1,4.49-2.07,20.07,20.07,0,0,1,5.8-1,18.49,18.49,0,0,1,6.07.92,2,2,0,0,1,.34.12c.22.07.44.16.66.25a17.75,17.75,0,0,1,3.31,1.68A16.77,16.77,0,0,1,82,42.51a16,16,0,0,1,1.46,1.27,9.94,9.94,0,0,1,2.26.44h0a10.08,10.08,0,0,1,1.63.69c.25.13.5.28.73.43C87.9,45.11,87.74,44.87,87.55,44.64Zm3.6,16.44c-.14.2-.3.4-.46.59a6.91,6.91,0,0,1-.79.83,10.68,10.68,0,0,1-.88.78c-.11.38-.23.76-.36,1.13s-.22.6-.34.9a15.27,15.27,0,0,1-.84,1.84A20,20,0,0,1,70,77.9,19.49,19.49,0,0,1,52.34,66.76c-.27-.55-.52-1.12-.75-1.7s-.48-1.36-.67-2.06c-.24-.2-.46-.43-.68-.65s-.49-.54-.71-.83-.23-.29-.33-.44l-.21-.3a12.3,12.3,0,0,1-1.2-2.34l0-.09a.33.33,0,0,1,0-.13c0,.41,0,.81,0,1.22.06.77.15,1.53.28,2.28a24.08,24.08,0,0,0,.61,2.54c.1.34.22.69.34,1a23.51,23.51,0,0,0,7.6,10.55h0l0,0c.27.2.55.41.84.61,0,0,0,0,0,0,.52.37,1.06.71,1.62,1a21.9,21.9,0,0,0,20.49.53h0a22.43,22.43,0,0,0,5.42-3.65h0a23.07,23.07,0,0,0,2.35-2.49c.44-.55.85-1.12,1.23-1.7a20.38,20.38,0,0,0,1.24-2.18A22.69,22.69,0,0,0,91.15,65a1.83,1.83,0,0,0,.08-.25,22.25,22.25,0,0,0,.57-2.31h0a23.76,23.76,0,0,0,.39-3.05A10.22,10.22,0,0,1,91.15,61.08Z" fill="#231f20"/><path d="M65,55.82a.86.86,0,0,1-.12.5,1,1,0,0,1-1.58,0,1,1,0,0,1-.15-.34.78.78,0,0,1,0-.16c0-.26,0-.5-.08-.74-1-6-9.69-6-10.66,0a4.4,4.4,0,0,0-.09.74,1,1,0,0,1-.17.5,1,1,0,0,1-1.58,0,.55.55,0,0,1-.1-.22h0a.86.86,0,0,1,0-.28c0-.25,0-.49.07-.74a8.63,8.63,0,0,1,.45-1.71v0a7,7,0,0,1,6.76-4.8,7.4,7.4,0,0,1,7.2,6.54,4.9,4.9,0,0,1,.07.67A.17.17,0,0,1,65,55.82Z" fill="#20856f"/><path d="M85.71,44.22a9.94,9.94,0,0,0-2.26-.44h-.06a7,7,0,0,0-1,0,11.55,11.55,0,0,0-1.77.2h0c-4.94.92-9.07,5-9.16,10.26a1.41,1.41,0,0,0,0,.2,1.27,1.27,0,0,0,0,.2v.13a2.26,2.26,0,0,0,0,.26v.09c0,.24,0,.47.07.7,0,0,0,0,0,0a2.63,2.63,0,0,0,.06.39h0l-.29,0c-.22,0-.45,0-.68.07l-.22,0h-.09l-.24,0-.86.1a1.13,1.13,0,0,0-.18,0l-.28,0c0-.07,0-.16,0-.23h-.12l.13-.14c0-.3.09-.59.12-.9a1.41,1.41,0,0,1,0-.2c0-.13,0-.26,0-.4s0-.3,0-.46c-.39-5.65-5-10.63-10.92-10.48a12.82,12.82,0,0,0-1.52.15h0A11.33,11.33,0,0,0,54,44.6a6.4,6.4,0,0,1,.42-.49c.1-.11.19-.22.29-.32s.19-.21.3-.31l.32-.32c.15-.16.3-.3.47-.45a20.9,20.9,0,0,1,1.77-1.47h0c.45-.34.93-.66,1.42-1l.59-.35.35-.19.35-.19.25-.13.49-.24c.5-.23,1-.46,1.52-.65l.75-.26a4.21,4.21,0,0,1,.63-.2A.19.19,0,0,1,64,38c.22-.08.44-.14.67-.2h.07a7.91,7.91,0,0,1,.81-.19l.54-.11a19.28,19.28,0,0,1,2.42-.31l.51,0c.32,0,.64,0,1,0s.63,0,.93,0a16.1,16.1,0,0,1,1.85.16l.35.05q.42.06.84.15a11.41,11.41,0,0,1,1.43.33,3.92,3.92,0,0,1,.49.13,4.58,4.58,0,0,1,.49.15l.48.16a5.31,5.31,0,0,1,.56.2c.26.09.5.19.75.3s.55.24.83.37l.45.22c.23.11.44.23.65.34l.63.37a15.94,15.94,0,0,1,1.74,1.16,16.89,16.89,0,0,1,1.67,1.37c.25.23.5.47.73.71s.32.31.47.48A4.61,4.61,0,0,1,85.71,44.22Z" fill="#20856f"/><path d="M89.85,55.32l-.1,0-.19,0h0L88,55.51a2.12,2.12,0,0,0-.06-.43,4.3,4.3,0,0,0-.19-.84c-1.57-5-9.09-4.86-10.36.37a2.83,2.83,0,0,0-.1.47,5.76,5.76,0,0,0-.09.74h0l-1.87.08v-.09c0-.25,0-.49.08-.74s0-.26.07-.4h0c.67-3.35,3.44-6.34,7.14-6.14a7.49,7.49,0,0,1,6,3.28h0l0,.07a7.39,7.39,0,0,1,1,2.2,6.07,6.07,0,0,1,.2,1,.59.59,0,0,1,0,.14A.33.33,0,0,1,89.85,55.32Z" fill="#20856f"/><path d="M77.39,54.61a2.83,2.83,0,0,0-.1.47,5.76,5.76,0,0,0-.09.74h0a1,1,0,0,1-.16.49,1,1,0,0,1-1.59,0,.86.86,0,0,1-.12-.41v-.09c0-.25,0-.49.08-.74s0-.26.07-.4h0Z" fill="#231f20"/><path d="M65,55.82a.86.86,0,0,1-.12.5,1,1,0,0,1-1.58,0,1,1,0,0,1-.15-.34L65,55.75A.17.17,0,0,1,65,55.82Z" fill="#231f20"/><path d="M71.83,57.44c-.25,0-.5,0-.75.08h0l-.41,0h-.1l-.14,0-.57.07-.59.07-.2,0h0l-.61.07c0-.08,0-.17.08-.26.1-.34.17-.67.24-1,0-.07,0-.16,0-.23h-.12l.13-.14c0-.3.09-.59.12-.9h0l.78-.09a3.47,3.47,0,0,0,.45-.06h0l.2,0,.16,0L71.4,55s0,0,0,0v.09c0,.24,0,.47.07.7,0,0,0,0,0,0a2.63,2.63,0,0,0,.06.39h0a.37.37,0,0,0,0,.11C71.65,56.7,71.73,57.08,71.83,57.44Z" fill="#231f20"/><path d="M49.53,61.52l-.09,0a.34.34,0,0,1-.16,0,.57.57,0,0,1-.29,0,1.35,1.35,0,0,1-1.12-1.25c0-.64-.08-1.27-.08-1.91A12.3,12.3,0,0,0,49,60.78l.21.3C49.3,61.23,49.42,61.38,49.53,61.52Z" fill="#231f20"/><path d="M50.91,53.37c-.13.57-.26,1.13-.35,1.71q-.09.51-.15,1a.86.86,0,0,1,0-.28c0-.25,0-.49.07-.74A8.63,8.63,0,0,1,50.91,53.37Z" fill="#231f20"/><path d="M88.08,45.35c-.23-.15-.48-.3-.73-.43a10.08,10.08,0,0,0-1.63-.69h0a9.94,9.94,0,0,0-2.26-.44h-.06a19.23,19.23,0,0,0-1.46-1.27,16.53,16.53,0,0,0-1.6-1.14h0a18.23,18.23,0,0,0-3.25-1.69c-.22-.09-.44-.18-.66-.25a2,2,0,0,0-.34-.12,18.22,18.22,0,0,0-9.14-.69,20.85,20.85,0,0,0-2.8.71,19.53,19.53,0,0,0-4.46,2.07c-.55.34-1.08.71-1.59,1.1-.17.13-.34.26-.49.4a5.07,5.07,0,0,0-.44.37l-.47.41-.22.21h0A11.33,11.33,0,0,0,54,44.6,11.62,11.62,0,0,0,51.5,46c.18-.28.37-.56.57-.82a6.62,6.62,0,0,1,.46-.62l.48-.6c.15-.2.31-.39.48-.58a23.44,23.44,0,0,1,1.85-1.88,21.51,21.51,0,0,1,8.32-4.67,18.23,18.23,0,0,1,2-.47l.58-.11c.34-.06.7-.11,1.05-.15s.45,0,.69-.06a22.4,22.4,0,0,1,16.62,5.48c.42.35.82.73,1.21,1.12l.52.54h0c.22.24.44.49.65.74s.34.41.49.62h0a.47.47,0,0,1,.09.12C87.74,44.87,87.9,45.11,88.08,45.35Z" fill="#231f20"/><path d="M89.65,56.49h0a.11.11,0,0,1,0,.08h-.11l-.9.06a.89.89,0,0,1-.44-.33.88.88,0,0,1-.16-.5,2.91,2.91,0,0,0,0-.31,2.12,2.12,0,0,0-.06-.43,4.3,4.3,0,0,0-.19-.84l1.52-.12s0,0,0,0a20.91,20.91,0,0,0-.64-2.22,7.39,7.39,0,0,1,1,2.2,6.07,6.07,0,0,1,.2,1,.59.59,0,0,1,0,.14.33.33,0,0,1,0,.1,2.92,2.92,0,0,1,.05.5.86.86,0,0,1-.11.5A.79.79,0,0,1,89.65,56.49Z" fill="#231f20"/><path d="M73.51,61a10.72,10.72,0,0,1-1.15-2.07,10.89,10.89,0,0,1-.49-1.35.5.5,0,0,0,0-.13c-.1-.36-.18-.74-.25-1.12a.37.37,0,0,1,0-.11h0L71.33,56l-.79-.86h0l-.37-.4-.36.4-.1.1L69,56l-.18.18-.13.14h.12c0,.07,0,.16,0,.23-.07.35-.14.68-.24,1,0,.09,0,.18-.08.26-.1.32-.21.65-.34,1A10.56,10.56,0,0,1,66.81,61,9.7,9.7,0,0,1,66,62l.8,1.06.73,1,2.64,3.5L72.79,64l.73-1h0L74.3,62A9.59,9.59,0,0,1,73.51,61Zm-3.35,4.5-1.81-2.4a14.87,14.87,0,0,0,1.75-2.83,12.77,12.77,0,0,0,1.83,2.86C71.34,63.92,70.75,64.7,70.16,65.49Z" fill="#fff"/><path d="M71.87,57.57h-.75l1.24,1.35A10.89,10.89,0,0,1,71.87,57.57Zm-1.58-1.22s0,0,0,0h-.23a.17.17,0,0,1,0,.07l-.86.1a1.13,1.13,0,0,0-.18,0l0-.2h-.21c0,.07,0,.16,0,.23-.07.35-.14.68-.24,1,0,.09,0,.18-.08.26-.1.32-.21.65-.34,1,.32-.34.62-.69,1-1h0l.17-.19h0a3.65,3.65,0,0,1,.27-.3c.18-.19.34-.37.53-.56,0,0,0,0,0,0l.15-.17.19.2A2.2,2.2,0,0,1,70.29,56.35Zm0,0s0,0,0,0h-.23a.17.17,0,0,1,0,.07l-.86.1a1.13,1.13,0,0,0-.18,0l0-.2h-.21c0,.07,0,.16,0,.23-.07.35-.14.68-.24,1,0,.09,0,.18-.08.26-.1.32-.21.65-.34,1,.32-.34.62-.69,1-1h0l.17-.19h0a3.65,3.65,0,0,1,.27-.3c.18-.19.34-.37.53-.56,0,0,0,0,0,0l.15-.17.19.2A2.2,2.2,0,0,1,70.29,56.35Zm0,0s0,0,0,0h-.23a.17.17,0,0,1,0,.07c0,.1,0,.2,0,.3l.15-.17.19.2A2.2,2.2,0,0,1,70.29,56.35Zm4,5.66a9.59,9.59,0,0,1-.79-1l-.82,1.11-.76,1c-.59.8-1.18,1.58-1.77,2.37l-1.81-2.4c-.24-.31-.49-.64-.72-1s-.56-.72-.82-1.09A9.7,9.7,0,0,1,66,62a10.42,10.42,0,0,1-.89.87L65.9,64l.73,1,2.46,3.26a1.27,1.27,0,0,0,2.15,0l2.47-3.32c.24-.31.47-.62.7-.94l.77-1A9.14,9.14,0,0,1,74.3,62Zm-4-5.29a2.2,2.2,0,0,1-.06-.37s0,0,0,0h-.23a.17.17,0,0,1,0,.07c0,.1,0,.2,0,.3l.15-.17Zm-.06-.37s0,0,0,0h-.23a.17.17,0,0,1,0,.07c0,.1,0,.2,0,.3l.15-.17.19.2A2.2,2.2,0,0,1,70.29,56.35Zm1.58,1.22a.5.5,0,0,0,0-.13c-.1-.36-.18-.74-.25-1.12a.37.37,0,0,1,0-.11h0a2.63,2.63,0,0,1-.06-.39s0,0,0,0c0-.23,0-.46-.07-.7V55a2.26,2.26,0,0,1,0-.26V54.6a1.27,1.27,0,0,1,0-.2,1.41,1.41,0,0,1,0-.2l0,0L71.23,54l-.18-.2-.15-.13,0,0a1.07,1.07,0,0,0-.62-.2.33.33,0,0,0-.14,0,1.18,1.18,0,0,0-.81.35c-.11.13-.22.25-.34.37s0,0,0,0,0,.31,0,.46,0,.27,0,.4a1.41,1.41,0,0,0,0,.2c0,.31-.07.6-.12.9l-.13.14h.12c0,.07,0,.16,0,.23-.07.35-.14.68-.24,1,0,.09,0,.18-.08.26-.1.32-.21.65-.34,1,.32-.34.62-.69,1-1h0l.17-.19h0a3.65,3.65,0,0,1,.27-.3c.18-.19.34-.37.53-.56,0,0,0,0,0,0l.15-.17.19.2c.19.21.39.44.59.65l.1.11,0,0,0,0,1.24,1.35A10.89,10.89,0,0,1,71.87,57.57Zm-1.58-1.22s0,0,0,0h-.23a.17.17,0,0,1,0,.07l-.86.1a1.13,1.13,0,0,0-.18,0l0-.2h-.21c0,.07,0,.16,0,.23-.07.35-.14.68-.24,1,0,.09,0,.18-.08.26-.1.32-.21.65-.34,1,.32-.34.62-.69,1-1h0l.17-.19h0a3.65,3.65,0,0,1,.27-.3c.18-.19.34-.37.53-.56,0,0,0,0,0,0l.15-.17.19.2A2.2,2.2,0,0,1,70.29,56.35Zm1.58,1.22h-.75l1.24,1.35A10.89,10.89,0,0,1,71.87,57.57Z" fill="#231f20"/><path d="M65,55.75a4.9,4.9,0,0,0-.07-.67,7.4,7.4,0,0,0-7.2-6.54,7,7,0,0,0-6.76,4.8v0a8.63,8.63,0,0,0-.45,1.71c0,.25-.05.49-.07.74a.86.86,0,0,0,0,.28h0a.55.55,0,0,0,.1.22,1,1,0,0,0,1.58,0,1,1,0,0,0,.17-.5,4.4,4.4,0,0,1,.09-.74c1-6,9.68-6,10.66,0,0,.24.06.48.08.74a.78.78,0,0,0,0,.16,1,1,0,0,0,.15.34,1,1,0,0,0,1.58,0,.86.86,0,0,0,.12-.5A.17.17,0,0,0,65,55.75Zm4.24.74a1.13,1.13,0,0,0-.18,0l0-.2L69,56a5.94,5.94,0,0,1,0-.73,1.15,1.15,0,0,1,0-.19c0-.13,0-.26,0-.4,0,.14,0,.27,0,.4a1.41,1.41,0,0,0,0,.2c0,.31-.07.6-.12.9l-.13.14h.12c0,.07,0,.16,0,.23-.07.35-.14.68-.24,1,0,.09,0,.18-.08.26-.1.32-.21.65-.34,1A10.56,10.56,0,0,1,66.81,61c.26.37.54.73.82,1.09a11.7,11.7,0,0,0,1.86-3.42c.12-.34.22-.69.32-1.05l0-.09a8.71,8.71,0,0,0,.17-.86s0,0,0,0,0-.2,0-.3ZM65,55.75a4.9,4.9,0,0,0-.07-.67,7.4,7.4,0,0,0-7.2-6.54,7,7,0,0,0-6.76,4.8v0a8.63,8.63,0,0,0-.45,1.71c0,.25-.05.49-.07.74a.86.86,0,0,0,0,.28h0a.55.55,0,0,0,.1.22,1,1,0,0,0,1.58,0,1,1,0,0,0,.17-.5,4.4,4.4,0,0,1,.09-.74c1-6,9.68-6,10.66,0,0,.24.06.48.08.74a.78.78,0,0,0,0,.16,1,1,0,0,0,.15.34,1,1,0,0,0,1.58,0,.86.86,0,0,0,.12-.5A.17.17,0,0,0,65,55.75Zm0,0a4.9,4.9,0,0,0-.07-.67,7.4,7.4,0,0,0-7.2-6.54,7,7,0,0,0-6.76,4.8v0a8.63,8.63,0,0,0-.45,1.71c0,.25-.05.49-.07.74a.86.86,0,0,0,0,.28h0a.55.55,0,0,0,.1.22,1,1,0,0,0,1.58,0,1,1,0,0,0,.17-.5,4.4,4.4,0,0,1,.09-.74c1-6,9.68-6,10.66,0,0,.24.06.48.08.74a.78.78,0,0,0,0,.16,1,1,0,0,0,.15.34,1,1,0,0,0,1.58,0,.86.86,0,0,0,.12-.5A.17.17,0,0,0,65,55.75Zm4.24.74a1.13,1.13,0,0,0-.18,0l0-.2L69,56a5.94,5.94,0,0,1,0-.73,1.15,1.15,0,0,1,0-.19c0-.13,0-.26,0-.4,0,.14,0,.27,0,.4a1.41,1.41,0,0,0,0,.2c0,.31-.07.6-.12.9l-.13.14h.12c0,.07,0,.16,0,.23-.07.35-.14.68-.24,1,0,.09,0,.18-.08.26-.1.32-.21.65-.34,1A10.56,10.56,0,0,1,66.81,61c.26.37.54.73.82,1.09a11.7,11.7,0,0,0,1.86-3.42c.12-.34.22-.69.32-1.05l0-.09a8.71,8.71,0,0,0,.17-.86s0,0,0,0,0-.2,0-.3Zm-4.31-1.41a7.4,7.4,0,0,0-7.2-6.54,7,7,0,0,0-6.76,4.8v0a8.63,8.63,0,0,0-.45,1.71c0,.25-.05.49-.07.74a.86.86,0,0,0,0,.28h0a.55.55,0,0,0,.1.22,1,1,0,0,0,1.58,0,1,1,0,0,0,.17-.5,4.4,4.4,0,0,1,.09-.74c1-6,9.68-6,10.66,0,0,.24.06.48.08.74a.78.78,0,0,0,0,.16,1,1,0,0,0,.15.34,1,1,0,0,0,1.58,0,.86.86,0,0,0,.12-.5.17.17,0,0,0,0-.07A4.9,4.9,0,0,0,64.88,55.08Zm5.22-1.63a11.53,11.53,0,0,0-.53-2.56A12.2,12.2,0,0,0,58.11,42.5H58a12.47,12.47,0,0,0-4.44.84h0A12.2,12.2,0,0,0,45.8,54.68a12,12,0,0,0,2,6.63c.09.14.18.28.28.41a11,11,0,0,0,1,1.19c.24.26.49.51.74.74s.34.3.51.45a11.76,11.76,0,0,0,1.35,1A12.19,12.19,0,0,0,65.9,64a10.41,10.41,0,0,0,.9-.86,10.77,10.77,0,0,0,.83-1,11.7,11.7,0,0,0,1.86-3.42c.12-.34.22-.69.32-1.05l0-.09a8.71,8.71,0,0,0,.17-.86s0,0,0,0,0-.2,0-.3a.17.17,0,0,0,0-.07l.06-.57c0-.21,0-.42,0-.63v0c0-.13,0-.26,0-.4A10,10,0,0,0,70.1,53.45ZM66.81,61A9.7,9.7,0,0,1,66,62a10.42,10.42,0,0,1-.89.87A11.37,11.37,0,0,1,58,65.63,10.13,10.13,0,0,1,50.92,63c-.24-.2-.46-.43-.68-.65s-.49-.54-.71-.83-.23-.29-.33-.44l-.21-.3a12.3,12.3,0,0,1-1.2-2.34l0-.09a.33.33,0,0,1,0-.13A11.46,11.46,0,0,1,47,54.68,10.37,10.37,0,0,1,51.45,46a.09.09,0,0,1,0,0A11.62,11.62,0,0,1,54,44.6a11.33,11.33,0,0,1,2.48-.71h0A12.82,12.82,0,0,1,58,43.74c5.94-.15,10.53,4.83,10.92,10.48,0,.16,0,.31,0,.46s0,.27,0,.4a1.41,1.41,0,0,0,0,.2c0,.31-.07.6-.12.9l-.13.14h.12c0,.07,0,.16,0,.23-.07.35-.14.68-.24,1,0,.09,0,.18-.08.26-.1.32-.21.65-.34,1A10.56,10.56,0,0,1,66.81,61Zm-1.93-6a7.4,7.4,0,0,0-7.2-6.54,7,7,0,0,0-6.76,4.8v0a8.63,8.63,0,0,0-.45,1.71c0,.25-.05.49-.07.74a.86.86,0,0,0,0,.28h0a.55.55,0,0,0,.1.22,1,1,0,0,0,1.58,0,1,1,0,0,0,.17-.5,4.4,4.4,0,0,1,.09-.74c1-6,9.68-6,10.66,0,0,.24.06.48.08.74a.78.78,0,0,0,0,.16,1,1,0,0,0,.15.34,1,1,0,0,0,1.58,0,.86.86,0,0,0,.12-.5.17.17,0,0,0,0-.07A4.9,4.9,0,0,0,64.88,55.08Zm.07.67a4.9,4.9,0,0,0-.07-.67,7.4,7.4,0,0,0-7.2-6.54,7,7,0,0,0-6.76,4.8v0a8.63,8.63,0,0,0-.45,1.71c0,.25-.05.49-.07.74a.86.86,0,0,0,0,.28h0a.55.55,0,0,0,.1.22,1,1,0,0,0,1.58,0,1,1,0,0,0,.17-.5,4.4,4.4,0,0,1,.09-.74c1-6,9.68-6,10.66,0,0,.24.06.48.08.74a.78.78,0,0,0,0,.16,1,1,0,0,0,.15.34,1,1,0,0,0,1.58,0,.86.86,0,0,0,.12-.5A.17.17,0,0,0,65,55.75Zm4.24.74a1.13,1.13,0,0,0-.18,0l0-.2L69,56a5.94,5.94,0,0,1,0-.73,1.15,1.15,0,0,1,0-.19c0-.13,0-.26,0-.4,0,.14,0,.27,0,.4a1.41,1.41,0,0,0,0,.2c0,.31-.07.6-.12.9l-.13.14h.12c0,.07,0,.16,0,.23-.07.35-.14.68-.24,1,0,.09,0,.18-.08.26-.1.32-.21.65-.34,1A10.56,10.56,0,0,1,66.81,61c.26.37.54.73.82,1.09a11.7,11.7,0,0,0,1.86-3.42c.12-.34.22-.69.32-1.05l0-.09a8.71,8.71,0,0,0,.17-.86s0,0,0,0,0-.2,0-.3ZM65,55.75a4.9,4.9,0,0,0-.07-.67,7.4,7.4,0,0,0-7.2-6.54,7,7,0,0,0-6.76,4.8v0a8.63,8.63,0,0,0-.45,1.71c0,.25-.05.49-.07.74a.86.86,0,0,0,0,.28h0a.55.55,0,0,0,.1.22,1,1,0,0,0,1.58,0,1,1,0,0,0,.17-.5,4.4,4.4,0,0,1,.09-.74c1-6,9.68-6,10.66,0,0,.24.06.48.08.74a.78.78,0,0,0,0,.16,1,1,0,0,0,.15.34,1,1,0,0,0,1.58,0,.86.86,0,0,0,.12-.5A.17.17,0,0,0,65,55.75Z" fill="#fff"/><path d="M69.19,56.49a1.13,1.13,0,0,0-.18,0l0-.2L69,56a5.94,5.94,0,0,1,0-.73,1.15,1.15,0,0,1,0-.19c0-.13,0-.26,0-.4,0,.14,0,.27,0,.4a1.41,1.41,0,0,0,0,.2c0,.31-.07.6-.12.9a.71.71,0,0,1,0,.14c0,.07,0,.16,0,.23-.07.35-.14.68-.24,1,0,.09,0,.18-.08.26-.1.32-.21.65-.34,1A10.56,10.56,0,0,1,66.81,61c.26.37.54.73.82,1.09a11.7,11.7,0,0,0,1.86-3.42c.12-.34.22-.69.32-1.05l0-.09a8.71,8.71,0,0,0,.17-.86s0,0,0,0,0-.2,0-.3Zm0,0a1.13,1.13,0,0,0-.18,0l0-.2L69,56a5.94,5.94,0,0,1,0-.73,1.15,1.15,0,0,1,0-.19c0-.13,0-.26,0-.4,0,.14,0,.27,0,.4a1.41,1.41,0,0,0,0,.2c0,.31-.07.6-.12.9a.71.71,0,0,1,0,.14c0,.07,0,.16,0,.23-.07.35-.14.68-.24,1,0,.09,0,.18-.08.26-.1.32-.21.65-.34,1A10.56,10.56,0,0,1,66.81,61c.26.37.54.73.82,1.09a11.7,11.7,0,0,0,1.86-3.42c.12-.34.22-.69.32-1.05l0-.09a8.71,8.71,0,0,0,.17-.86s0,0,0,0,0-.2,0-.3Zm2.22-2.09c0-.07,0-.15,0-.22a14.15,14.15,0,0,0-1.2-4.92,13.54,13.54,0,0,0-10.48-7.85h0A15.38,15.38,0,0,0,58,41.25h-.45a12.74,12.74,0,0,0-2.07.2l-.12,0c-6.14,1.16-10.6,6.93-10.79,13.21a12.42,12.42,0,0,0,3.21,8.65,11.21,11.21,0,0,0,.89.93l.34.3a12.81,12.81,0,0,0,1.25,1,.51.51,0,0,0,.13.09,13.22,13.22,0,0,0,2,1.13A14.17,14.17,0,0,0,58,68.12a12.48,12.48,0,0,0,8.65-3.2,12.25,12.25,0,0,0,.9-.87,10.66,10.66,0,0,0,.82-1,14.87,14.87,0,0,0,1.75-2.83,18.14,18.14,0,0,0,.68-1.78c.09-.3.18-.61.25-.91v0s0,0,0,0a.65.65,0,0,0,0-.21h0c.07-.32.13-.63.18-1v-.07c0-.1,0-.2,0-.3s0-.29,0-.44l0-.43V55a1.48,1.48,0,0,0,0-.21.11.11,0,0,0,0-.05V54.6A1.27,1.27,0,0,1,71.41,54.4ZM58,65.63A10.13,10.13,0,0,1,50.92,63c-.24-.2-.46-.43-.68-.65s-.49-.54-.71-.83-.23-.29-.33-.44l-.21-.3a12.3,12.3,0,0,1-1.2-2.34l0-.09a.33.33,0,0,1,0-.13A11.46,11.46,0,0,1,47,54.68,10.37,10.37,0,0,1,51.45,46a.09.09,0,0,1,0,0A11.62,11.62,0,0,1,54,44.6a11.33,11.33,0,0,1,2.48-.71h0A12.82,12.82,0,0,1,58,43.74c5.94-.15,10.53,4.83,10.92,10.48,0,.16,0,.31,0,.46s0,.27,0,.4a1.41,1.41,0,0,0,0,.2c0,.31-.07.6-.12.9a.71.71,0,0,1,0,.14c0,.07,0,.16,0,.23-.07.35-.14.68-.24,1,0,.09,0,.18-.08.26-.1.32-.21.65-.34,1A10.56,10.56,0,0,1,66.81,61,9.7,9.7,0,0,1,66,62a10.42,10.42,0,0,1-.89.87A11.37,11.37,0,0,1,58,65.63Zm11.21-9.14a1.13,1.13,0,0,0-.18,0l0-.2L69,56a5.94,5.94,0,0,1,0-.73,1.15,1.15,0,0,1,0-.19c0-.13,0-.26,0-.4,0,.14,0,.27,0,.4a1.41,1.41,0,0,0,0,.2c0,.31-.07.6-.12.9a.71.71,0,0,1,0,.14c0,.07,0,.16,0,.23-.07.35-.14.68-.24,1,0,.09,0,.18-.08.26-.1.32-.21.65-.34,1A10.56,10.56,0,0,1,66.81,61c.26.37.54.73.82,1.09a11.7,11.7,0,0,0,1.86-3.42c.12-.34.22-.69.32-1.05l0-.09a8.71,8.71,0,0,0,.17-.86s0,0,0,0,0-.2,0-.3Z" fill="#231f20"/><path d="M65,55.82a.86.86,0,0,1-.12.5,1,1,0,0,1-1.58,0,1,1,0,0,1-.15-.34.78.78,0,0,1,0-.16c0-.26,0-.5-.08-.74-1-6-9.69-6-10.66,0a4.4,4.4,0,0,0-.09.74,1,1,0,0,1-.17.5,1,1,0,0,1-1.58,0,.55.55,0,0,1-.1-.22h0a.86.86,0,0,1,0-.28c0-.25,0-.49.07-.74a8.63,8.63,0,0,1,.45-1.71v0a7,7,0,0,1,6.76-4.8,7.4,7.4,0,0,1,7.2,6.54,4.9,4.9,0,0,1,.07.67A.17.17,0,0,1,65,55.82Z" fill="#231f20"/><path d="M89.79,56.32a.86.86,0,0,0,.11-.5,2.92,2.92,0,0,0-.05-.5.33.33,0,0,0,0-.1.59.59,0,0,0,0-.14,6.07,6.07,0,0,0-.2-1,7.39,7.39,0,0,0-1-2.2l0-.07h0a7.49,7.49,0,0,0-6-3.28c-3.7-.2-6.47,2.79-7.14,6.14h0c0,.14,0,.27-.07.4s-.06.49-.08.74v.09a.86.86,0,0,0,.12.41,1,1,0,0,0,1.59,0,1,1,0,0,0,.16-.49h0a5.76,5.76,0,0,1,.09-.74,2.83,2.83,0,0,1,.1-.47c1.27-5.23,8.79-5.35,10.36-.37a4.3,4.3,0,0,1,.19.84,2.12,2.12,0,0,1,.06.43,2.91,2.91,0,0,1,0,.31.88.88,0,0,0,.16.5.89.89,0,0,0,.44.33,1,1,0,0,0,.9-.06h.11a.11.11,0,0,0,0-.08h0A.79.79,0,0,0,89.79,56.32Zm0,0a.86.86,0,0,0,.11-.5,2.92,2.92,0,0,0-.05-.5.33.33,0,0,0,0-.1.59.59,0,0,0,0-.14,6.07,6.07,0,0,0-.2-1,7.39,7.39,0,0,0-1-2.2l0-.07h0a7.49,7.49,0,0,0-6-3.28c-3.7-.2-6.47,2.79-7.14,6.14h0c0,.14,0,.27-.07.4s-.06.49-.08.74v.09a.86.86,0,0,0,.12.41,1,1,0,0,0,1.59,0,1,1,0,0,0,.16-.49h0a5.76,5.76,0,0,1,.09-.74,2.83,2.83,0,0,1,.1-.47c1.27-5.23,8.79-5.35,10.36-.37a4.3,4.3,0,0,1,.19.84,2.12,2.12,0,0,1,.06.43,2.91,2.91,0,0,1,0,.31.88.88,0,0,0,.16.5.89.89,0,0,0,.44.33,1,1,0,0,0,.9-.06h.11a.11.11,0,0,0,0-.08h0A.79.79,0,0,0,89.79,56.32ZM81.93,42.51a12.13,12.13,0,0,0-11.14,8.35,11.16,11.16,0,0,0-.55,2.59c0,.4-.07.82-.07,1.23,0,.14,0,.27,0,.4v.07a11,11,0,0,0,.11,1.17s0,0,0,0a2.2,2.2,0,0,0,.06.37c0,.28.1.56.16.84h0a9.46,9.46,0,0,0,.26.91,11.85,11.85,0,0,0,1.91,3.62L73.51,61a10.72,10.72,0,0,1-1.15-2.07,10.89,10.89,0,0,1-.49-1.35.5.5,0,0,0,0-.13c-.1-.36-.18-.74-.25-1.12a.37.37,0,0,1,0-.11h0a2.63,2.63,0,0,1-.06-.39s0,0,0,0c0-.23,0-.46-.07-.7V55a2.26,2.26,0,0,1,0-.26V54.6a1.27,1.27,0,0,1,0-.2,1.41,1.41,0,0,1,0-.2c.09-5.23,4.22-9.34,9.16-10.26h0a11.55,11.55,0,0,1,1.77-.2,7,7,0,0,1,1,0A19.23,19.23,0,0,0,81.93,42.51Zm7.86,13.81a.86.86,0,0,0,.11-.5,2.92,2.92,0,0,0-.05-.5.33.33,0,0,0,0-.1.59.59,0,0,0,0-.14,6.07,6.07,0,0,0-.2-1,7.39,7.39,0,0,0-1-2.2l0-.07h0a7.49,7.49,0,0,0-6-3.28c-3.7-.2-6.47,2.79-7.14,6.14h0c0,.14,0,.27-.07.4s-.06.49-.08.74v.09a.86.86,0,0,0,.12.41,1,1,0,0,0,1.59,0,1,1,0,0,0,.16-.49h0a5.76,5.76,0,0,1,.09-.74,2.83,2.83,0,0,1,.1-.47c1.27-5.23,8.79-5.35,10.36-.37a4.3,4.3,0,0,1,.19.84,2.12,2.12,0,0,1,.06.43,2.91,2.91,0,0,1,0,.31.88.88,0,0,0,.16.5.89.89,0,0,0,.44.33,1,1,0,0,0,.9-.06h.11a.11.11,0,0,0,0-.08h0A.79.79,0,0,0,89.79,56.32Zm0,0a.86.86,0,0,0,.11-.5,2.92,2.92,0,0,0-.05-.5.33.33,0,0,0,0-.1.59.59,0,0,0,0-.14,6.07,6.07,0,0,0-.2-1,7.39,7.39,0,0,0-1-2.2l0-.07h0a7.49,7.49,0,0,0-6-3.28c-3.7-.2-6.47,2.79-7.14,6.14h0c0,.14,0,.27-.07.4s-.06.49-.08.74v.09a.86.86,0,0,0,.12.41,1,1,0,0,0,1.59,0,1,1,0,0,0,.16-.49h0a5.76,5.76,0,0,1,.09-.74,2.83,2.83,0,0,1,.1-.47c1.27-5.23,8.79-5.35,10.36-.37a4.3,4.3,0,0,1,.19.84,2.12,2.12,0,0,1,.06.43,2.91,2.91,0,0,1,0,.31.88.88,0,0,0,.16.5.89.89,0,0,0,.44.33,1,1,0,0,0,.9-.06h.11a.11.11,0,0,0,0-.08h0A.79.79,0,0,0,89.79,56.32ZM81.93,42.51a12.13,12.13,0,0,0-11.14,8.35,11.16,11.16,0,0,0-.55,2.59c0,.4-.07.82-.07,1.23,0,.14,0,.27,0,.4v.07a11,11,0,0,0,.11,1.17s0,0,0,0a2.2,2.2,0,0,0,.06.37c0,.28.1.56.16.84h0a9.46,9.46,0,0,0,.26.91,11.85,11.85,0,0,0,1.91,3.62L73.51,61a10.72,10.72,0,0,1-1.15-2.07,10.89,10.89,0,0,1-.49-1.35.5.5,0,0,0,0-.13c-.1-.36-.18-.74-.25-1.12a.37.37,0,0,1,0-.11h0a2.63,2.63,0,0,1-.06-.39s0,0,0,0c0-.23,0-.46-.07-.7V55a2.26,2.26,0,0,1,0-.26V54.6a1.27,1.27,0,0,1,0-.2,1.41,1.41,0,0,1,0-.2c.09-5.23,4.22-9.34,9.16-10.26h0a11.55,11.55,0,0,1,1.77-.2,7,7,0,0,1,1,0A19.23,19.23,0,0,0,81.93,42.51Zm7.86,13.81a.86.86,0,0,0,.11-.5,2.92,2.92,0,0,0-.05-.5.33.33,0,0,0,0-.1.59.59,0,0,0,0-.14,6.07,6.07,0,0,0-.2-1,7.39,7.39,0,0,0-1-2.2l0-.07h0a7.49,7.49,0,0,0-6-3.28c-3.7-.2-6.47,2.79-7.14,6.14h0c0,.14,0,.27-.07.4s-.06.49-.08.74v.09a.86.86,0,0,0,.12.41,1,1,0,0,0,1.59,0,1,1,0,0,0,.16-.49h0a5.76,5.76,0,0,1,.09-.74,2.83,2.83,0,0,1,.1-.47c1.27-5.23,8.79-5.35,10.36-.37a4.3,4.3,0,0,1,.19.84,2.12,2.12,0,0,1,.06.43,2.91,2.91,0,0,1,0,.31.88.88,0,0,0,.16.5.89.89,0,0,0,.44.33,1,1,0,0,0,.9-.06h.11a.11.11,0,0,0,0-.08h0A.79.79,0,0,0,89.79,56.32Zm0,0a.86.86,0,0,0,.11-.5,2.92,2.92,0,0,0-.05-.5.33.33,0,0,0,0-.1.59.59,0,0,0,0-.14,6.07,6.07,0,0,0-.2-1,7.39,7.39,0,0,0-1-2.2l0-.07h0a7.49,7.49,0,0,0-6-3.28c-3.7-.2-6.47,2.79-7.14,6.14h0c0,.14,0,.27-.07.4s-.06.49-.08.74v.09a.86.86,0,0,0,.12.41,1,1,0,0,0,1.59,0,1,1,0,0,0,.16-.49h0a5.76,5.76,0,0,1,.09-.74,2.83,2.83,0,0,1,.1-.47c1.27-5.23,8.79-5.35,10.36-.37a4.3,4.3,0,0,1,.19.84,2.12,2.12,0,0,1,.06.43,2.91,2.91,0,0,1,0,.31.88.88,0,0,0,.16.5.89.89,0,0,0,.44.33,1,1,0,0,0,.9-.06h.11a.11.11,0,0,0,0-.08h0A.79.79,0,0,0,89.79,56.32ZM81.93,42.51a12.13,12.13,0,0,0-11.14,8.35,11.16,11.16,0,0,0-.55,2.59c0,.4-.07.82-.07,1.23,0,.14,0,.27,0,.4v.07a11,11,0,0,0,.11,1.17s0,0,0,0a2.2,2.2,0,0,0,.06.37c0,.28.1.56.16.84h0a9.46,9.46,0,0,0,.26.91,11.85,11.85,0,0,0,1.91,3.62L73.51,61a10.72,10.72,0,0,1-1.15-2.07,10.89,10.89,0,0,1-.49-1.35.5.5,0,0,0,0-.13c-.1-.36-.18-.74-.25-1.12a.37.37,0,0,1,0-.11h0a2.63,2.63,0,0,1-.06-.39s0,0,0,0c0-.23,0-.46-.07-.7V55a2.26,2.26,0,0,1,0-.26V54.6a1.27,1.27,0,0,1,0-.2,1.41,1.41,0,0,1,0-.2c.09-5.23,4.22-9.34,9.16-10.26h0a11.55,11.55,0,0,1,1.77-.2,7,7,0,0,1,1,0A19.23,19.23,0,0,0,81.93,42.51Zm7.86,13.81a.86.86,0,0,0,.11-.5,2.92,2.92,0,0,0-.05-.5.33.33,0,0,0,0-.1.59.59,0,0,0,0-.14,6.07,6.07,0,0,0-.2-1,7.39,7.39,0,0,0-1-2.2l0-.07h0a7.49,7.49,0,0,0-6-3.28c-3.7-.2-6.47,2.79-7.14,6.14h0c0,.14,0,.27-.07.4s-.06.49-.08.74v.09a.86.86,0,0,0,.12.41,1,1,0,0,0,1.59,0,1,1,0,0,0,.16-.49h0a5.76,5.76,0,0,1,.09-.74,2.83,2.83,0,0,1,.1-.47c1.27-5.23,8.79-5.35,10.36-.37a4.3,4.3,0,0,1,.19.84,2.12,2.12,0,0,1,.06.43,2.91,2.91,0,0,1,0,.31.88.88,0,0,0,.16.5.89.89,0,0,0,.44.33,1,1,0,0,0,.9-.06h.11a.11.11,0,0,0,0-.08h0A.79.79,0,0,0,89.79,56.32Zm0,0a.86.86,0,0,0,.11-.5,2.92,2.92,0,0,0-.05-.5.33.33,0,0,0,0-.1.59.59,0,0,0,0-.14,6.07,6.07,0,0,0-.2-1,7.39,7.39,0,0,0-1-2.2l0-.07h0a7.49,7.49,0,0,0-6-3.28c-3.7-.2-6.47,2.79-7.14,6.14h0c0,.14,0,.27-.07.4s-.06.49-.08.74v.09a.86.86,0,0,0,.12.41,1,1,0,0,0,1.59,0,1,1,0,0,0,.16-.49h0a5.76,5.76,0,0,1,.09-.74,2.83,2.83,0,0,1,.1-.47c1.27-5.23,8.79-5.35,10.36-.37a4.3,4.3,0,0,1,.19.84,2.12,2.12,0,0,1,.06.43,2.91,2.91,0,0,1,0,.31.88.88,0,0,0,.16.5.89.89,0,0,0,.44.33,1,1,0,0,0,.9-.06h.11a.11.11,0,0,0,0-.08h0A.79.79,0,0,0,89.79,56.32ZM81.93,42.51a12.13,12.13,0,0,0-11.14,8.35,11.16,11.16,0,0,0-.55,2.59c0,.4-.07.82-.07,1.23,0,.14,0,.27,0,.4v.07a11,11,0,0,0,.11,1.17s0,0,0,0a2.2,2.2,0,0,0,.06.37c0,.28.1.56.16.84h0a9.46,9.46,0,0,0,.26.91,11.85,11.85,0,0,0,1.91,3.62L73.51,61a10.72,10.72,0,0,1-1.15-2.07,10.89,10.89,0,0,1-.49-1.35.5.5,0,0,0,0-.13c-.1-.36-.18-.74-.25-1.12a.37.37,0,0,1,0-.11h0a2.63,2.63,0,0,1-.06-.39s0,0,0,0c0-.23,0-.46-.07-.7V55a2.26,2.26,0,0,1,0-.26V54.6a1.27,1.27,0,0,1,0-.2,1.41,1.41,0,0,1,0-.2c.09-5.23,4.22-9.34,9.16-10.26h0a11.55,11.55,0,0,1,1.77-.2,7,7,0,0,1,1,0A19.23,19.23,0,0,0,81.93,42.51Zm7.86,13.81a.86.86,0,0,0,.11-.5,2.92,2.92,0,0,0-.05-.5.33.33,0,0,0,0-.1.59.59,0,0,0,0-.14,6.07,6.07,0,0,0-.2-1,7.39,7.39,0,0,0-1-2.2l0-.07h0a7.49,7.49,0,0,0-6-3.28c-3.7-.2-6.47,2.79-7.14,6.14h0c0,.14,0,.27-.07.4s-.06.49-.08.74v.09a.86.86,0,0,0,.12.41,1,1,0,0,0,1.59,0,1,1,0,0,0,.16-.49h0a5.76,5.76,0,0,1,.09-.74,2.83,2.83,0,0,1,.1-.47c1.27-5.23,8.79-5.35,10.36-.37a4.3,4.3,0,0,1,.19.84,2.12,2.12,0,0,1,.06.43,2.91,2.91,0,0,1,0,.31.88.88,0,0,0,.16.5.89.89,0,0,0,.44.33,1,1,0,0,0,.9-.06h.11a.11.11,0,0,0,0-.08h0A.79.79,0,0,0,89.79,56.32Zm0,0a.86.86,0,0,0,.11-.5,2.92,2.92,0,0,0-.05-.5.33.33,0,0,0,0-.1.59.59,0,0,0,0-.14,6.07,6.07,0,0,0-.2-1,7.39,7.39,0,0,0-1-2.2l0-.07h0a7.49,7.49,0,0,0-6-3.28c-3.7-.2-6.47,2.79-7.14,6.14h0c0,.14,0,.27-.07.4s-.06.49-.08.74v.09a.86.86,0,0,0,.12.41,1,1,0,0,0,1.59,0,1,1,0,0,0,.16-.49h0a5.76,5.76,0,0,1,.09-.74,2.83,2.83,0,0,1,.1-.47c1.27-5.23,8.79-5.35,10.36-.37a4.3,4.3,0,0,1,.19.84,2.12,2.12,0,0,1,.06.43,2.91,2.91,0,0,1,0,.31.88.88,0,0,0,.16.5.89.89,0,0,0,.44.33,1,1,0,0,0,.9-.06h.11a.11.11,0,0,0,0-.08h0A.79.79,0,0,0,89.79,56.32ZM80.58,43.94h0a11.55,11.55,0,0,1,1.77-.2,7,7,0,0,1,1,0,19.23,19.23,0,0,0-1.46-1.27,12.13,12.13,0,0,0-11.14,8.35,11.16,11.16,0,0,0-.55,2.59c0,.4-.07.82-.07,1.23,0,.14,0,.27,0,.4v.07a11,11,0,0,0,.11,1.17s0,0,0,0a2.2,2.2,0,0,0,.06.37c0,.28.1.56.16.84h0a9.46,9.46,0,0,0,.26.91,11.85,11.85,0,0,0,1.91,3.62L73.51,61a10.72,10.72,0,0,1-1.15-2.07,10.89,10.89,0,0,1-.49-1.35.5.5,0,0,0,0-.13c-.1-.36-.18-.74-.25-1.12a.37.37,0,0,1,0-.11h0a2.63,2.63,0,0,1-.06-.39s0,0,0,0c0-.23,0-.46-.07-.7V55a2.26,2.26,0,0,1,0-.26V54.6a1.27,1.27,0,0,1,0-.2,1.41,1.41,0,0,1,0-.2C71.51,49,75.64,44.86,80.58,43.94Zm7.1-.21a8.61,8.61,0,0,0-1.37-.57h0a12.28,12.28,0,0,0-3.94-.65h-.43a12.13,12.13,0,0,0-11.14,8.35,11.16,11.16,0,0,0-.55,2.59c0,.4-.07.82-.07,1.23,0,.14,0,.27,0,.4v.07a11,11,0,0,0,.11,1.17s0,0,0,0a2.2,2.2,0,0,0,.06.37c0,.28.1.56.16.84h0a9.46,9.46,0,0,0,.26.91,11.85,11.85,0,0,0,1.91,3.62,10.55,10.55,0,0,0,.83,1h0a10.18,10.18,0,0,0,.89.85,12.18,12.18,0,0,0,13.91,1.39l.34-.19a13.74,13.74,0,0,0,1.24-.87l.24-.18h0a11.26,11.26,0,0,0,1-1c.22-.23.44-.47.65-.72h0a12.18,12.18,0,0,0-4.12-18.65Zm3.47,17.35c-.14.2-.3.4-.46.59a6.91,6.91,0,0,1-.79.83,10.68,10.68,0,0,1-.88.78l-.36.26a11.43,11.43,0,0,1-6.3,2.09,10.13,10.13,0,0,1-7.18-2.74A9.14,9.14,0,0,1,74.3,62a9.59,9.59,0,0,1-.79-1,10.72,10.72,0,0,1-1.15-2.07,10.89,10.89,0,0,1-.49-1.35.5.5,0,0,0,0-.13c-.1-.36-.18-.74-.25-1.12a.37.37,0,0,1,0-.11h0a2.63,2.63,0,0,1-.06-.39s0,0,0,0c0-.23,0-.46-.07-.7V55a2.26,2.26,0,0,1,0-.26V54.6a1.27,1.27,0,0,1,0-.2,1.41,1.41,0,0,1,0-.2c.09-5.23,4.22-9.34,9.16-10.26h0a11.55,11.55,0,0,1,1.77-.2,7,7,0,0,1,1,0h.06a9.94,9.94,0,0,1,2.26.44h0a10.08,10.08,0,0,1,1.63.69c.25.13.5.28.73.43h0a11.6,11.6,0,0,1,5.21,9.33,11.48,11.48,0,0,1-1.11,4.65A10.22,10.22,0,0,1,91.15,61.08Zm-1.3-5.86a.59.59,0,0,0,0-.14,6.07,6.07,0,0,0-.2-1,7.39,7.39,0,0,0-1-2.2l0-.07h0a7.49,7.49,0,0,0-6-3.28c-3.7-.2-6.47,2.79-7.14,6.14h0c0,.14,0,.27-.07.4s-.06.49-.08.74v.09a.86.86,0,0,0,.12.41,1,1,0,0,0,1.59,0,1,1,0,0,0,.16-.49h0a5.76,5.76,0,0,1,.09-.74,2.83,2.83,0,0,1,.1-.47c1.27-5.23,8.79-5.35,10.36-.37a4.3,4.3,0,0,1,.19.84,2.12,2.12,0,0,1,.06.43,2.91,2.91,0,0,1,0,.31.88.88,0,0,0,.16.5.89.89,0,0,0,.44.33,1,1,0,0,0,.9-.06h.11a.11.11,0,0,0,0-.08h0a.79.79,0,0,0,.14-.17.86.86,0,0,0,.11-.5,2.92,2.92,0,0,0-.05-.5A.33.33,0,0,0,89.85,55.22ZM81.93,42.51a12.13,12.13,0,0,0-11.14,8.35,11.16,11.16,0,0,0-.55,2.59c0,.4-.07.82-.07,1.23,0,.14,0,.27,0,.4v.07a11,11,0,0,0,.11,1.17s0,0,0,0a2.2,2.2,0,0,0,.06.37c0,.28.1.56.16.84h0a9.46,9.46,0,0,0,.26.91,11.85,11.85,0,0,0,1.91,3.62L73.51,61a10.72,10.72,0,0,1-1.15-2.07,10.89,10.89,0,0,1-.49-1.35.5.5,0,0,0,0-.13c-.1-.36-.18-.74-.25-1.12a.37.37,0,0,1,0-.11h0a2.63,2.63,0,0,1-.06-.39s0,0,0,0c0-.23,0-.46-.07-.7V55a2.26,2.26,0,0,1,0-.26V54.6a1.27,1.27,0,0,1,0-.2,1.41,1.41,0,0,1,0-.2c.09-5.23,4.22-9.34,9.16-10.26h0a11.55,11.55,0,0,1,1.77-.2,7,7,0,0,1,1,0A19.23,19.23,0,0,0,81.93,42.51Zm7.86,13.81a.86.86,0,0,0,.11-.5,2.92,2.92,0,0,0-.05-.5.33.33,0,0,0,0-.1.59.59,0,0,0,0-.14,6.07,6.07,0,0,0-.2-1,7.39,7.39,0,0,0-1-2.2l0-.07h0a7.49,7.49,0,0,0-6-3.28c-3.7-.2-6.47,2.79-7.14,6.14h0c0,.14,0,.27-.07.4s-.06.49-.08.74v.09a.86.86,0,0,0,.12.41,1,1,0,0,0,1.59,0,1,1,0,0,0,.16-.49h0a5.76,5.76,0,0,1,.09-.74,2.83,2.83,0,0,1,.1-.47c1.27-5.23,8.79-5.35,10.36-.37a4.3,4.3,0,0,1,.19.84,2.12,2.12,0,0,1,.06.43,2.91,2.91,0,0,1,0,.31.88.88,0,0,0,.16.5.89.89,0,0,0,.44.33,1,1,0,0,0,.9-.06h.11a.11.11,0,0,0,0-.08h0A.79.79,0,0,0,89.79,56.32Zm0,0a.86.86,0,0,0,.11-.5,2.92,2.92,0,0,0-.05-.5.33.33,0,0,0,0-.1.59.59,0,0,0,0-.14,6.07,6.07,0,0,0-.2-1,7.39,7.39,0,0,0-1-2.2l0-.07h0a7.49,7.49,0,0,0-6-3.28c-3.7-.2-6.47,2.79-7.14,6.14h0c0,.14,0,.27-.07.4s-.06.49-.08.74v.09a.86.86,0,0,0,.12.41,1,1,0,0,0,1.59,0,1,1,0,0,0,.16-.49h0a5.76,5.76,0,0,1,.09-.74,2.83,2.83,0,0,1,.1-.47c1.27-5.23,8.79-5.35,10.36-.37a4.3,4.3,0,0,1,.19.84,2.12,2.12,0,0,1,.06.43,2.91,2.91,0,0,1,0,.31.88.88,0,0,0,.16.5.89.89,0,0,0,.44.33,1,1,0,0,0,.9-.06h.11a.11.11,0,0,0,0-.08h0A.79.79,0,0,0,89.79,56.32ZM81.93,42.51a12.13,12.13,0,0,0-11.14,8.35,11.16,11.16,0,0,0-.55,2.59c0,.4-.07.82-.07,1.23,0,.14,0,.27,0,.4v.07a11,11,0,0,0,.11,1.17s0,0,0,0a2.2,2.2,0,0,0,.06.37c0,.28.1.56.16.84h0a9.46,9.46,0,0,0,.26.91,11.85,11.85,0,0,0,1.91,3.62L73.51,61a10.72,10.72,0,0,1-1.15-2.07,10.89,10.89,0,0,1-.49-1.35.5.5,0,0,0,0-.13c-.1-.36-.18-.74-.25-1.12a.37.37,0,0,1,0-.11h0a2.63,2.63,0,0,1-.06-.39s0,0,0,0c0-.23,0-.46-.07-.7V55a2.26,2.26,0,0,1,0-.26V54.6a1.27,1.27,0,0,1,0-.2,1.41,1.41,0,0,1,0-.2c.09-5.23,4.22-9.34,9.16-10.26h0a11.55,11.55,0,0,1,1.77-.2,7,7,0,0,1,1,0A19.23,19.23,0,0,0,81.93,42.51Zm7.86,13.81a.86.86,0,0,0,.11-.5,2.92,2.92,0,0,0-.05-.5.33.33,0,0,0,0-.1.59.59,0,0,0,0-.14,6.07,6.07,0,0,0-.2-1,7.39,7.39,0,0,0-1-2.2l0-.07h0a7.49,7.49,0,0,0-6-3.28c-3.7-.2-6.47,2.79-7.14,6.14h0c0,.14,0,.27-.07.4s-.06.49-.08.74v.09a.86.86,0,0,0,.12.41,1,1,0,0,0,1.59,0,1,1,0,0,0,.16-.49h0a5.76,5.76,0,0,1,.09-.74,2.83,2.83,0,0,1,.1-.47c1.27-5.23,8.79-5.35,10.36-.37a4.3,4.3,0,0,1,.19.84,2.12,2.12,0,0,1,.06.43,2.91,2.91,0,0,1,0,.31.88.88,0,0,0,.16.5.89.89,0,0,0,.44.33,1,1,0,0,0,.9-.06h.11a.11.11,0,0,0,0-.08h0A.79.79,0,0,0,89.79,56.32Zm0,0a.86.86,0,0,0,.11-.5,2.92,2.92,0,0,0-.05-.5.33.33,0,0,0,0-.1.59.59,0,0,0,0-.14,6.07,6.07,0,0,0-.2-1,7.39,7.39,0,0,0-1-2.2l0-.07h0a7.49,7.49,0,0,0-6-3.28c-3.7-.2-6.47,2.79-7.14,6.14h0c0,.14,0,.27-.07.4s-.06.49-.08.74v.09a.86.86,0,0,0,.12.41,1,1,0,0,0,1.59,0,1,1,0,0,0,.16-.49h0a5.76,5.76,0,0,1,.09-.74,2.83,2.83,0,0,1,.1-.47c1.27-5.23,8.79-5.35,10.36-.37a4.3,4.3,0,0,1,.19.84,2.12,2.12,0,0,1,.06.43,2.91,2.91,0,0,1,0,.31.88.88,0,0,0,.16.5.89.89,0,0,0,.44.33,1,1,0,0,0,.9-.06h.11a.11.11,0,0,0,0-.08h0A.79.79,0,0,0,89.79,56.32ZM81.93,42.51a12.13,12.13,0,0,0-11.14,8.35,11.16,11.16,0,0,0-.55,2.59c0,.4-.07.82-.07,1.23,0,.14,0,.27,0,.4v.07a11,11,0,0,0,.11,1.17s0,0,0,0a2.2,2.2,0,0,0,.06.37c0,.28.1.56.16.84h0a9.46,9.46,0,0,0,.26.91,11.85,11.85,0,0,0,1.91,3.62L73.51,61a10.72,10.72,0,0,1-1.15-2.07,10.89,10.89,0,0,1-.49-1.35.5.5,0,0,0,0-.13c-.1-.36-.18-.74-.25-1.12a.37.37,0,0,1,0-.11h0a2.63,2.63,0,0,1-.06-.39s0,0,0,0c0-.23,0-.46-.07-.7V55a2.26,2.26,0,0,1,0-.26V54.6a1.27,1.27,0,0,1,0-.2,1.41,1.41,0,0,1,0-.2c.09-5.23,4.22-9.34,9.16-10.26h0a11.55,11.55,0,0,1,1.77-.2,7,7,0,0,1,1,0A19.23,19.23,0,0,0,81.93,42.51Zm7.86,13.81a.86.86,0,0,0,.11-.5,2.92,2.92,0,0,0-.05-.5.33.33,0,0,0,0-.1.59.59,0,0,0,0-.14,6.07,6.07,0,0,0-.2-1,7.39,7.39,0,0,0-1-2.2l0-.07h0a7.49,7.49,0,0,0-6-3.28c-3.7-.2-6.47,2.79-7.14,6.14h0c0,.14,0,.27-.07.4s-.06.49-.08.74v.09a.86.86,0,0,0,.12.41,1,1,0,0,0,1.59,0,1,1,0,0,0,.16-.49h0a5.76,5.76,0,0,1,.09-.74,2.83,2.83,0,0,1,.1-.47c1.27-5.23,8.79-5.35,10.36-.37a4.3,4.3,0,0,1,.19.84,2.12,2.12,0,0,1,.06.43,2.91,2.91,0,0,1,0,.31.88.88,0,0,0,.16.5.89.89,0,0,0,.44.33,1,1,0,0,0,.9-.06h.11a.11.11,0,0,0,0-.08h0A.79.79,0,0,0,89.79,56.32Zm0,0a.86.86,0,0,0,.11-.5,2.92,2.92,0,0,0-.05-.5.33.33,0,0,0,0-.1.59.59,0,0,0,0-.14,6.07,6.07,0,0,0-.2-1,7.39,7.39,0,0,0-1-2.2l0-.07h0a7.49,7.49,0,0,0-6-3.28c-3.7-.2-6.47,2.79-7.14,6.14h0c0,.14,0,.27-.07.4s-.06.49-.08.74v.09a.86.86,0,0,0,.12.41,1,1,0,0,0,1.59,0,1,1,0,0,0,.16-.49h0a5.76,5.76,0,0,1,.09-.74,2.83,2.83,0,0,1,.1-.47c1.27-5.23,8.79-5.35,10.36-.37a4.3,4.3,0,0,1,.19.84,2.12,2.12,0,0,1,.06.43,2.91,2.91,0,0,1,0,.31.88.88,0,0,0,.16.5.89.89,0,0,0,.44.33,1,1,0,0,0,.9-.06h.11a.11.11,0,0,0,0-.08h0A.79.79,0,0,0,89.79,56.32ZM81.93,42.51a12.13,12.13,0,0,0-11.14,8.35,11.16,11.16,0,0,0-.55,2.59c0,.4-.07.82-.07,1.23,0,.14,0,.27,0,.4v.07a11,11,0,0,0,.11,1.17s0,0,0,0a2.2,2.2,0,0,0,.06.37c0,.28.1.56.16.84h0a9.46,9.46,0,0,0,.26.91,11.85,11.85,0,0,0,1.91,3.62L73.51,61a10.72,10.72,0,0,1-1.15-2.07,10.89,10.89,0,0,1-.49-1.35.5.5,0,0,0,0-.13c-.1-.36-.18-.74-.25-1.12a.37.37,0,0,1,0-.11h0a2.63,2.63,0,0,1-.06-.39s0,0,0,0c0-.23,0-.46-.07-.7V55a2.26,2.26,0,0,1,0-.26V54.6a1.27,1.27,0,0,1,0-.2,1.41,1.41,0,0,1,0-.2c.09-5.23,4.22-9.34,9.16-10.26h0a11.55,11.55,0,0,1,1.77-.2,7,7,0,0,1,1,0A19.23,19.23,0,0,0,81.93,42.51Zm7.86,13.81a.86.86,0,0,0,.11-.5,2.92,2.92,0,0,0-.05-.5.33.33,0,0,0,0-.1.59.59,0,0,0,0-.14,6.07,6.07,0,0,0-.2-1,7.39,7.39,0,0,0-1-2.2l0-.07h0a7.49,7.49,0,0,0-6-3.28c-3.7-.2-6.47,2.79-7.14,6.14h0c0,.14,0,.27-.07.4s-.06.49-.08.74v.09a.86.86,0,0,0,.12.41,1,1,0,0,0,1.59,0,1,1,0,0,0,.16-.49h0a5.76,5.76,0,0,1,.09-.74,2.83,2.83,0,0,1,.1-.47c1.27-5.23,8.79-5.35,10.36-.37a4.3,4.3,0,0,1,.19.84,2.12,2.12,0,0,1,.06.43,2.91,2.91,0,0,1,0,.31.88.88,0,0,0,.16.5.89.89,0,0,0,.44.33,1,1,0,0,0,.9-.06h.11a.11.11,0,0,0,0-.08h0A.79.79,0,0,0,89.79,56.32Zm0,0a.86.86,0,0,0,.11-.5,2.92,2.92,0,0,0-.05-.5.33.33,0,0,0,0-.1.59.59,0,0,0,0-.14,6.07,6.07,0,0,0-.2-1,7.39,7.39,0,0,0-1-2.2l0-.07h0a7.49,7.49,0,0,0-6-3.28c-3.7-.2-6.47,2.79-7.14,6.14h0c0,.14,0,.27-.07.4s-.06.49-.08.74v.09a.86.86,0,0,0,.12.41,1,1,0,0,0,1.59,0,1,1,0,0,0,.16-.49h0a5.76,5.76,0,0,1,.09-.74,2.83,2.83,0,0,1,.1-.47c1.27-5.23,8.79-5.35,10.36-.37a4.3,4.3,0,0,1,.19.84,2.12,2.12,0,0,1,.06.43,2.91,2.91,0,0,1,0,.31.88.88,0,0,0,.16.5.89.89,0,0,0,.44.33,1,1,0,0,0,.9-.06h.11a.11.11,0,0,0,0-.08h0A.79.79,0,0,0,89.79,56.32Z" fill="#fff"/><path d="M71.83,57.44c-.1-.36-.18-.74-.25-1.12a.37.37,0,0,1,0-.11h0a2.63,2.63,0,0,1-.06-.39s0,0,0,0c0-.23,0-.46-.07-.7V55a2.26,2.26,0,0,1,0-.26.11.11,0,0,1,0,.05,1.48,1.48,0,0,1,0,.21v.09l0,.43c0,.15,0,.3,0,.44s0,.2,0,.3c-.22,0-.45,0-.68.07h-.31s0,0,0,0a2.2,2.2,0,0,0,.06.37c.19.21.39.44.59.65l.1.11,0,0,0,0h.75A.5.5,0,0,0,71.83,57.44Zm10.1-14.93a12.13,12.13,0,0,0-11.14,8.35,11.16,11.16,0,0,0-.55,2.59c0,.4-.07.82-.07,1.23,0,.14,0,.27,0,.4v0c0,.21,0,.42,0,.63l-.06.57h.23s0,0,0,0a2.2,2.2,0,0,0,.06.37c0,.28.1.56.16.84h0a9.46,9.46,0,0,0,.26.91,11.85,11.85,0,0,0,1.91,3.62L73.51,61a10.72,10.72,0,0,1-1.15-2.07,10.89,10.89,0,0,1-.49-1.35.5.5,0,0,0,0-.13c-.1-.36-.18-.74-.25-1.12a.37.37,0,0,1,0-.11h0a2.63,2.63,0,0,1-.06-.39s0,0,0,0c0-.23,0-.46-.07-.7V55a2.26,2.26,0,0,1,0-.26V54.6a1.27,1.27,0,0,1,0-.2,1.41,1.41,0,0,1,0-.2c.09-5.23,4.22-9.34,9.16-10.26h0a11.55,11.55,0,0,1,1.77-.2,7,7,0,0,1,1,0A19.23,19.23,0,0,0,81.93,42.51Zm0,0a12.13,12.13,0,0,0-11.14,8.35,11.16,11.16,0,0,0-.55,2.59c0,.4-.07.82-.07,1.23,0,.14,0,.27,0,.4v.07a11,11,0,0,0,.11,1.17s0,0,0,0a2.2,2.2,0,0,0,.06.37c0,.28.1.56.16.84h0a9.46,9.46,0,0,0,.26.91,11.85,11.85,0,0,0,1.91,3.62L73.51,61a10.72,10.72,0,0,1-1.15-2.07,10.89,10.89,0,0,1-.49-1.35.5.5,0,0,0,0-.13c-.1-.36-.18-.74-.25-1.12a.37.37,0,0,1,0-.11h0a2.63,2.63,0,0,1-.06-.39s0,0,0,0c0-.23,0-.46-.07-.7V55a2.26,2.26,0,0,1,0-.26V54.6a1.27,1.27,0,0,1,0-.2,1.41,1.41,0,0,1,0-.2c.09-5.23,4.22-9.34,9.16-10.26h0a11.55,11.55,0,0,1,1.77-.2,7,7,0,0,1,1,0A19.23,19.23,0,0,0,81.93,42.51Zm0,0a12.13,12.13,0,0,0-11.14,8.35,11.16,11.16,0,0,0-.55,2.59c0,.4-.07.82-.07,1.23,0,.14,0,.27,0,.4v.07a11,11,0,0,0,.11,1.17s0,0,0,0a2.2,2.2,0,0,0,.06.37c0,.28.1.56.16.84h0a9.46,9.46,0,0,0,.26.91,11.85,11.85,0,0,0,1.91,3.62L73.51,61a10.72,10.72,0,0,1-1.15-2.07,10.89,10.89,0,0,1-.49-1.35.5.5,0,0,0,0-.13c-.1-.36-.18-.74-.25-1.12a.37.37,0,0,1,0-.11h0a2.63,2.63,0,0,1-.06-.39s0,0,0,0c0-.23,0-.46-.07-.7V55a2.26,2.26,0,0,1,0-.26V54.6a1.27,1.27,0,0,1,0-.2,1.41,1.41,0,0,1,0-.2c.09-5.23,4.22-9.34,9.16-10.26h0a11.55,11.55,0,0,1,1.77-.2,7,7,0,0,1,1,0A19.23,19.23,0,0,0,81.93,42.51Zm0,0a12.13,12.13,0,0,0-11.14,8.35,11.16,11.16,0,0,0-.55,2.59c0,.4-.07.82-.07,1.23,0,.14,0,.27,0,.4v.07a11,11,0,0,0,.11,1.17s0,0,0,0a2.2,2.2,0,0,0,.06.37c0,.28.1.56.16.84h0a9.46,9.46,0,0,0,.26.91,11.85,11.85,0,0,0,1.91,3.62L73.51,61a10.72,10.72,0,0,1-1.15-2.07,10.89,10.89,0,0,1-.49-1.35.5.5,0,0,0,0-.13c-.1-.36-.18-.74-.25-1.12a.37.37,0,0,1,0-.11h0a2.63,2.63,0,0,1-.06-.39s0,0,0,0c0-.23,0-.46-.07-.7V55a2.26,2.26,0,0,1,0-.26V54.6a1.27,1.27,0,0,1,0-.2,1.41,1.41,0,0,1,0-.2c.09-5.23,4.22-9.34,9.16-10.26h0a11.55,11.55,0,0,1,1.77-.2,7,7,0,0,1,1,0A19.23,19.23,0,0,0,81.93,42.51Zm0,0a12.13,12.13,0,0,0-11.14,8.35,11.16,11.16,0,0,0-.55,2.59c0,.4-.07.82-.07,1.23,0,.14,0,.27,0,.4v.07a11,11,0,0,0,.11,1.17s0,0,0,0a2.2,2.2,0,0,0,.06.37c0,.28.1.56.16.84h0a9.46,9.46,0,0,0,.26.91,11.85,11.85,0,0,0,1.91,3.62L73.51,61a10.72,10.72,0,0,1-1.15-2.07,10.89,10.89,0,0,1-.49-1.35.5.5,0,0,0,0-.13c-.1-.36-.18-.74-.25-1.12a.37.37,0,0,1,0-.11h0a2.63,2.63,0,0,1-.06-.39s0,0,0,0c0-.23,0-.46-.07-.7V55a2.26,2.26,0,0,1,0-.26V54.6a1.27,1.27,0,0,1,0-.2,1.41,1.41,0,0,1,0-.2c.09-5.23,4.22-9.34,9.16-10.26h0a11.55,11.55,0,0,1,1.77-.2,7,7,0,0,1,1,0A19.23,19.23,0,0,0,81.93,42.51ZM95.77,54.58a13.59,13.59,0,0,0-7.77-12,14,14,0,0,0-3.38-1.1h-.05a14.36,14.36,0,0,0-2.1-.23h-.11a13,13,0,0,0-2,.11s0,0,0,0h0a11.83,11.83,0,0,0-4.11,1.34,13.74,13.74,0,0,0-6,6.55,13.34,13.34,0,0,0-.62,1.63A14,14,0,0,0,69,54.17c0,.17,0,.34,0,.51s0,.27,0,.4a1.15,1.15,0,0,0,0,.19A5.94,5.94,0,0,0,69,56l0,.32,0,.2c0,.36.1.7.17,1h0a.76.76,0,0,0,0,.16,8.36,8.36,0,0,0,.27,1,10.4,10.4,0,0,0,.61,1.55,12.77,12.77,0,0,0,1.83,2.86c.28.32.56.62.86.92a12.19,12.19,0,0,0,.92.82,14.31,14.31,0,0,0,8.65,3.26,12.14,12.14,0,0,0,5.12-1,9.93,9.93,0,0,0,1.18-.58,5.73,5.73,0,0,0,.75-.45,4.2,4.2,0,0,0,.49-.33,13.46,13.46,0,0,0,1.25-1l.08-.08a14.28,14.28,0,0,0,4.54-9.91s0,0,0-.06v0A.38.38,0,0,0,95.77,54.58Zm-3.58,4.75a10.22,10.22,0,0,1-1,1.75c-.14.2-.3.4-.46.59a6.91,6.91,0,0,1-.79.83,10.68,10.68,0,0,1-.88.78l-.36.26a11.43,11.43,0,0,1-6.3,2.09,10.13,10.13,0,0,1-7.18-2.74A9.14,9.14,0,0,1,74.3,62a9.59,9.59,0,0,1-.79-1,10.72,10.72,0,0,1-1.15-2.07,10.89,10.89,0,0,1-.49-1.35.5.5,0,0,0,0-.13c-.1-.36-.18-.74-.25-1.12a.37.37,0,0,1,0-.11h0a2.63,2.63,0,0,1-.06-.39s0,0,0,0c0-.23,0-.46-.07-.7V55a2.26,2.26,0,0,1,0-.26V54.6a1.27,1.27,0,0,1,0-.2,1.41,1.41,0,0,1,0-.2c.09-5.23,4.22-9.34,9.16-10.26h0a11.55,11.55,0,0,1,1.77-.2,7,7,0,0,1,1,0h.06a9.94,9.94,0,0,1,2.26.44h0a10.08,10.08,0,0,1,1.63.69c.25.13.5.28.73.43h0a11.6,11.6,0,0,1,5.21,9.33A11.48,11.48,0,0,1,92.19,59.33ZM81.93,42.51a12.13,12.13,0,0,0-11.14,8.35,11.16,11.16,0,0,0-.55,2.59c0,.4-.07.82-.07,1.23,0,.14,0,.27,0,.4v.07a11,11,0,0,0,.11,1.17s0,0,0,0a2.2,2.2,0,0,0,.06.37c0,.28.1.56.16.84h0a9.46,9.46,0,0,0,.26.91,11.85,11.85,0,0,0,1.91,3.62L73.51,61a10.72,10.72,0,0,1-1.15-2.07,10.89,10.89,0,0,1-.49-1.35.5.5,0,0,0,0-.13c-.1-.36-.18-.74-.25-1.12a.37.37,0,0,1,0-.11h0a2.63,2.63,0,0,1-.06-.39s0,0,0,0c0-.23,0-.46-.07-.7V55a2.26,2.26,0,0,1,0-.26V54.6a1.27,1.27,0,0,1,0-.2,1.41,1.41,0,0,1,0-.2c.09-5.23,4.22-9.34,9.16-10.26h0a11.55,11.55,0,0,1,1.77-.2,7,7,0,0,1,1,0A19.23,19.23,0,0,0,81.93,42.51Zm0,0a12.13,12.13,0,0,0-11.14,8.35,11.16,11.16,0,0,0-.55,2.59c0,.4-.07.82-.07,1.23,0,.14,0,.27,0,.4v.07a11,11,0,0,0,.11,1.17s0,0,0,0a2.2,2.2,0,0,0,.06.37c0,.28.1.56.16.84h0a9.46,9.46,0,0,0,.26.91,11.85,11.85,0,0,0,1.91,3.62L73.51,61a10.72,10.72,0,0,1-1.15-2.07,10.89,10.89,0,0,1-.49-1.35.5.5,0,0,0,0-.13c-.1-.36-.18-.74-.25-1.12a.37.37,0,0,1,0-.11h0a2.63,2.63,0,0,1-.06-.39s0,0,0,0c0-.23,0-.46-.07-.7V55a2.26,2.26,0,0,1,0-.26V54.6a1.27,1.27,0,0,1,0-.2,1.41,1.41,0,0,1,0-.2c.09-5.23,4.22-9.34,9.16-10.26h0a11.55,11.55,0,0,1,1.77-.2,7,7,0,0,1,1,0A19.23,19.23,0,0,0,81.93,42.51Zm0,0a12.13,12.13,0,0,0-11.14,8.35,11.16,11.16,0,0,0-.55,2.59c0,.4-.07.82-.07,1.23,0,.14,0,.27,0,.4v.07a11,11,0,0,0,.11,1.17s0,0,0,0a2.2,2.2,0,0,0,.06.37c0,.28.1.56.16.84h0a9.46,9.46,0,0,0,.26.91,11.85,11.85,0,0,0,1.91,3.62L73.51,61a10.72,10.72,0,0,1-1.15-2.07,10.89,10.89,0,0,1-.49-1.35.5.5,0,0,0,0-.13c-.1-.36-.18-.74-.25-1.12a.37.37,0,0,1,0-.11h0a2.63,2.63,0,0,1-.06-.39s0,0,0,0c0-.23,0-.46-.07-.7V55a2.26,2.26,0,0,1,0-.26V54.6a1.27,1.27,0,0,1,0-.2,1.41,1.41,0,0,1,0-.2c.09-5.23,4.22-9.34,9.16-10.26h0a11.55,11.55,0,0,1,1.77-.2,7,7,0,0,1,1,0A19.23,19.23,0,0,0,81.93,42.51Zm0,0a12.13,12.13,0,0,0-11.14,8.35,11.16,11.16,0,0,0-.55,2.59c0,.4-.07.82-.07,1.23,0,.14,0,.27,0,.4v.07a11,11,0,0,0,.11,1.17s0,0,0,0a2.2,2.2,0,0,0,.06.37c0,.28.1.56.16.84h0a9.46,9.46,0,0,0,.26.91,11.85,11.85,0,0,0,1.91,3.62L73.51,61a10.72,10.72,0,0,1-1.15-2.07,10.89,10.89,0,0,1-.49-1.35.5.5,0,0,0,0-.13c-.1-.36-.18-.74-.25-1.12a.37.37,0,0,1,0-.11h0a2.63,2.63,0,0,1-.06-.39s0,0,0,0c0-.23,0-.46-.07-.7V55a2.26,2.26,0,0,1,0-.26V54.6a1.27,1.27,0,0,1,0-.2,1.41,1.41,0,0,1,0-.2c.09-5.23,4.22-9.34,9.16-10.26h0a11.55,11.55,0,0,1,1.77-.2,7,7,0,0,1,1,0A19.23,19.23,0,0,0,81.93,42.51ZM71.51,55.81s0,0,0,0c0-.23,0-.46-.07-.7V55a2.26,2.26,0,0,1,0-.26.11.11,0,0,1,0,.05,1.48,1.48,0,0,1,0,.21v.09l0,.43c0,.15,0,.3,0,.44s0,.2,0,.3l.29,0h0A2.63,2.63,0,0,1,71.51,55.81Zm.32,1.63c-.1-.36-.18-.74-.25-1.12a.37.37,0,0,1,0-.11h0a2.63,2.63,0,0,1-.06-.39s0,0,0,0c0-.23,0-.46-.07-.7V55a2.26,2.26,0,0,1,0-.26.11.11,0,0,1,0,.05,1.48,1.48,0,0,1,0,.21v.09l0,.43c0,.15,0,.3,0,.44s0,.2,0,.3c-.22,0-.45,0-.68.07h-.31s0,0,0,0a2.2,2.2,0,0,0,.06.37c.19.21.39.44.59.65l.1.11,0,0,0,0h.75A.5.5,0,0,0,71.83,57.44Z" fill="#231f20"/><path d="M51.56,91.63l-1.1-.36-.07,0L49,90.81c0-.43,0-.87,0-1.31V88.21l1.14.34.16,0c.65.2,1.29.41,1.93.64C53.73,89.75,53.08,92.16,51.56,91.63Z" fill="#20856f"/><path d="M55.49,98a12.26,12.26,0,0,1-2.76,1.24H51.45c-.11-.21-.22-.42-.32-.64l-.29-.6Z" fill="#20856f"/><path d="M61.55,87.25a11.76,11.76,0,0,1-.06,1.2c0,.25-.05.5-.09.75a11.4,11.4,0,0,1-.28,1.29,10.86,10.86,0,0,1-.4,1.22c-.37-.26-.75-.51-1.14-.76a43.37,43.37,0,0,0-9.33-4.35l-.19-.06c-.36-.12-.71-.24-1.07-.33V74.71a9.39,9.39,0,0,1,1.19.06h.06A12.56,12.56,0,0,1,61.49,86.06,11.56,11.56,0,0,1,61.55,87.25Z" fill="#20856f"/><path d="M50.39,91.24,49,90.81l-1.2-.35h0c-.1-.88-.16-1.76-.2-2.64h.05l1.32.37,1.14.34.16,0c0,.89.07,1.79.17,2.67Z" fill="#231f20"/><path d="M57.8,98a11.51,11.51,0,0,1-1.74,1.24,9.17,9.17,0,0,1-4.61,1.25,1.26,1.26,0,0,1-1.07-.62c-.11-.21-.21-.41-.31-.63s-.13-.27-.19-.41-.24-.55-.35-.83Z" fill="#231f20"/><path d="M62.78,87.25v.09a13.43,13.43,0,0,1-.34,2.56c-.08.42-.2.84-.32,1.26s-.28.81-.44,1.22c-.32-.23-.63-.45-1-.67S60,91.2,59.58,91c.14-.39.26-.79.36-1.19a12.56,12.56,0,0,0,.25-1.31,10.1,10.1,0,0,0,.11-1.2A11.45,11.45,0,0,0,50.24,76v9.41c0,.39,0,.77,0,1.15l-.19-.06c-.36-.12-.71-.24-1.07-.33s-.91-.29-1.37-.41h0c0-.36,0-.74,0-1.11s0-1,0-1.44c0-2.89.19-5.77.19-8.52A1.25,1.25,0,0,1,49,73.46c.43,0,.84,0,1.25.09a14.16,14.16,0,0,1,6.35,2.3h0l0,0c.27.2.55.41.84.61,0,0,0,0,0,0a14,14,0,0,1,5.24,10.62A.34.34,0,0,1,62.78,87.25Z" fill="#231f20"/><path d="M88.07,98a.75.75,0,0,0-.06.13c-.18.38-.36.75-.56,1.11H86.18A12.46,12.46,0,0,1,83.42,98h3.25a.17.17,0,0,0,0,0h0a6,6,0,0,0,.75,0Z" fill="#20856f"/><path d="M89.9,88.6v.9c0,.41,0,.81,0,1.2,0,.18,0,.35,0,.53l-1.22.4-.1,0-.05,0c-1.41.32-2-2-.52-2.44l.72-.25.09,0,0,0Z" fill="#20856f"/><path d="M89.9,74.71V86.6L88.84,87l-.18.07a41.7,41.7,0,0,0-9.07,4.57c-.39.25-.76.51-1.13.78A12.26,12.26,0,0,1,78,91.2,12.77,12.77,0,0,1,77.65,90a12.56,12.56,0,0,1,11-15.18h.06A9.33,9.33,0,0,1,89.9,74.71Z" fill="#20856f"/><path d="M89.39,98c-.13.34-.29.68-.45,1l-.1.22-.31.63a.56.56,0,0,1-.1.15,1.09,1.09,0,0,1-.25.23.46.46,0,0,1-.13.08.52.52,0,0,1-.13.06l-.16.05-.11,0-.2,0h-.14a9.27,9.27,0,0,1-4.5-1.24A10.66,10.66,0,0,1,81.06,98h5.61a.17.17,0,0,0,0,0h0a6,6,0,0,0,.75,0h1.94Z" fill="#231f20"/><path d="M91.15,88.21V89.5c0,.45,0,.89-.07,1.33l-.06,0c-.39.12-.79.24-1.19.38l-1.22.4-.1,0c0-.39.08-.78.1-1.18s0-.65,0-1V89l.09,0,0,0,1.12-.35.58-.19Z" fill="#231f20"/><path d="M91.15,74.71v11.5c-.42.12-.83.25-1.25.39L88.84,87l-.18.07v-11c-5.26.71-9.88,4.94-10,10.51a12.19,12.19,0,0,0,.23,2.58c.09.43.2.85.32,1.27s.26.8.42,1.2c-.39.25-.76.51-1.13.78s-.63.46-.93.71A12.75,12.75,0,0,1,77,91.89c-.14-.4-.27-.81-.38-1.22a14.33,14.33,0,0,1-.47-4.79,13,13,0,0,1,3.45-7.79h0a14.25,14.25,0,0,1,5.42-3.65h0a14.54,14.54,0,0,1,3.58-.88c.41,0,.83-.08,1.24-.09A1.26,1.26,0,0,1,91.15,74.71Z" fill="#231f20"/><path d="M89.9,55.82a.86.86,0,0,1-.11.5.79.79,0,0,1-.14.17h0l-.11.09a1,1,0,0,1-.9.06.89.89,0,0,1-.44-.33.88.88,0,0,1-.16-.5,2.91,2.91,0,0,0,0-.31,2.12,2.12,0,0,0-.06-.43,4.3,4.3,0,0,0-.19-.84c-1.57-5-9.09-4.86-10.36.37a2.83,2.83,0,0,0-.1.47,5.76,5.76,0,0,0-.09.74h0a1,1,0,0,1-.16.49,1,1,0,0,1-1.59,0,.86.86,0,0,1-.12-.41v-.09c0-.25,0-.49.08-.74s0-.26.07-.4h0c.67-3.35,3.44-6.34,7.14-6.14a7.49,7.49,0,0,1,6,3.28h0l0,.07a7.39,7.39,0,0,1,1,2.2,6.07,6.07,0,0,1,.2,1,.59.59,0,0,1,0,.14.33.33,0,0,1,0,.1A2.92,2.92,0,0,1,89.9,55.82Z" fill="#231f20"/><path d="M109.81,100.48H30.18a1.25,1.25,0,0,1,0-2.49h79.63A1.25,1.25,0,0,1,109.81,100.48Z" fill="#231f20"/><path d="M52.22,89.24c-.64-.23-1.28-.44-1.93-.64l-.16,0c.06.91.13,1.81.26,2.69l.07,0,1.1.36C53.08,92.16,53.73,89.75,52.22,89.24Zm0,0c-.64-.23-1.28-.44-1.93-.64l-.16,0c.06.91.13,1.81.26,2.69l.07,0,1.1.36C53.08,92.16,53.73,89.75,52.22,89.24Zm0,0c-.64-.23-1.28-.44-1.93-.64l-.16,0c.06.91.13,1.81.26,2.69l.07,0,1.1.36C53.08,92.16,53.73,89.75,52.22,89.24Zm0,0c-.64-.23-1.28-.44-1.93-.64l-.16,0c.06.91.13,1.81.26,2.69l.07,0,1.1.36C53.08,92.16,53.73,89.75,52.22,89.24Zm0,0c-.64-.23-1.28-.44-1.93-.64l-.16,0c.06.91.13,1.81.26,2.69l.07,0,1.1.36C53.08,92.16,53.73,89.75,52.22,89.24Zm0,0c-.64-.23-1.28-.44-1.93-.64l-.16,0c.06.91.13,1.81.26,2.69l.07,0,1.1.36C53.08,92.16,53.73,89.75,52.22,89.24Zm0,0c-.64-.23-1.28-.44-1.93-.64l-.16,0c.06.91.13,1.81.26,2.69l.07,0,1.1.36C53.08,92.16,53.73,89.75,52.22,89.24Zm0,0c-.64-.23-1.28-.44-1.93-.64l-.16,0c.06.91.13,1.81.26,2.69l.07,0,1.1.36C53.08,92.16,53.73,89.75,52.22,89.24Zm17.87,9.87-.31-.44L69.32,98a.09.09,0,0,0,0-.05,31.23,31.23,0,0,0-7.16-6.83l-1-.67c-.39-.25-.79-.5-1.18-.73a45.89,45.89,0,0,0-9.7-4.31l-.2-.06-1-.32c-.46-.13-.93-.27-1.38-.38l0,0A58.86,58.86,0,0,0,37.29,82.9h-.07c-.75-.06-1.18-.06-1.18-.06v16.4H70.17S70.11,99.15,70.09,99.11ZM37.29,98V93.35c1.74.13,3.48.39,5.2.69,1.56.28,2.24-2.12.66-2.4a57.62,57.62,0,0,0-5.86-.77V88.55a50.65,50.65,0,0,1,10.53,1.91h0l1.2.35,1.35.43.07,0,1.1.36c1.52.53,2.17-1.88.66-2.39-.64-.23-1.28-.44-1.93-.64l-.16,0L49,88.21l-1.32-.37h-.05a53.53,53.53,0,0,0-10.33-1.76V84.12a49.93,49.93,0,0,1,10.28,1.66h0c.46.12.92.26,1.37.41s.71.21,1.07.33l.19.06A43.37,43.37,0,0,1,59.58,91c.39.25.77.5,1.14.76s.64.44,1,.67a31.65,31.65,0,0,1,6,5.61Zm14.93-8.75c-.64-.23-1.28-.44-1.93-.64l-.16,0c.06.91.13,1.81.26,2.69l.07,0,1.1.36C53.08,92.16,53.73,89.75,52.22,89.24Zm0,0c-.64-.23-1.28-.44-1.93-.64l-.16,0c.06.91.13,1.81.26,2.69l.07,0,1.1.36C53.08,92.16,53.73,89.75,52.22,89.24Zm0,0c-.64-.23-1.28-.44-1.93-.64l-.16,0c.06.91.13,1.81.26,2.69l.07,0,1.1.36C53.08,92.16,53.73,89.75,52.22,89.24Zm0,0c-.64-.23-1.28-.44-1.93-.64l-.16,0c.06.91.13,1.81.26,2.69l.07,0,1.1.36C53.08,92.16,53.73,89.75,52.22,89.24Zm0,0c-.64-.23-1.28-.44-1.93-.64l-.16,0c.06.91.13,1.81.26,2.69l.07,0,1.1.36C53.08,92.16,53.73,89.75,52.22,89.24Zm0,0c-.64-.23-1.28-.44-1.93-.64l-.16,0c.06.91.13,1.81.26,2.69l.07,0,1.1.36C53.08,92.16,53.73,89.75,52.22,89.24Zm0,0c-.64-.23-1.28-.44-1.93-.64l-.16,0c.06.91.13,1.81.26,2.69l.07,0,1.1.36C53.08,92.16,53.73,89.75,52.22,89.24Zm0,0c-.64-.23-1.28-.44-1.93-.64l-.16,0c.06.91.13,1.81.26,2.69l.07,0,1.1.36C53.08,92.16,53.73,89.75,52.22,89.24Z" fill="#fff"/><path d="M71.24,98.6l-.4-.56a.07.07,0,0,0,0-.05c-.23-.33-.47-.64-.71-1a35.28,35.28,0,0,0-7.65-7.13c-.34-.24-.69-.47-1-.7s-.8-.51-1.21-.75A45.88,45.88,0,0,0,50.24,84a1.39,1.39,0,0,0-.19-.06c-.35-.12-.7-.23-1.06-.32s-.91-.26-1.37-.38h0A52.24,52.24,0,0,0,36,81.58a1.25,1.25,0,0,0-1.24,1.25v16.4a1.12,1.12,0,0,0,.35.86.18.18,0,0,0,.08.07,1.11,1.11,0,0,0,.81.32H70.17a1.31,1.31,0,0,0,1.26-1.25A1.13,1.13,0,0,0,71.24,98.6ZM37.29,98V84.12a49.93,49.93,0,0,1,10.28,1.66h0c.46.12.92.26,1.37.41s.71.21,1.07.33l.19.06A43.37,43.37,0,0,1,59.58,91c.39.25.77.5,1.14.76s.64.44,1,.67a31.65,31.65,0,0,1,6,5.61Z" fill="#231f20"/><path d="M51.56,91.63l-1.1-.36-.07,0L49,90.81l-1.2-.35h0a50.65,50.65,0,0,0-10.53-1.91L36,88.5c-1.6,0-1.6-2.54,0-2.49l1.25,0a53.53,53.53,0,0,1,10.33,1.76h.05l1.32.37,1.14.34.16,0c.65.2,1.29.41,1.93.64C53.73,89.75,53.08,92.16,51.56,91.63Z" fill="#231f20"/><path d="M42.49,94c-1.72-.3-3.46-.56-5.2-.69-.42,0-.83,0-1.25-.06-1.6-.05-1.6-2.54,0-2.49.42,0,.83,0,1.25.07a57.62,57.62,0,0,1,5.86.77C44.73,91.92,44.05,94.32,42.49,94Z" fill="#231f20"/><path d="M88.66,89l-.72.25c-1.45.49-.89,2.76.52,2.44l.05,0c0-.39.08-.78.1-1.18,0-.23.06-.46.07-.7v0c0-.23,0-.45.06-.68,0,0,0-.07,0-.11Zm-9.49,1.42q.18.6.42,1.2A41.7,41.7,0,0,1,88.66,87V85.87A43.92,43.92,0,0,0,79.17,90.41ZM77,91.89A30.36,30.36,0,0,0,70.89,98h1.59a31.59,31.59,0,0,1,5-4.89A12.75,12.75,0,0,1,77,91.89ZM88.66,89l-.72.25c-1.45.49-.89,2.76.52,2.44l.05,0c0-.39.08-.78.1-1.18,0-.23.06-.46.07-.7v0c0-.23,0-.45.06-.68,0,0,0-.07,0-.11Zm-9.49,1.42q.18.6.42,1.2A41.7,41.7,0,0,1,88.66,87V85.87A43.92,43.92,0,0,0,79.17,90.41ZM77,91.89A30.36,30.36,0,0,0,70.89,98h1.59a31.59,31.59,0,0,1,5-4.89A12.75,12.75,0,0,1,77,91.89ZM88.66,89l-.72.25c-1.45.49-.89,2.76.52,2.44l.05,0c0-.39.08-.78.1-1.18,0-.23.06-.46.07-.7v0c0-.23,0-.45.06-.68,0,0,0-.07,0-.11Zm-9.49,1.42q.18.6.42,1.2A41.7,41.7,0,0,1,88.66,87V85.87A43.92,43.92,0,0,0,79.17,90.41ZM77,91.89A30.36,30.36,0,0,0,70.89,98h1.59a31.59,31.59,0,0,1,5-4.89A12.75,12.75,0,0,1,77,91.89ZM88.66,89l-.72.25c-1.45.49-.89,2.76.52,2.44l.05,0c0-.39.08-.78.1-1.18,0-.23.06-.46.07-.7v0c0-.23,0-.45.06-.68,0,0,0-.07,0-.11Zm-9.49,1.42q.18.6.42,1.2A41.7,41.7,0,0,1,88.66,87V85.87A43.92,43.92,0,0,0,79.17,90.41ZM77,91.89A30.36,30.36,0,0,0,70.89,98h1.59a31.59,31.59,0,0,1,5-4.89A12.75,12.75,0,0,1,77,91.89ZM88.66,89l-.72.25c-1.45.49-.89,2.76.52,2.44l.05,0c0-.39.08-.78.1-1.18,0-.23.06-.46.07-.7v0c0-.23,0-.45.06-.68,0,0,0-.07,0-.11Zm-9.49,1.42q.18.6.42,1.2A41.7,41.7,0,0,1,88.66,87V85.87A43.92,43.92,0,0,0,79.17,90.41ZM77,91.89A30.36,30.36,0,0,0,70.89,98h1.59a31.59,31.59,0,0,1,5-4.89A12.75,12.75,0,0,1,77,91.89ZM88.66,89l-.72.25c-1.45.49-.89,2.76.52,2.44l.05,0c0-.39.08-.78.1-1.18,0-.23.06-.46.07-.7v0c0-.23,0-.45.06-.68,0,0,0-.07,0-.11Zm-9.49,1.42q.18.6.42,1.2A41.7,41.7,0,0,1,88.66,87V85.87A43.92,43.92,0,0,0,79.17,90.41ZM77,91.89A30.36,30.36,0,0,0,70.89,98h1.59a31.59,31.59,0,0,1,5-4.89A12.75,12.75,0,0,1,77,91.89ZM88.66,89l-.72.25c-1.45.49-.89,2.76.52,2.44l.05,0c0-.39.08-.78.1-1.18,0-.23.06-.46.07-.7v0c0-.23,0-.45.06-.68,0,0,0-.07,0-.11Zm-9.49,1.42q.18.6.42,1.2A41.7,41.7,0,0,1,88.66,87V85.87A43.92,43.92,0,0,0,79.17,90.41ZM77,91.89A30.36,30.36,0,0,0,70.89,98h1.59a31.59,31.59,0,0,1,5-4.89A12.75,12.75,0,0,1,77,91.89ZM88.66,89l-.72.25c-1.45.49-.89,2.76.52,2.44l.05,0c0-.39.08-.78.1-1.18,0-.23.06-.46.07-.7v0c0-.23,0-.45.06-.68,0,0,0-.07,0-.11Zm-9.49,1.42q.18.6.42,1.2A41.7,41.7,0,0,1,88.66,87V85.87A43.92,43.92,0,0,0,79.17,90.41ZM77,91.89A30.36,30.36,0,0,0,70.89,98h1.59a31.59,31.59,0,0,1,5-4.89A12.75,12.75,0,0,1,77,91.89ZM88.66,89l-.72.25c-1.45.49-.89,2.76.52,2.44l.05,0c0-.39.08-.78.1-1.18,0-.23.06-.46.07-.7v0c0-.23,0-.45.06-.68,0,0,0-.07,0-.11Zm0-3.12a43.92,43.92,0,0,0-9.49,4.54q.18.6.42,1.2A41.7,41.7,0,0,1,88.66,87ZM70.89,98h1.59a31.59,31.59,0,0,1,5-4.89A12.75,12.75,0,0,1,77,91.89,30.36,30.36,0,0,0,70.89,98ZM103,82.89h-.07A60.35,60.35,0,0,0,91.28,85l-.13,0-1.25.38-1,.34-.21.07a43.92,43.92,0,0,0-9.49,4.54c-.4.25-.79.52-1.18.79s-.64.45-.95.69A30.36,30.36,0,0,0,70.89,98l0,.05-.45.63c-.1.14-.21.29-.3.44a.94.94,0,0,0-.09.12h34.12V82.83S103.7,82.83,103,82.89Zm-11.8,5.32-.67.2-.58.19L88.78,89l0,0-.09,0-.72.25c-1.45.49-.89,2.76.52,2.44l.05,0,.1,0,1.22-.4c.4-.14.8-.26,1.19-.38l.06,0a52.29,52.29,0,0,1,11.8-2.28v2.32a57.26,57.26,0,0,0-5.86.77c-1.58.28-.91,2.68.66,2.4s3.46-.56,5.2-.69V98H87.45a6,6,0,0,1-.75,0h0a.17.17,0,0,1,0,0H72.48a31.59,31.59,0,0,1,5-4.89c.3-.25.61-.48.93-.71s.74-.53,1.13-.78A41.7,41.7,0,0,1,88.66,87l.18-.07,1.06-.37c.42-.14.83-.27,1.25-.39l.12,0a49.79,49.79,0,0,1,11.61-2v1.94A53.34,53.34,0,0,0,91.22,88.2ZM77,91.89A30.36,30.36,0,0,0,70.89,98h1.59a31.59,31.59,0,0,1,5-4.89A12.75,12.75,0,0,1,77,91.89Zm2.13-1.48q.18.6.42,1.2A41.7,41.7,0,0,1,88.66,87V85.87A43.92,43.92,0,0,0,79.17,90.41ZM88.66,89l-.72.25c-1.45.49-.89,2.76.52,2.44l.05,0c0-.39.08-.78.1-1.18,0-.23.06-.46.07-.7v0c0-.23,0-.45.06-.68,0,0,0-.07,0-.11ZM77,91.89A30.36,30.36,0,0,0,70.89,98h1.59a31.59,31.59,0,0,1,5-4.89A12.75,12.75,0,0,1,77,91.89Zm2.13-1.48q.18.6.42,1.2A41.7,41.7,0,0,1,88.66,87V85.87A43.92,43.92,0,0,0,79.17,90.41ZM88.66,89l-.72.25c-1.45.49-.89,2.76.52,2.44l.05,0c0-.39.08-.78.1-1.18,0-.23.06-.46.07-.7v0c0-.23,0-.45.06-.68,0,0,0-.07,0-.11ZM77,91.89A30.36,30.36,0,0,0,70.89,98h1.59a31.59,31.59,0,0,1,5-4.89A12.75,12.75,0,0,1,77,91.89Zm2.13-1.48q.18.6.42,1.2A41.7,41.7,0,0,1,88.66,87V85.87A43.92,43.92,0,0,0,79.17,90.41ZM88.66,89l-.72.25c-1.45.49-.89,2.76.52,2.44l.05,0c0-.39.08-.78.1-1.18,0-.23.06-.46.07-.7v0c0-.23,0-.45.06-.68,0,0,0-.07,0-.11ZM77,91.89A30.36,30.36,0,0,0,70.89,98h1.59a31.59,31.59,0,0,1,5-4.89A12.75,12.75,0,0,1,77,91.89Zm2.13-1.48q.18.6.42,1.2A41.7,41.7,0,0,1,88.66,87V85.87A43.92,43.92,0,0,0,79.17,90.41ZM88.66,89l-.72.25c-1.45.49-.89,2.76.52,2.44l.05,0c0-.39.08-.78.1-1.18,0-.23.06-.46.07-.7v0c0-.23,0-.45.06-.68,0,0,0-.07,0-.11ZM77,91.89A30.36,30.36,0,0,0,70.89,98h1.59a31.59,31.59,0,0,1,5-4.89A12.75,12.75,0,0,1,77,91.89Zm2.13-1.48q.18.6.42,1.2A41.7,41.7,0,0,1,88.66,87V85.87A43.92,43.92,0,0,0,79.17,90.41ZM88.66,89l-.72.25c-1.45.49-.89,2.76.52,2.44l.05,0c0-.39.08-.78.1-1.18,0-.23.06-.46.07-.7v0c0-.23,0-.45.06-.68,0,0,0-.07,0-.11ZM77,91.89A30.36,30.36,0,0,0,70.89,98h1.59a31.59,31.59,0,0,1,5-4.89A12.75,12.75,0,0,1,77,91.89Zm2.13-1.48q.18.6.42,1.2A41.7,41.7,0,0,1,88.66,87V85.87A43.92,43.92,0,0,0,79.17,90.41ZM88.66,89l-.72.25c-1.45.49-.89,2.76.52,2.44l.05,0c0-.39.08-.78.1-1.18,0-.23.06-.46.07-.7v0c0-.23,0-.45.06-.68,0,0,0-.07,0-.11ZM77,91.89A30.36,30.36,0,0,0,70.89,98h1.59a31.59,31.59,0,0,1,5-4.89A12.75,12.75,0,0,1,77,91.89Zm2.13-1.48q.18.6.42,1.2A41.7,41.7,0,0,1,88.66,87V85.87A43.92,43.92,0,0,0,79.17,90.41ZM88.66,89l-.72.25c-1.45.49-.89,2.76.52,2.44l.05,0c0-.39.08-.78.1-1.18,0-.23.06-.46.07-.7v0c0-.23,0-.45.06-.68,0,0,0-.07,0-.11ZM77,91.89A30.36,30.36,0,0,0,70.89,98h1.59a31.59,31.59,0,0,1,5-4.89A12.75,12.75,0,0,1,77,91.89Zm2.13-1.48q.18.6.42,1.2A41.7,41.7,0,0,1,88.66,87V85.87A43.92,43.92,0,0,0,79.17,90.41ZM88.66,89l-.72.25c-1.45.49-.89,2.76.52,2.44l.05,0c0-.39.08-.78.1-1.18,0-.23.06-.46.07-.7v0c0-.23,0-.45.06-.68,0,0,0-.07,0-.11ZM77,91.89A30.36,30.36,0,0,0,70.89,98h1.59a31.59,31.59,0,0,1,5-4.89A12.75,12.75,0,0,1,77,91.89Zm2.13-1.48q.18.6.42,1.2A41.7,41.7,0,0,1,88.66,87V85.87A43.92,43.92,0,0,0,79.17,90.41ZM88.66,89l-.72.25c-1.45.49-.89,2.76.52,2.44l.05,0c0-.39.08-.78.1-1.18,0-.23.06-.46.07-.7v0c0-.23,0-.45.06-.68,0,0,0-.07,0-.11Z" fill="#fff"/><path d="M79.17,90.41q.18.6.42,1.2A41.7,41.7,0,0,1,88.66,87V85.87A43.92,43.92,0,0,0,79.17,90.41ZM77,91.89A30.36,30.36,0,0,0,70.89,98h1.59a31.59,31.59,0,0,1,5-4.89A12.75,12.75,0,0,1,77,91.89Zm2.13-1.48q.18.6.42,1.2A41.7,41.7,0,0,1,88.66,87V85.87A43.92,43.92,0,0,0,79.17,90.41ZM77,91.89A30.36,30.36,0,0,0,70.89,98h1.59a31.59,31.59,0,0,1,5-4.89A12.75,12.75,0,0,1,77,91.89Zm2.13-1.48q.18.6.42,1.2A41.7,41.7,0,0,1,88.66,87V85.87A43.92,43.92,0,0,0,79.17,90.41ZM77,91.89A30.36,30.36,0,0,0,70.89,98h1.59a31.59,31.59,0,0,1,5-4.89A12.75,12.75,0,0,1,77,91.89Zm2.13-1.48q.18.6.42,1.2A41.7,41.7,0,0,1,88.66,87V85.87A43.92,43.92,0,0,0,79.17,90.41ZM77,91.89A30.36,30.36,0,0,0,70.89,98h1.59a31.59,31.59,0,0,1,5-4.89A12.75,12.75,0,0,1,77,91.89Zm2.13-1.48q.18.6.42,1.2A41.7,41.7,0,0,1,88.66,87V85.87A43.92,43.92,0,0,0,79.17,90.41ZM77,91.89A30.36,30.36,0,0,0,70.89,98h1.59a31.59,31.59,0,0,1,5-4.89A12.75,12.75,0,0,1,77,91.89Zm2.13-1.48q.18.6.42,1.2A41.7,41.7,0,0,1,88.66,87V85.87A43.92,43.92,0,0,0,79.17,90.41ZM77,91.89A30.36,30.36,0,0,0,70.89,98h1.59a31.59,31.59,0,0,1,5-4.89A12.75,12.75,0,0,1,77,91.89Zm2.13-1.48q.18.6.42,1.2A41.7,41.7,0,0,1,88.66,87V85.87A43.92,43.92,0,0,0,79.17,90.41ZM77,91.89A30.36,30.36,0,0,0,70.89,98h1.59a31.59,31.59,0,0,1,5-4.89A12.75,12.75,0,0,1,77,91.89Zm2.13-1.48q.18.6.42,1.2A41.7,41.7,0,0,1,88.66,87V85.87A43.92,43.92,0,0,0,79.17,90.41ZM77,91.89A30.36,30.36,0,0,0,70.89,98h1.59a31.59,31.59,0,0,1,5-4.89A12.75,12.75,0,0,1,77,91.89Zm2.13-1.48q.18.6.42,1.2A41.7,41.7,0,0,1,88.66,87V85.87A43.92,43.92,0,0,0,79.17,90.41ZM70.89,98h1.59a31.59,31.59,0,0,1,5-4.89A12.75,12.75,0,0,1,77,91.89,30.36,30.36,0,0,0,70.89,98Zm33.23-16.41a52.71,52.71,0,0,0-12.85,2l-.12,0c-.42.12-.84.24-1.25.38s-.69.22-1,.34l-.21.07a45.73,45.73,0,0,0-9.81,4.72l-1.2.81q-.5.35-1,.72A34.44,34.44,0,0,0,70.09,97c-.25.32-.49.63-.72,1a.12.12,0,0,0-.05.05c-.14.19-.26.37-.39.56a1.06,1.06,0,0,0-.19.63.86.86,0,0,0,0,.16A1.33,1.33,0,0,0,70,100.48h34.12a1.16,1.16,0,0,0,.85-.34l0,0,0,0a1.16,1.16,0,0,0,.33-.85V82.83A1.26,1.26,0,0,0,104.12,81.58ZM102.88,98H72.48a31.59,31.59,0,0,1,5-4.89c.3-.25.61-.48.93-.71s.74-.53,1.13-.78A41.7,41.7,0,0,1,88.66,87l.18-.07,1.06-.37c.42-.14.83-.27,1.25-.39l.12,0a49.79,49.79,0,0,1,11.61-2ZM77,91.89A30.36,30.36,0,0,0,70.89,98h1.59a31.59,31.59,0,0,1,5-4.89A12.75,12.75,0,0,1,77,91.89Zm2.13-1.48q.18.6.42,1.2A41.7,41.7,0,0,1,88.66,87V85.87A43.92,43.92,0,0,0,79.17,90.41ZM77,91.89A30.36,30.36,0,0,0,70.89,98h1.59a31.59,31.59,0,0,1,5-4.89A12.75,12.75,0,0,1,77,91.89Zm2.13-1.48q.18.6.42,1.2A41.7,41.7,0,0,1,88.66,87V85.87A43.92,43.92,0,0,0,79.17,90.41ZM77,91.89A30.36,30.36,0,0,0,70.89,98h1.59a31.59,31.59,0,0,1,5-4.89A12.75,12.75,0,0,1,77,91.89Zm2.13-1.48q.18.6.42,1.2A41.7,41.7,0,0,1,88.66,87V85.87A43.92,43.92,0,0,0,79.17,90.41ZM77,91.89A30.36,30.36,0,0,0,70.89,98h1.59a31.59,31.59,0,0,1,5-4.89A12.75,12.75,0,0,1,77,91.89Zm2.13-1.48q.18.6.42,1.2A41.7,41.7,0,0,1,88.66,87V85.87A43.92,43.92,0,0,0,79.17,90.41ZM77,91.89A30.36,30.36,0,0,0,70.89,98h1.59a31.59,31.59,0,0,1,5-4.89A12.75,12.75,0,0,1,77,91.89Zm2.13-1.48q.18.6.42,1.2A41.7,41.7,0,0,1,88.66,87V85.87A43.92,43.92,0,0,0,79.17,90.41ZM77,91.89A30.36,30.36,0,0,0,70.89,98h1.59a31.59,31.59,0,0,1,5-4.89A12.75,12.75,0,0,1,77,91.89Zm2.13-1.48q.18.6.42,1.2A41.7,41.7,0,0,1,88.66,87V85.87A43.92,43.92,0,0,0,79.17,90.41ZM77,91.89A30.36,30.36,0,0,0,70.89,98h1.59a31.59,31.59,0,0,1,5-4.89A12.75,12.75,0,0,1,77,91.89Zm2.13-1.48q.18.6.42,1.2A41.7,41.7,0,0,1,88.66,87V85.87A43.92,43.92,0,0,0,79.17,90.41ZM77,91.89A30.36,30.36,0,0,0,70.89,98h1.59a31.59,31.59,0,0,1,5-4.89A12.75,12.75,0,0,1,77,91.89Zm2.13-1.48q.18.6.42,1.2A41.7,41.7,0,0,1,88.66,87V85.87A43.92,43.92,0,0,0,79.17,90.41ZM77,91.89A30.36,30.36,0,0,0,70.89,98h1.59a31.59,31.59,0,0,1,5-4.89A12.75,12.75,0,0,1,77,91.89Zm2.13-1.48q.18.6.42,1.2A41.7,41.7,0,0,1,88.66,87V85.87A43.92,43.92,0,0,0,79.17,90.41Z" fill="#231f20"/><path d="M104.12,88.5l-1.24,0a52.29,52.29,0,0,0-11.8,2.28l-.06,0c-.39.12-.79.24-1.19.38l-1.22.4-.1,0-.05,0c-1.41.32-2-2-.52-2.44l.72-.25.09,0,0,0,1.12-.35.58-.19.67-.2h.07a53.34,53.34,0,0,1,11.66-2.14l1.24,0A1.25,1.25,0,0,1,104.12,88.5Z" fill="#231f20"/><path d="M104.12,93.29c-.41,0-.83,0-1.24.06-1.74.13-3.48.39-5.2.69s-2.24-2.12-.66-2.4a57.26,57.26,0,0,1,5.86-.77c.41,0,.83-.06,1.24-.07A1.25,1.25,0,0,1,104.12,93.29Z" fill="#231f20"/><path d="M49.92,111.33a3.72,3.72,0,0,0-2.84-6.13H43.64v13.37h4a4,4,0,0,0,2.24-7.24Zm-4.2-3.91c0-.1,0-.15.13-.15H47a1.74,1.74,0,1,1,.05,3.47H45.83c-.07,0-.11,0-.11-.12Zm1.93,9.09h-1.8c-.09,0-.13,0-.13-.13v-3.63c0-.06,0-.1.11-.11h1.82a1.94,1.94,0,0,1,0,3.87Z" fill="#231f20"/><path d="M61.34,105.06a6.83,6.83,0,1,0,6.83,6.83A6.81,6.81,0,0,0,61.34,105.06Zm0,11.59a4.76,4.76,0,1,1,4.75-4.76A4.77,4.77,0,0,1,61.34,116.65Z" fill="#231f20"/><path d="M77.94,105.06a6.83,6.83,0,1,0,6.83,6.83A6.81,6.81,0,0,0,77.94,105.06Zm0,11.59a4.76,4.76,0,1,1,4.74-4.76A4.77,4.77,0,0,1,77.94,116.65Z" fill="#231f20"/><path d="M92.5,112.51c-.12-.2-.28-.39-.39-.6,0,0,0-.08.13-.24.83-1.37,2-3.21,4.06-6.47H93.93l-3.53,5.6c-.37.53-.11.11-.21.25V105.2H88.1v13.37h2.09v-5.82l.07.06c.76,1.18,1.84,2.89,3.64,5.76h2.45Z" fill="#231f20"/><rect width="140" height="140" fill="none"/></svg>