<svg id="Layer_1" data-name="Layer 1" xmlns="http://www.w3.org/2000/svg" viewBox="0 0 140 210"><path d="M95.12,56.76l-.41,1.45L91.69,69l-.39,1.37-.26,1h0l-.13.49a10.87,10.87,0,0,0-2-.83h0a12.26,12.26,0,0,0-2.72-.54h-.08a10.21,10.21,0,0,0-1.24,0,12.63,12.63,0,0,0-2.13.24h0l-3-.83-2.32-.65L63,65.07l-.09,0-1.31-.37.26-.92.47-1.7,0-.05,3.35-11.94.4-1.44Z" fill="#231f20"/><path d="M52.18,46.27,108.26,62a1.5,1.5,0,0,0,.8-2.89L53,43.38a1.5,1.5,0,0,0-.79,2.89Z" fill="#231f20"/><path d="M106.43,60.25l-.87,13.63c-.09,1.45,2.15,1.44,2.25,0q.42-6.81.86-13.63c.1-1.45-2.15-1.44-2.24,0Z" fill="#231f20"/><path d="M109.23,77a2.7,2.7,0,0,0-1.83-2.26l-.14,0a2.61,2.61,0,0,0-1.44,0,2.7,2.7,0,0,0-1.93,1.9,2.73,2.73,0,0,0,1.9,3.37,2.7,2.7,0,0,0,2.87-.94,2.59,2.59,0,0,0,.5-1A2.4,2.4,0,0,0,109.23,77Zm-1.15.77a1.62,1.62,0,0,1-3.11-.89C105.43,74.8,108.53,75.69,108.08,77.72Z" fill="#fff"/><path d="M107.82,73.66l-.26-.1a3.28,3.28,0,0,0-2,0,4.26,4.26,0,0,0-2.77,2.73c-.71,2.06.78,4.11,2.68,4.76a3.86,3.86,0,0,0,4.61-2.32.3.3,0,0,0,0-.08,2.49,2.49,0,0,0,.11-.29,2.38,2.38,0,0,0,.06-.37A3.91,3.91,0,0,0,107.82,73.66Zm.26,4.06a1.62,1.62,0,0,1-3.11-.89C105.43,74.8,108.53,75.69,108.08,77.72Z" fill="#231f20"/><path d="M94,124.4v1.09c0,.49,0,1,0,1.45,0,.21,0,.42,0,.63l-1.47.49-.12,0-.06,0c-1.7.39-2.37-2.34-.62-2.94l.86-.29a.45.45,0,0,1,.11,0l0,0Z" fill="#20856f"/><path d="M47.79,128.06l-1.32-.44-.09,0-1.63-.52c0-.52,0-1,0-1.58v-1.56l1.37.42.19.05c.78.25,1.56.5,2.33.77C50.4,125.79,49.62,128.69,47.79,128.06Z" fill="#20856f"/><path d="M93.67,85.73a.68.68,0,0,0,.17-.21H91.93a1,1,0,0,0,.53.4,1.23,1.23,0,0,0,1.08-.08h.14a.09.09,0,0,0,0-.09Zm-.76,8.17c-.14.11-.28.22-.43.32a13.69,13.69,0,0,1-7.59,2.51,12.21,12.21,0,0,1-8.65-3.29,11.9,11.9,0,0,1-1.06-1.07,12.46,12.46,0,0,1-1-1.22,13.24,13.24,0,0,1-1.38-2.5A11.74,11.74,0,0,1,72.26,87s0-.1-.05-.15q-.18-.66-.3-1.35H68.52a2.74,2.74,0,0,1,0,.28A12,12,0,0,1,68.18,87l-.09.32c-.12.39-.26.78-.41,1.15a13.16,13.16,0,0,1-1.52,2.72,12.28,12.28,0,0,1-1,1.19,13.38,13.38,0,0,1-1.08,1,13.65,13.65,0,0,1-8.58,3.28A12.21,12.21,0,0,1,47,93.57c-.29-.25-.56-.52-.82-.79s-.59-.65-.86-1c-.13-.17-.27-.35-.39-.53l-.25-.36v30.63c.43.12.85.26,1.28.4l.23.08a52.12,52.12,0,0,1,11.24,5.24c.47.3.93.6,1.38.91s.77.53,1.15.81a38,38,0,0,1,7.23,6.75H46.92c.11.24.23.49.35.73s.25.52.39.77H91c.24-.44.46-.88.68-1.34l.07-.16H91a8.72,8.72,0,0,1-.9-.05h0a.14.14,0,0,1,0,.06H73a38.1,38.1,0,0,1,6.08-5.89l1.12-.85c.45-.32.9-.64,1.36-.94a50.9,50.9,0,0,1,10.93-5.5l.22-.09L94,122V93A13.44,13.44,0,0,1,92.91,93.9ZM55.53,99.73a15,15,0,0,0,10.41-3.85l3,3.93a1.53,1.53,0,0,0,2.59,0l3-4a17.28,17.28,0,0,0,10.42,3.92,14.72,14.72,0,0,0,6.17-1.16A24.08,24.08,0,0,1,70,111.51,23.46,23.46,0,0,1,48.73,98.1,17.2,17.2,0,0,0,55.53,99.73Zm14.59-9.46a15.53,15.53,0,0,0,2.21,3.44L70.2,96.57,68,93.68A17.76,17.76,0,0,0,70.12,90.27Zm-8.24-4.75a1.18,1.18,0,0,0,1.91,0Zm-15.36,0a1.18,1.18,0,0,0,1.91,0Zm30,0a1.18,1.18,0,0,0,1.91,0Z" fill="#20856f"/><path d="M95.56,123.92c0,.49,0,1-.08,1.45v0l0,.42h0l-.12,1.27-1.44.46-1.47.49-.12,0-.06,0c.07-.47.14-1,.18-1.44q.06-.42.09-.84v0c0-.27,0-.54.07-.82,0,0,0-.08,0-.13l0,0L94,124.4l.69-.22.81-.24Z" fill="#231f20"/><path d="M46.38,127.59l-1.63-.52-1.44-.42c-.11-1.05-.18-2.1-.21-3.16l1.6.44,1.37.42C46.14,125.44,46.23,126.52,46.38,127.59Z" fill="#231f20"/><path d="M93.34,135.71c-.16.41-.33.82-.52,1.23,0,.09-.08.18-.13.27-.12.25-.24.51-.37.76a.78.78,0,0,1-.11.18,1.27,1.27,0,0,1-.84.56H47.66a1.49,1.49,0,0,1-1.29-.74c-.13-.25-.25-.5-.37-.76s-.16-.33-.23-.5c-.15-.33-.29-.66-.42-1H90.09a.14.14,0,0,0,0-.06h0a8.72,8.72,0,0,0,.9.05Z" fill="#231f20"/><path d="M46.2,92.78v16.5c0,3-.19,6.26-.23,9.51,0,.59,0,1.17,0,1.75s0,.92,0,1.38c-.43-.14-.85-.28-1.28-.4s-1.1-.34-1.66-.49c0-.44,0-.89,0-1.34s0-1.16,0-1.74c0-2.91.16-5.8.16-8.6V88a.42.42,0,0,1,0,.1,14.44,14.44,0,0,0,1.45,2.82l.25.36c.12.18.26.36.39.53C45.61,92.13,45.9,92.46,46.2,92.78Z" fill="#231f20"/><path d="M48.74,84a6.37,6.37,0,0,0-.11.89,1.13,1.13,0,0,1-.2.6,1.18,1.18,0,0,1-1.91,0,.76.76,0,0,1-.11-.26h0a.89.89,0,0,1,0-.33c0-.3,0-.59.09-.89Z" fill="#231f20"/><path d="M63.93,84.92a1,1,0,0,1-.14.6,1.18,1.18,0,0,1-1.91,0,1.08,1.08,0,0,1-.17-.41.58.58,0,0,1,0-.19,8.35,8.35,0,0,0-.1-.89h2.26a7,7,0,0,1,.08.8A.28.28,0,0,1,63.93,84.92Z" fill="#231f20"/><path d="M72.26,87H68.18a12,12,0,0,0,.29-1.22,2.74,2.74,0,0,0,0-.28h-.14l.16-.17c.06-.36.1-.71.14-1.08a1.93,1.93,0,0,1,0-.24h3c0,.28,0,.56.08.84a.06.06,0,0,0,0,0c0,.15,0,.31.07.46h0a.51.51,0,0,0,0,.13q.12.69.3,1.35S72.24,87,72.26,87Z" fill="#231f20"/><path d="M78.79,84a6.37,6.37,0,0,0-.11.89h0a1.22,1.22,0,0,1-.2.59,1.18,1.18,0,0,1-1.91,0,1,1,0,0,1-.14-.49v-.11c0-.3,0-.59.09-.89Z" fill="#231f20"/><path d="M93.67,85.73h0a.09.09,0,0,1,0,.09h-.14a1.23,1.23,0,0,1-1.08.08,1,1,0,0,1-.53-.4,1.13,1.13,0,0,1-.2-.6c0-.13,0-.25,0-.37a3,3,0,0,0-.07-.52h2.27a.88.88,0,0,1,0,.17.25.25,0,0,1,0,.12q0,.3.06.6a1,1,0,0,1-.14.6A.68.68,0,0,1,93.67,85.73Z" fill="#231f20"/><path d="M95.64,120.11c0,.46,0,.91,0,1.37a.44.44,0,0,0-.15,0c-.5.14-1,.3-1.5.47l-1.28.44q0-.7,0-1.41c0-.58,0-1.16,0-1.75,0-3.41-.2-6.8-.24-10,0-.38,0-.75,0-1.12v-14c.15-.1.29-.21.43-.32A13.44,13.44,0,0,0,94,93a10.12,10.12,0,0,0,1-1c.19-.23.38-.47.55-.71v18.68c0,2.76.11,5.59.15,8.44C95.63,119,95.64,119.53,95.64,120.11Z" fill="#231f20"/><path d="M93.84,85.52a1,1,0,0,0,.14-.6q0-.3-.06-.6a.25.25,0,0,0,0-.12.88.88,0,0,0,0-.17,7.6,7.6,0,0,0-.24-1.19,8.73,8.73,0,0,0-1.16-2.64.47.47,0,0,0-.06-.09h0a9,9,0,0,0-7.22-3.95c-4.46-.24-7.8,3.36-8.6,7.4h0c0,.16-.06.32-.08.48s-.07.59-.09.89V85a1,1,0,0,0,.14.49,1.18,1.18,0,0,0,1.91,0,1.22,1.22,0,0,0,.2-.59h0a6.37,6.37,0,0,1,.11-.89,3.82,3.82,0,0,1,.11-.57C80.44,77.16,89.49,77,91.38,83a5.43,5.43,0,0,1,.24,1,3,3,0,0,1,.07.52c0,.12,0,.24,0,.37a1.13,1.13,0,0,0,.2.6,1,1,0,0,0,.53.4,1.23,1.23,0,0,0,1.08-.08h.14a.09.09,0,0,0,0-.09h0A.68.68,0,0,0,93.84,85.52Zm-29.92-.69a7,7,0,0,0-.08-.8,8.92,8.92,0,0,0-8.68-7.88c-3.85-.21-6.87,2.45-8.14,5.78,0,0,0,0,0,0A9.93,9.93,0,0,0,46.47,84c0,.3-.07.59-.09.89a.89.89,0,0,0,0,.33h0a.76.76,0,0,0,.11.26,1.18,1.18,0,0,0,1.91,0,1.13,1.13,0,0,0,.2-.6,6.37,6.37,0,0,1,.11-.89c1.17-7.21,11.66-7.21,12.84,0a8.35,8.35,0,0,1,.1.89.58.58,0,0,0,0,.19,1.08,1.08,0,0,0,.17.41,1.18,1.18,0,0,0,1.91,0,1,1,0,0,0,.14-.6A.28.28,0,0,0,63.92,84.83ZM94,93a13.44,13.44,0,0,1-1.07.93c-.14.11-.28.22-.43.32a13.69,13.69,0,0,1-7.59,2.51,12.21,12.21,0,0,1-8.65-3.29,11.9,11.9,0,0,1-1.06-1.07,12.46,12.46,0,0,1-1-1.22,13.24,13.24,0,0,1-1.38-2.5A11.74,11.74,0,0,1,72.26,87s0-.1-.05-.15q-.18-.66-.3-1.35a.51.51,0,0,1,0-.13h0c0-.15,0-.31-.07-.46a.06.06,0,0,1,0,0c0-.28-.06-.56-.08-.84v-.11c0-.11,0-.21,0-.32v-.15a2.89,2.89,0,0,1,0-.48c.11-6.3,5.09-11.25,11-12.36h0a12.63,12.63,0,0,1,2.13-.24,10.21,10.21,0,0,1,1.24,0h.08a12.26,12.26,0,0,1,2.72.54c-.14-.17-.29-.33-.45-.49s-.37-.39-.56-.58S87.34,69.3,87,69a22.58,22.58,0,0,0-2-1.65,19.65,19.65,0,0,0-2.1-1.4c-.25-.16-.5-.3-.76-.44s-.51-.28-.78-.41l-.55-.27c-.33-.16-.66-.31-1-.45s-.59-.25-.9-.36-.44-.17-.67-.24l-.58-.19c-.2-.07-.39-.13-.59-.18a5.69,5.69,0,0,0-.59-.16,16.52,16.52,0,0,0-1.72-.4q-.51-.1-1-.18l-.42-.06c-.73-.1-1.47-.16-2.22-.19-.37,0-.75,0-1.13,0s-.78,0-1.16,0l-.62,0a23.14,23.14,0,0,0-2.91.37l-.65.13c-.33.07-.66.14-1,.23l-.09,0c-.27.07-.54.14-.8.23a.44.44,0,0,0-.15.05c-.26.07-.51.15-.76.24l-.9.32c-.62.23-1.23.5-1.83.78l-.59.29-.3.16-.42.22-.42.24c-.25.13-.48.27-.72.42-.59.37-1.16.75-1.71,1.17h0a27.62,27.62,0,0,0-2.13,1.76c-.2.18-.39.36-.57.55l-.38.38a4.27,4.27,0,0,0-.36.38c-.12.12-.23.25-.35.38s-.35.39-.51.59a14,14,0,0,1,3-.85h0a14,14,0,0,1,1.84-.18c7.15-.19,12.68,5.82,13.15,12.62,0,.19,0,.37,0,.56s0,.32,0,.48a1.93,1.93,0,0,0,0,.24c0,.37-.08.72-.14,1.08l-.16.17h.14a2.74,2.74,0,0,1,0,.28A12,12,0,0,1,68.18,87l-.09.32c-.12.39-.26.78-.41,1.15a13.16,13.16,0,0,1-1.52,2.72,12.28,12.28,0,0,1-1,1.19,13.38,13.38,0,0,1-1.08,1,13.65,13.65,0,0,1-8.58,3.28A12.21,12.21,0,0,1,47,93.57c-.29-.25-.56-.52-.82-.79s-.59-.65-.86-1c-.13-.17-.27-.35-.39-.53a6,6,0,0,0,.09.61,22.48,22.48,0,0,0,.55,2.49c.17.67.38,1.33.61,2,0,.13.1.27.16.41A25.3,25.3,0,0,0,92.48,99.3a20.63,20.63,0,0,0,.91-2c.22-.52.42-1,.59-1.58a9.37,9.37,0,0,0,.28-.9h0A21.51,21.51,0,0,0,94.93,92,10.12,10.12,0,0,1,94,93Zm-23.86-2.7a15.53,15.53,0,0,0,2.21,3.44L70.2,96.57,68,93.68A17.76,17.76,0,0,0,70.12,90.27ZM70,111.51A23.46,23.46,0,0,1,48.73,98.1a17.2,17.2,0,0,0,6.8,1.63,15,15,0,0,0,10.41-3.85l3,3.93a1.53,1.53,0,0,0,2.59,0l3-4a17.28,17.28,0,0,0,10.42,3.92,14.72,14.72,0,0,0,6.17-1.16A24.08,24.08,0,0,1,70,111.51Z" fill="#fff"/><path d="M93.92,84.32a.25.25,0,0,0,0-.12.88.88,0,0,0,0-.17,7.6,7.6,0,0,0-.24-1.19,8.73,8.73,0,0,0-1.16-2.64.47.47,0,0,0-.06-.09,23.55,23.55,0,0,1,.79,2.76c.09.39.17.77.23,1.16,0,.11,0,.23,0,.34a11,11,0,0,1,.15,1.15.5.5,0,0,1,0,.21.68.68,0,0,0,.17-.21,1,1,0,0,0,.14-.6Q94,84.62,93.92,84.32ZM91.15,71.45,91,71.3h0c-.19-.25-.39-.5-.6-.74s-.51-.6-.78-.89a0,0,0,0,0,0,0L89,69a17.65,17.65,0,0,0-1.39-1.34A26.84,26.84,0,0,0,74.5,61.31a25.18,25.18,0,0,0-7-.26l-.83.08c-.42,0-.85.11-1.26.18-.24,0-.47.08-.7.13-.81.17-1.61.38-2.39.62a27.13,27.13,0,0,0-9.86,5.54,26.27,26.27,0,0,0-2.32,2.28,0,0,0,0,0,0,0l-.62.7c-.2.24-.39.49-.58.73s-.39.49-.56.74-.5.69-.74,1a.13.13,0,0,1,.06,0,13.83,13.83,0,0,1,3-1.65,14,14,0,0,1,3-.85l.29-.26.56-.49c.17-.16.35-.31.53-.45l.62-.48h0l.85-.61.16-.11c.3-.21.61-.4.92-.59A24.38,24.38,0,0,1,70,63.92,22.17,22.17,0,0,1,77.32,65l.4.14c.27.09.54.2.8.3a21.7,21.7,0,0,1,4,2,22,22,0,0,1,1.94,1.38,23.23,23.23,0,0,1,1.76,1.53,12.26,12.26,0,0,1,2.72.54h0a10.87,10.87,0,0,1,2,.83c.3.16.6.33.88.51C91.57,72,91.37,71.73,91.15,71.45Zm4.33,19.8c-.17.24-.36.48-.55.71a10.12,10.12,0,0,1-1,1,13.44,13.44,0,0,1-1.07.93c-.13.46-.27.92-.43,1.36s-.26.73-.41,1.09a20.15,20.15,0,0,1-1,2.22A24.08,24.08,0,0,1,70,111.51,23.46,23.46,0,0,1,48.73,98.1c-.33-.67-.63-1.35-.9-2s-.58-1.64-.81-2.48c-.29-.25-.56-.52-.82-.79s-.59-.65-.86-1c-.13-.17-.27-.35-.39-.53l-.25-.36a14.44,14.44,0,0,1-1.45-2.82.42.42,0,0,0,0-.1,1,1,0,0,1-.05-.16c0,.49,0,1,.05,1.47.07.92.18,1.84.34,2.75a26.57,26.57,0,0,0,.74,3c.12.42.26.84.41,1.26a27.68,27.68,0,0,0,1.5,3.45A28,28,0,0,0,53.85,109h0l.06,0,1,.74,0,0c.63.44,1.28.85,2,1.24a26.4,26.4,0,0,0,24.69.63h0a27,27,0,0,0,6.53-4.4h0a26.83,26.83,0,0,0,2.83-3c.53-.66,1-1.34,1.48-2a25.8,25.8,0,0,0,3-6.37c0-.1.07-.2.1-.3.27-.91.5-1.85.68-2.79h0a28.11,28.11,0,0,0,.47-3.67A12.65,12.65,0,0,1,95.48,91.25Z" fill="#231f20"/><path d="M63.93,84.92a1,1,0,0,1-.14.6,1.18,1.18,0,0,1-1.91,0,1.08,1.08,0,0,1-.17-.41.58.58,0,0,1,0-.19,8.35,8.35,0,0,0-.1-.89c-1.18-7.21-11.67-7.21-12.84,0a6.37,6.37,0,0,0-.11.89,1.13,1.13,0,0,1-.2.6,1.18,1.18,0,0,1-1.91,0,.76.76,0,0,1-.11-.26h0a.89.89,0,0,1,0-.33c0-.3,0-.59.09-.89A9.93,9.93,0,0,1,47,82s0,0,0,0c1.27-3.33,4.29-6,8.14-5.78A8.92,8.92,0,0,1,63.84,84a7,7,0,0,1,.08.8A.28.28,0,0,1,63.93,84.92Z" fill="#20856f"/><path d="M88.93,71a12.26,12.26,0,0,0-2.72-.54h-.08a10.21,10.21,0,0,0-1.24,0,12.63,12.63,0,0,0-2.13.24h0c-6,1.11-10.93,6.06-11,12.36a2.89,2.89,0,0,0,0,.48v.15c0,.11,0,.21,0,.32V84c0,.28,0,.56.08.84a.06.06,0,0,0,0,0c0,.15,0,.31.07.46h0l-.34,0c-.27,0-.55,0-.82.09l-.27,0h-.11l-.29,0-1,.13a1.66,1.66,0,0,0-.22,0l-.34,0a2.74,2.74,0,0,0,0-.28h-.14l.16-.17c.06-.36.1-.71.14-1.08a1.93,1.93,0,0,1,0-.24c0-.16,0-.32,0-.48s0-.37,0-.56c-.47-6.8-6-12.81-13.15-12.62a14,14,0,0,0-1.84.18h0a14,14,0,0,0-3,.85c.16-.2.33-.4.51-.59s.23-.26.35-.38a4.27,4.27,0,0,1,.36-.38l.38-.38c.18-.19.37-.37.57-.55A27.62,27.62,0,0,1,55,67.36h0c.55-.42,1.12-.8,1.71-1.17.24-.15.47-.29.72-.42l.42-.24.42-.22.3-.16.59-.29c.6-.28,1.21-.55,1.83-.78l.9-.32c.25-.09.5-.17.76-.24a.44.44,0,0,1,.15-.05c.26-.09.53-.16.8-.23l.09,0c.32-.09.65-.16,1-.23l.65-.13a23.14,23.14,0,0,1,2.91-.37l.62,0c.38,0,.77,0,1.16,0s.76,0,1.13,0c.75,0,1.49.09,2.22.19l.42.06q.51.07,1,.18a16.52,16.52,0,0,1,1.72.4,5.69,5.69,0,0,1,.59.16c.2.05.39.11.59.18l.58.19c.23.07.45.15.67.24s.61.23.9.36.67.29,1,.45l.55.27c.27.13.53.27.78.41s.51.28.76.44a19.65,19.65,0,0,1,2.1,1.4A22.58,22.58,0,0,1,87,69c.3.27.6.56.88.85s.38.38.56.58S88.79,70.78,88.93,71Z" fill="#20856f"/><path d="M93.92,84.32l-.12,0-.24,0H93.5l-1.81.18a3,3,0,0,0-.07-.52,5.43,5.43,0,0,0-.24-1c-1.89-6-10.94-5.85-12.48.45a3.82,3.82,0,0,0-.11.57,6.37,6.37,0,0,0-.11.89h0c-.75,0-1.5.06-2.25.1v-.11c0-.3,0-.59.09-.89s0-.32.08-.48h0c.8-4,4.14-7.64,8.6-7.4a9,9,0,0,1,7.22,3.95h0a.47.47,0,0,1,.06.09,8.73,8.73,0,0,1,1.16,2.64A7.6,7.6,0,0,1,93.89,84a.88.88,0,0,1,0,.17A.25.25,0,0,1,93.92,84.32Z" fill="#20856f"/><path d="M78.9,83.46a3.82,3.82,0,0,0-.11.57,6.37,6.37,0,0,0-.11.89h0a1.22,1.22,0,0,1-.2.59,1.18,1.18,0,0,1-1.91,0,1,1,0,0,1-.14-.49v-.11c0-.3,0-.59.09-.89s0-.32.08-.48h0C77.37,83.51,78.13,83.48,78.9,83.46Z" fill="#231f20"/><path d="M63.93,84.92a1,1,0,0,1-.14.6,1.18,1.18,0,0,1-1.91,0,1.08,1.08,0,0,1-.17-.41l2.21-.28A.28.28,0,0,1,63.93,84.92Z" fill="#231f20"/><path d="M72.21,86.87,71.3,87h0l-.5,0h-.12l-.17,0-.69.09-.7.08-.25,0h0l-.73.08.09-.32a12,12,0,0,0,.29-1.22,2.74,2.74,0,0,0,0-.28h-.14l.16-.17c.06-.36.1-.71.14-1.08h0l1-.11.54-.07h0l.24,0,.19,0,1-.11s0,0,0,0V84c0,.28,0,.56.08.84a.06.06,0,0,0,0,0c0,.15,0,.31.07.46h0a.51.51,0,0,0,0,.13Q72,86.21,72.21,86.87Z" fill="#231f20"/><path d="M45.34,91.78l-.1,0a.53.53,0,0,1-.2,0,.79.79,0,0,1-.34,0,1.62,1.62,0,0,1-1.35-1.51c-.07-.77-.1-1.53-.1-2.3a14.44,14.44,0,0,0,1.45,2.82l.25.36C45.07,91.43,45.21,91.61,45.34,91.78Z" fill="#231f20"/><path d="M47,82c-.16.68-.31,1.36-.42,2.06-.08.4-.14.81-.18,1.22a.89.89,0,0,1,0-.33c0-.3,0-.59.09-.89A9.93,9.93,0,0,1,47,82Z" fill="#231f20"/><path d="M91.78,72.3c-.28-.18-.58-.35-.88-.51a10.87,10.87,0,0,0-2-.83h0a12.26,12.26,0,0,0-2.72-.54h-.08a23.23,23.23,0,0,0-1.76-1.53,20.21,20.21,0,0,0-1.92-1.37h0a22.45,22.45,0,0,0-3.92-2c-.26-.1-.53-.21-.8-.3l-.4-.14a21.94,21.94,0,0,0-11-.83,24.8,24.8,0,0,0-3.37.85,23.73,23.73,0,0,0-5.37,2.5q-1,.61-1.92,1.32l-.59.48c-.18.14-.36.29-.53.45l-.56.49-.27.26h0a14,14,0,0,0-3,.85,13.83,13.83,0,0,0-3,1.65c.22-.33.45-.67.68-1s.36-.5.56-.74.38-.49.58-.73.37-.47.58-.69a26.54,26.54,0,0,1,2.23-2.27,25.89,25.89,0,0,1,10-5.62,22.75,22.75,0,0,1,2.37-.57c.23,0,.46-.1.7-.13.41-.07.84-.13,1.26-.18l.83-.08a27,27,0,0,1,20,6.6c.5.43,1,.88,1.45,1.35l.63.66a0,0,0,0,1,0,0c.27.29.53.59.78.89s.41.49.6.74h0l.11.15C91.37,71.73,91.57,72,91.78,72.3Z" fill="#231f20"/><path d="M93.67,85.73h0a.09.09,0,0,1,0,.09h-.14l-1.08.08a1,1,0,0,1-.53-.4,1.13,1.13,0,0,1-.2-.6c0-.13,0-.25,0-.37a3,3,0,0,0-.07-.52,5.43,5.43,0,0,0-.24-1c.61,0,1.22-.08,1.84-.14h0a22.06,22.06,0,0,0-.77-2.67,8.73,8.73,0,0,1,1.16,2.64A7.6,7.6,0,0,1,93.89,84a.88.88,0,0,1,0,.17.25.25,0,0,1,0,.12q0,.3.06.6a1,1,0,0,1-.14.6A.68.68,0,0,1,93.67,85.73Z" fill="#231f20"/><path d="M74.23,91.15a13.24,13.24,0,0,1-1.38-2.5A11.74,11.74,0,0,1,72.26,87s0-.1-.05-.15q-.18-.66-.3-1.35a.51.51,0,0,1,0-.13h0l-.29-.3-.94-1h0l-.44-.48-.44.48-.11.12-.91,1-.21.22-.16.17h.14a2.74,2.74,0,0,1,0,.28A12,12,0,0,1,68.18,87l-.09.32c-.12.39-.26.78-.41,1.15a13.16,13.16,0,0,1-1.52,2.72,12.28,12.28,0,0,1-1,1.19l1,1.28L67,94.83l3.18,4.22,3.15-4.23.88-1.17h0l.94-1.27A12.46,12.46,0,0,1,74.23,91.15Zm-4,5.42L68,93.68a17.76,17.76,0,0,0,2.1-3.41,15.53,15.53,0,0,0,2.21,3.44Z" fill="#fff"/><path d="M72.26,87h-.91l1.5,1.63A11.74,11.74,0,0,1,72.26,87Zm-1.91-1.46s0,0,0,0h-.28a.19.19,0,0,1,0,.08l-1,.13a1.66,1.66,0,0,0-.22,0l0-.24h-.26a2.74,2.74,0,0,1,0,.28A12,12,0,0,1,68.18,87l-.09.32c-.12.39-.26.78-.41,1.15.38-.41.75-.82,1.14-1.23h0L69,87a0,0,0,0,1,0,0c.1-.12.21-.23.32-.35s.41-.45.64-.68c0,0,0,0,0,0l.19-.21.22.24C70.39,85.86,70.37,85.71,70.35,85.56Zm0,0s0,0,0,0h-.28a.19.19,0,0,1,0,.08l-1,.13a1.66,1.66,0,0,0-.22,0l0-.24h-.26a2.74,2.74,0,0,1,0,.28A12,12,0,0,1,68.18,87l-.09.32c-.12.39-.26.78-.41,1.15.38-.41.75-.82,1.14-1.23h0L69,87a0,0,0,0,1,0,0c.1-.12.21-.23.32-.35s.41-.45.64-.68c0,0,0,0,0,0l.19-.21.22.24C70.39,85.86,70.37,85.71,70.35,85.56Zm0,0s0,0,0,0h-.28a.19.19,0,0,1,0,.08c0,.13,0,.25,0,.37l.19-.21.22.24C70.39,85.86,70.37,85.71,70.35,85.56Zm4.83,6.81a12.46,12.46,0,0,1-1-1.22l-1,1.33-.91,1.23L70.2,96.57,68,93.68c-.29-.38-.59-.77-.87-1.16s-.67-.87-1-1.31a12.28,12.28,0,0,1-1,1.19,13.38,13.38,0,0,1-1.08,1l1,1.26.88,1.17,3,3.93a1.53,1.53,0,0,0,2.59,0l3-4,.85-1.13.92-1.24A11.9,11.9,0,0,1,75.18,92.37ZM70.42,86c0-.14,0-.29-.07-.44s0,0,0,0h-.28a.19.19,0,0,1,0,.08c0,.13,0,.25,0,.37l.19-.21Zm-.07-.44s0,0,0,0h-.28a.19.19,0,0,1,0,.08c0,.13,0,.25,0,.37l.19-.21.22.24C70.39,85.86,70.37,85.71,70.35,85.56ZM72.26,87s0-.1-.05-.15q-.18-.66-.3-1.35a.51.51,0,0,1,0-.13h0c0-.15,0-.31-.07-.46a.06.06,0,0,1,0,0c0-.28-.06-.56-.08-.84v-.11c0-.11,0-.21,0-.32v-.15a2.89,2.89,0,0,1,0-.48l0,0-.19-.21-.22-.24-.18-.16,0,0a1.34,1.34,0,0,0-.75-.24.43.43,0,0,0-.16,0,1.39,1.39,0,0,0-1,.43l-.41.44-.06.06c0,.19,0,.37,0,.56s0,.32,0,.48a1.93,1.93,0,0,0,0,.24c0,.37-.08.72-.14,1.08l-.16.17h.14a2.74,2.74,0,0,1,0,.28A12,12,0,0,1,68.18,87l-.09.32c-.12.39-.26.78-.41,1.15.38-.41.75-.82,1.14-1.23h0L69,87a0,0,0,0,1,0,0c.1-.12.21-.23.32-.35s.41-.45.64-.68c0,0,0,0,0,0l.19-.21.22.24.72.79.12.13,0,0,0,.06,1.5,1.63A11.74,11.74,0,0,1,72.26,87Zm-1.91-1.46s0,0,0,0h-.28a.19.19,0,0,1,0,.08l-1,.13a1.66,1.66,0,0,0-.22,0l0-.24h-.26a2.74,2.74,0,0,1,0,.28A12,12,0,0,1,68.18,87l-.09.32c-.12.39-.26.78-.41,1.15.38-.41.75-.82,1.14-1.23h0L69,87a0,0,0,0,1,0,0c.1-.12.21-.23.32-.35s.41-.45.64-.68c0,0,0,0,0,0l.19-.21.22.24C70.39,85.86,70.37,85.71,70.35,85.56ZM72.26,87h-.91l1.5,1.63A11.74,11.74,0,0,1,72.26,87Z" fill="#231f20"/><path d="M63.92,84.83a7,7,0,0,0-.08-.8,8.92,8.92,0,0,0-8.68-7.88c-3.85-.21-6.87,2.45-8.14,5.78,0,0,0,0,0,0A9.93,9.93,0,0,0,46.47,84c0,.3-.07.59-.09.89a.89.89,0,0,0,0,.33h0a.76.76,0,0,0,.11.26,1.18,1.18,0,0,0,1.91,0,1.13,1.13,0,0,0,.2-.6,6.37,6.37,0,0,1,.11-.89c1.17-7.21,11.66-7.21,12.84,0a8.35,8.35,0,0,1,.1.89.58.58,0,0,0,0,.19,1.08,1.08,0,0,0,.17.41,1.18,1.18,0,0,0,1.91,0,1,1,0,0,0,.14-.6A.28.28,0,0,0,63.92,84.83Zm5.11.9a1.66,1.66,0,0,0-.22,0l0-.24,0-.39a8.44,8.44,0,0,1,0-.87,1.77,1.77,0,0,1,0-.23c0-.16,0-.32,0-.48,0,.16,0,.32,0,.48a1.93,1.93,0,0,0,0,.24c0,.37-.08.72-.14,1.08l-.16.17h.14a2.74,2.74,0,0,1,0,.28A12,12,0,0,1,68.18,87l-.09.32c-.12.39-.26.78-.41,1.15a13.16,13.16,0,0,1-1.52,2.72c.32.44.65.88,1,1.31a14.32,14.32,0,0,0,2.24-4.12,13.11,13.11,0,0,0,.38-1.26l0-.12c.08-.34.15-.68.2-1,0,0,0,0,0,0s0-.24,0-.37Zm-5.11-.9a7,7,0,0,0-.08-.8,8.92,8.92,0,0,0-8.68-7.88c-3.85-.21-6.87,2.45-8.14,5.78,0,0,0,0,0,0A9.93,9.93,0,0,0,46.47,84c0,.3-.07.59-.09.89a.89.89,0,0,0,0,.33h0a.76.76,0,0,0,.11.26,1.18,1.18,0,0,0,1.91,0,1.13,1.13,0,0,0,.2-.6,6.37,6.37,0,0,1,.11-.89c1.17-7.21,11.66-7.21,12.84,0a8.35,8.35,0,0,1,.1.89.58.58,0,0,0,0,.19,1.08,1.08,0,0,0,.17.41,1.18,1.18,0,0,0,1.91,0,1,1,0,0,0,.14-.6A.28.28,0,0,0,63.92,84.83Zm0,0a7,7,0,0,0-.08-.8,8.92,8.92,0,0,0-8.68-7.88c-3.85-.21-6.87,2.45-8.14,5.78,0,0,0,0,0,0A9.93,9.93,0,0,0,46.47,84c0,.3-.07.59-.09.89a.89.89,0,0,0,0,.33h0a.76.76,0,0,0,.11.26,1.18,1.18,0,0,0,1.91,0,1.13,1.13,0,0,0,.2-.6,6.37,6.37,0,0,1,.11-.89c1.17-7.21,11.66-7.21,12.84,0a8.35,8.35,0,0,1,.1.89.58.58,0,0,0,0,.19,1.08,1.08,0,0,0,.17.41,1.18,1.18,0,0,0,1.91,0,1,1,0,0,0,.14-.6A.28.28,0,0,0,63.92,84.83Zm5.11.9a1.66,1.66,0,0,0-.22,0l0-.24,0-.39a8.44,8.44,0,0,1,0-.87,1.77,1.77,0,0,1,0-.23c0-.16,0-.32,0-.48,0,.16,0,.32,0,.48a1.93,1.93,0,0,0,0,.24c0,.37-.08.72-.14,1.08l-.16.17h.14a2.74,2.74,0,0,1,0,.28A12,12,0,0,1,68.18,87l-.09.32c-.12.39-.26.78-.41,1.15a13.16,13.16,0,0,1-1.52,2.72c.32.44.65.88,1,1.31a14.32,14.32,0,0,0,2.24-4.12,13.11,13.11,0,0,0,.38-1.26l0-.12c.08-.34.15-.68.2-1,0,0,0,0,0,0s0-.24,0-.37ZM63.84,84a8.92,8.92,0,0,0-8.68-7.88c-3.85-.21-6.87,2.45-8.14,5.78,0,0,0,0,0,0A9.93,9.93,0,0,0,46.47,84c0,.3-.07.59-.09.89a.89.89,0,0,0,0,.33h0a.76.76,0,0,0,.11.26,1.18,1.18,0,0,0,1.91,0,1.13,1.13,0,0,0,.2-.6,6.37,6.37,0,0,1,.11-.89c1.17-7.21,11.66-7.21,12.84,0a8.35,8.35,0,0,1,.1.89.58.58,0,0,0,0,.19,1.08,1.08,0,0,0,.17.41,1.18,1.18,0,0,0,1.91,0,1,1,0,0,0,.14-.6.28.28,0,0,0,0-.09A7,7,0,0,0,63.84,84Zm6.29-2A13.84,13.84,0,0,0,69.48,79a14.69,14.69,0,0,0-13.8-10.11h-.15a15,15,0,0,0-5.36,1,0,0,0,0,0,0,0h0a14.68,14.68,0,0,0-9.27,13.65,14.52,14.52,0,0,0,2.36,8c.11.17.22.34.34.5a14.39,14.39,0,0,0,1.15,1.43,12.45,12.45,0,0,0,.89.89c.2.19.4.36.61.54a14.68,14.68,0,0,0,18.86-.18,11.76,11.76,0,0,0,1.09-1,13.62,13.62,0,0,0,1-1.16,14.32,14.32,0,0,0,2.24-4.12,13.11,13.11,0,0,0,.38-1.26l0-.12c.08-.34.15-.68.2-1,0,0,0,0,0,0s0-.24,0-.37a.19.19,0,0,0,0-.08c0-.23.06-.46.08-.69s0-.5,0-.75v0c0-.16,0-.32,0-.48A14.72,14.72,0,0,0,70.13,82.06Zm-4,9.15a12.28,12.28,0,0,1-1,1.19,13.38,13.38,0,0,1-1.08,1,13.65,13.65,0,0,1-8.58,3.28A12.21,12.21,0,0,1,47,93.57c-.29-.25-.56-.52-.82-.79s-.59-.65-.86-1c-.13-.17-.27-.35-.39-.53l-.25-.36a14.44,14.44,0,0,1-1.45-2.82.42.42,0,0,0,0-.1,1,1,0,0,1-.05-.16,13.64,13.64,0,0,1-.81-4.26A12.47,12.47,0,0,1,47.66,73.1a.13.13,0,0,1,.06,0,13.83,13.83,0,0,1,3-1.65,14,14,0,0,1,3-.85h0a14,14,0,0,1,1.84-.18c7.15-.19,12.68,5.82,13.15,12.62,0,.19,0,.37,0,.56s0,.32,0,.48a1.93,1.93,0,0,0,0,.24c0,.37-.08.72-.14,1.08l-.16.17h.14a2.74,2.74,0,0,1,0,.28A12,12,0,0,1,68.18,87l-.09.32c-.12.39-.26.78-.41,1.15A13.16,13.16,0,0,1,66.16,91.21ZM63.84,84a8.92,8.92,0,0,0-8.68-7.88c-3.85-.21-6.87,2.45-8.14,5.78,0,0,0,0,0,0A9.93,9.93,0,0,0,46.47,84c0,.3-.07.59-.09.89a.89.89,0,0,0,0,.33h0a.76.76,0,0,0,.11.26,1.18,1.18,0,0,0,1.91,0,1.13,1.13,0,0,0,.2-.6,6.37,6.37,0,0,1,.11-.89c1.17-7.21,11.66-7.21,12.84,0a8.35,8.35,0,0,1,.1.89.58.58,0,0,0,0,.19,1.08,1.08,0,0,0,.17.41,1.18,1.18,0,0,0,1.91,0,1,1,0,0,0,.14-.6.28.28,0,0,0,0-.09A7,7,0,0,0,63.84,84Zm.08.8a7,7,0,0,0-.08-.8,8.92,8.92,0,0,0-8.68-7.88c-3.85-.21-6.87,2.45-8.14,5.78,0,0,0,0,0,0A9.93,9.93,0,0,0,46.47,84c0,.3-.07.59-.09.89a.89.89,0,0,0,0,.33h0a.76.76,0,0,0,.11.26,1.18,1.18,0,0,0,1.91,0,1.13,1.13,0,0,0,.2-.6,6.37,6.37,0,0,1,.11-.89c1.17-7.21,11.66-7.21,12.84,0a8.35,8.35,0,0,1,.1.89.58.58,0,0,0,0,.19,1.08,1.08,0,0,0,.17.41,1.18,1.18,0,0,0,1.91,0,1,1,0,0,0,.14-.6A.28.28,0,0,0,63.92,84.83Zm5.11.9a1.66,1.66,0,0,0-.22,0l0-.24,0-.39a8.44,8.44,0,0,1,0-.87,1.77,1.77,0,0,1,0-.23c0-.16,0-.32,0-.48,0,.16,0,.32,0,.48a1.93,1.93,0,0,0,0,.24c0,.37-.08.72-.14,1.08l-.16.17h.14a2.74,2.74,0,0,1,0,.28A12,12,0,0,1,68.18,87l-.09.32c-.12.39-.26.78-.41,1.15a13.16,13.16,0,0,1-1.52,2.72c.32.44.65.88,1,1.31a14.32,14.32,0,0,0,2.24-4.12,13.11,13.11,0,0,0,.38-1.26l0-.12c.08-.34.15-.68.2-1,0,0,0,0,0,0s0-.24,0-.37Zm-5.11-.9a7,7,0,0,0-.08-.8,8.92,8.92,0,0,0-8.68-7.88c-3.85-.21-6.87,2.45-8.14,5.78,0,0,0,0,0,0A9.93,9.93,0,0,0,46.47,84c0,.3-.07.59-.09.89a.89.89,0,0,0,0,.33h0a.76.76,0,0,0,.11.26,1.18,1.18,0,0,0,1.91,0,1.13,1.13,0,0,0,.2-.6,6.37,6.37,0,0,1,.11-.89c1.17-7.21,11.66-7.21,12.84,0a8.35,8.35,0,0,1,.1.89.58.58,0,0,0,0,.19,1.08,1.08,0,0,0,.17.41,1.18,1.18,0,0,0,1.91,0,1,1,0,0,0,.14-.6A.28.28,0,0,0,63.92,84.83Z" fill="#fff"/><path d="M69,85.73a1.66,1.66,0,0,0-.22,0l0-.24,0-.39a8.44,8.44,0,0,1,0-.87,1.77,1.77,0,0,1,0-.23c0-.16,0-.32,0-.48,0,.16,0,.32,0,.48a1.93,1.93,0,0,0,0,.24c0,.37-.08.72-.14,1.08a1.11,1.11,0,0,1,0,.17,2.74,2.74,0,0,1,0,.28A12,12,0,0,1,68.18,87l-.09.32c-.12.39-.26.78-.41,1.15a13.16,13.16,0,0,1-1.52,2.72c.32.44.65.88,1,1.31a14.32,14.32,0,0,0,2.24-4.12,13.11,13.11,0,0,0,.38-1.26l0-.12c.08-.34.15-.68.2-1,0,0,0,0,0,0s0-.24,0-.37Zm0,0a1.66,1.66,0,0,0-.22,0l0-.24,0-.39a8.44,8.44,0,0,1,0-.87,1.77,1.77,0,0,1,0-.23c0-.16,0-.32,0-.48,0,.16,0,.32,0,.48a1.93,1.93,0,0,0,0,.24c0,.37-.08.72-.14,1.08a1.11,1.11,0,0,1,0,.17,2.74,2.74,0,0,1,0,.28A12,12,0,0,1,68.18,87l-.09.32c-.12.39-.26.78-.41,1.15a13.16,13.16,0,0,1-1.52,2.72c.32.44.65.88,1,1.31a14.32,14.32,0,0,0,2.24-4.12,13.11,13.11,0,0,0,.38-1.26l0-.12c.08-.34.15-.68.2-1,0,0,0,0,0,0s0-.24,0-.37Zm2.67-2.52c0-.09,0-.18,0-.27a16.94,16.94,0,0,0-.73-4A15.92,15.92,0,0,0,70.23,77a16.3,16.3,0,0,0-12.62-9.45h0a16.83,16.83,0,0,0-2-.18H55a14.59,14.59,0,0,0-2.49.24.32.32,0,0,0-.14,0C45,69,39.57,76,39.35,83.55A15,15,0,0,0,43.21,94a14.15,14.15,0,0,0,1.08,1.11,4.72,4.72,0,0,0,.41.37,15.24,15.24,0,0,0,1.5,1.18l.16.11a17.11,17.11,0,0,0,9.17,3,15,15,0,0,0,10.41-3.85c.38-.33.74-.68,1.09-1s.68-.75,1-1.15a17.76,17.76,0,0,0,2.1-3.41,19.85,19.85,0,0,0,.82-2.15c.11-.36.22-.73.3-1.1a.07.07,0,0,0,0,0,0,0,0,0,0,0,0,1,1,0,0,0,.06-.25h0q.12-.57.21-1.14s0-.06,0-.09,0-.24,0-.36,0-.34.05-.52,0-.34,0-.52v-.11a2.26,2.26,0,0,0,0-.26.13.13,0,0,0,0-.06v-.15A1.93,1.93,0,0,1,71.7,83.21ZM55.53,96.73A12.21,12.21,0,0,1,47,93.57c-.29-.25-.56-.52-.82-.79s-.59-.65-.86-1c-.13-.17-.27-.35-.39-.53l-.25-.36a14.44,14.44,0,0,1-1.45-2.82.42.42,0,0,0,0-.1,1,1,0,0,1-.05-.16,13.64,13.64,0,0,1-.81-4.26A12.47,12.47,0,0,1,47.66,73.1a.13.13,0,0,1,.06,0,13.83,13.83,0,0,1,3-1.65,14,14,0,0,1,3-.85h0a14,14,0,0,1,1.84-.18c7.15-.19,12.68,5.82,13.15,12.62,0,.19,0,.37,0,.56s0,.32,0,.48a1.93,1.93,0,0,0,0,.24c0,.37-.08.72-.14,1.08a1.11,1.11,0,0,1,0,.17,2.74,2.74,0,0,1,0,.28A12,12,0,0,1,68.18,87l-.09.32c-.12.39-.26.78-.41,1.15a13.16,13.16,0,0,1-1.52,2.72,12.28,12.28,0,0,1-1,1.19,13.38,13.38,0,0,1-1.08,1A13.65,13.65,0,0,1,55.53,96.73Zm13.5-11a1.66,1.66,0,0,0-.22,0l0-.24,0-.39a8.44,8.44,0,0,1,0-.87,1.77,1.77,0,0,1,0-.23c0-.16,0-.32,0-.48,0,.16,0,.32,0,.48a1.93,1.93,0,0,0,0,.24c0,.37-.08.72-.14,1.08a1.11,1.11,0,0,1,0,.17,2.74,2.74,0,0,1,0,.28A12,12,0,0,1,68.18,87l-.09.32c-.12.39-.26.78-.41,1.15a13.16,13.16,0,0,1-1.52,2.72c.32.44.65.88,1,1.31a14.32,14.32,0,0,0,2.24-4.12,13.11,13.11,0,0,0,.38-1.26l0-.12c.08-.34.15-.68.2-1,0,0,0,0,0,0s0-.24,0-.37Z" fill="#231f20"/><path d="M63.93,84.92a1,1,0,0,1-.14.6,1.18,1.18,0,0,1-1.91,0,1.08,1.08,0,0,1-.17-.41.58.58,0,0,1,0-.19,8.35,8.35,0,0,0-.1-.89c-1.18-7.21-11.67-7.21-12.84,0a6.37,6.37,0,0,0-.11.89,1.13,1.13,0,0,1-.2.6,1.18,1.18,0,0,1-1.91,0,.76.76,0,0,1-.11-.26h0a.89.89,0,0,1,0-.33c0-.3,0-.59.09-.89A9.93,9.93,0,0,1,47,82s0,0,0,0c1.27-3.33,4.29-6,8.14-5.78A8.92,8.92,0,0,1,63.84,84a7,7,0,0,1,.08.8A.28.28,0,0,1,63.93,84.92Z" fill="#231f20"/><path d="M93.84,85.52a1,1,0,0,0,.14-.6q0-.3-.06-.6a.25.25,0,0,0,0-.12.88.88,0,0,0,0-.17,7.6,7.6,0,0,0-.24-1.19,8.73,8.73,0,0,0-1.16-2.64.47.47,0,0,0-.06-.09h0a9,9,0,0,0-7.22-3.95c-4.46-.24-7.8,3.36-8.6,7.4h0c0,.16-.06.32-.08.48s-.07.59-.09.89V85a1,1,0,0,0,.14.49,1.18,1.18,0,0,0,1.91,0,1.22,1.22,0,0,0,.2-.59h0a6.37,6.37,0,0,1,.11-.89,3.82,3.82,0,0,1,.11-.57C80.44,77.16,89.49,77,91.38,83a5.43,5.43,0,0,1,.24,1,3,3,0,0,1,.07.52c0,.12,0,.24,0,.37a1.13,1.13,0,0,0,.2.6,1,1,0,0,0,.53.4,1.23,1.23,0,0,0,1.08-.08h.14a.09.09,0,0,0,0-.09h0A.68.68,0,0,0,93.84,85.52Zm0,0a1,1,0,0,0,.14-.6q0-.3-.06-.6a.25.25,0,0,0,0-.12.88.88,0,0,0,0-.17,7.6,7.6,0,0,0-.24-1.19,8.73,8.73,0,0,0-1.16-2.64.47.47,0,0,0-.06-.09h0a9,9,0,0,0-7.22-3.95c-4.46-.24-7.8,3.36-8.6,7.4h0c0,.16-.06.32-.08.48s-.07.59-.09.89V85a1,1,0,0,0,.14.49,1.18,1.18,0,0,0,1.91,0,1.22,1.22,0,0,0,.2-.59h0a6.37,6.37,0,0,1,.11-.89,3.82,3.82,0,0,1,.11-.57C80.44,77.16,89.49,77,91.38,83a5.43,5.43,0,0,1,.24,1,3,3,0,0,1,.07.52c0,.12,0,.24,0,.37a1.13,1.13,0,0,0,.2.6,1,1,0,0,0,.53.4,1.23,1.23,0,0,0,1.08-.08h.14a.09.09,0,0,0,0-.09h0A.68.68,0,0,0,93.84,85.52ZM84.37,68.88A14.68,14.68,0,0,0,71,78.94a14.08,14.08,0,0,0-.66,3.12,14.72,14.72,0,0,0-.08,1.49c0,.16,0,.32,0,.48v.08a13,13,0,0,0,.13,1.41s0,0,0,0,0,.3.07.44c0,.34.12.68.2,1h0a10.4,10.4,0,0,0,.31,1.09,14.35,14.35,0,0,0,2.3,4.36l1-1.33a13.24,13.24,0,0,1-1.38-2.5A11.74,11.74,0,0,1,72.26,87s0-.1-.05-.15q-.18-.66-.3-1.35a.51.51,0,0,1,0-.13h0c0-.15,0-.31-.07-.46a.06.06,0,0,1,0,0c0-.28-.06-.56-.08-.84v-.11c0-.11,0-.21,0-.32v-.15a2.89,2.89,0,0,1,0-.48c.11-6.3,5.09-11.25,11-12.36h0a12.63,12.63,0,0,1,2.13-.24,10.21,10.21,0,0,1,1.24,0A23.23,23.23,0,0,0,84.37,68.88Zm9.47,16.64a1,1,0,0,0,.14-.6q0-.3-.06-.6a.25.25,0,0,0,0-.12.88.88,0,0,0,0-.17,7.6,7.6,0,0,0-.24-1.19,8.73,8.73,0,0,0-1.16-2.64.47.47,0,0,0-.06-.09h0a9,9,0,0,0-7.22-3.95c-4.46-.24-7.8,3.36-8.6,7.4h0c0,.16-.06.32-.08.48s-.07.59-.09.89V85a1,1,0,0,0,.14.49,1.18,1.18,0,0,0,1.91,0,1.22,1.22,0,0,0,.2-.59h0a6.37,6.37,0,0,1,.11-.89,3.82,3.82,0,0,1,.11-.57C80.44,77.16,89.49,77,91.38,83a5.43,5.43,0,0,1,.24,1,3,3,0,0,1,.07.52c0,.12,0,.24,0,.37a1.13,1.13,0,0,0,.2.6,1,1,0,0,0,.53.4,1.23,1.23,0,0,0,1.08-.08h.14a.09.09,0,0,0,0-.09h0A.68.68,0,0,0,93.84,85.52Zm0,0a1,1,0,0,0,.14-.6q0-.3-.06-.6a.25.25,0,0,0,0-.12.88.88,0,0,0,0-.17,7.6,7.6,0,0,0-.24-1.19,8.73,8.73,0,0,0-1.16-2.64.47.47,0,0,0-.06-.09h0a9,9,0,0,0-7.22-3.95c-4.46-.24-7.8,3.36-8.6,7.4h0c0,.16-.06.32-.08.48s-.07.59-.09.89V85a1,1,0,0,0,.14.49,1.18,1.18,0,0,0,1.91,0,1.22,1.22,0,0,0,.2-.59h0a6.37,6.37,0,0,1,.11-.89,3.82,3.82,0,0,1,.11-.57C80.44,77.16,89.49,77,91.38,83a5.43,5.43,0,0,1,.24,1,3,3,0,0,1,.07.52c0,.12,0,.24,0,.37a1.13,1.13,0,0,0,.2.6,1,1,0,0,0,.53.4,1.23,1.23,0,0,0,1.08-.08h.14a.09.09,0,0,0,0-.09h0A.68.68,0,0,0,93.84,85.52ZM84.37,68.88A14.68,14.68,0,0,0,71,78.94a14.08,14.08,0,0,0-.66,3.12,14.72,14.72,0,0,0-.08,1.49c0,.16,0,.32,0,.48v.08a13,13,0,0,0,.13,1.41s0,0,0,0,0,.3.07.44c0,.34.12.68.2,1h0a10.4,10.4,0,0,0,.31,1.09,14.35,14.35,0,0,0,2.3,4.36l1-1.33a13.24,13.24,0,0,1-1.38-2.5A11.74,11.74,0,0,1,72.26,87s0-.1-.05-.15q-.18-.66-.3-1.35a.51.51,0,0,1,0-.13h0c0-.15,0-.31-.07-.46a.06.06,0,0,1,0,0c0-.28-.06-.56-.08-.84v-.11c0-.11,0-.21,0-.32v-.15a2.89,2.89,0,0,1,0-.48c.11-6.3,5.09-11.25,11-12.36h0a12.63,12.63,0,0,1,2.13-.24,10.21,10.21,0,0,1,1.24,0A23.23,23.23,0,0,0,84.37,68.88Zm9.47,16.64a1,1,0,0,0,.14-.6q0-.3-.06-.6a.25.25,0,0,0,0-.12.88.88,0,0,0,0-.17,7.6,7.6,0,0,0-.24-1.19,8.73,8.73,0,0,0-1.16-2.64.47.47,0,0,0-.06-.09h0a9,9,0,0,0-7.22-3.95c-4.46-.24-7.8,3.36-8.6,7.4h0c0,.16-.06.32-.08.48s-.07.59-.09.89V85a1,1,0,0,0,.14.49,1.18,1.18,0,0,0,1.91,0,1.22,1.22,0,0,0,.2-.59h0a6.37,6.37,0,0,1,.11-.89,3.82,3.82,0,0,1,.11-.57C80.44,77.16,89.49,77,91.38,83a5.43,5.43,0,0,1,.24,1,3,3,0,0,1,.07.52c0,.12,0,.24,0,.37a1.13,1.13,0,0,0,.2.6,1,1,0,0,0,.53.4,1.23,1.23,0,0,0,1.08-.08h.14a.09.09,0,0,0,0-.09h0A.68.68,0,0,0,93.84,85.52Zm0,0a1,1,0,0,0,.14-.6q0-.3-.06-.6a.25.25,0,0,0,0-.12.88.88,0,0,0,0-.17,7.6,7.6,0,0,0-.24-1.19,8.73,8.73,0,0,0-1.16-2.64.47.47,0,0,0-.06-.09h0a9,9,0,0,0-7.22-3.95c-4.46-.24-7.8,3.36-8.6,7.4h0c0,.16-.06.32-.08.48s-.07.59-.09.89V85a1,1,0,0,0,.14.49,1.18,1.18,0,0,0,1.91,0,1.22,1.22,0,0,0,.2-.59h0a6.37,6.37,0,0,1,.11-.89,3.82,3.82,0,0,1,.11-.57C80.44,77.16,89.49,77,91.38,83a5.43,5.43,0,0,1,.24,1,3,3,0,0,1,.07.52c0,.12,0,.24,0,.37a1.13,1.13,0,0,0,.2.6,1,1,0,0,0,.53.4,1.23,1.23,0,0,0,1.08-.08h.14a.09.09,0,0,0,0-.09h0A.68.68,0,0,0,93.84,85.52ZM84.37,68.88A14.68,14.68,0,0,0,71,78.94a14.08,14.08,0,0,0-.66,3.12,14.72,14.72,0,0,0-.08,1.49c0,.16,0,.32,0,.48v.08a13,13,0,0,0,.13,1.41s0,0,0,0,0,.3.07.44c0,.34.12.68.2,1h0a10.4,10.4,0,0,0,.31,1.09,14.35,14.35,0,0,0,2.3,4.36l1-1.33a13.24,13.24,0,0,1-1.38-2.5A11.74,11.74,0,0,1,72.26,87s0-.1-.05-.15q-.18-.66-.3-1.35a.51.51,0,0,1,0-.13h0c0-.15,0-.31-.07-.46a.06.06,0,0,1,0,0c0-.28-.06-.56-.08-.84v-.11c0-.11,0-.21,0-.32v-.15a2.89,2.89,0,0,1,0-.48c.11-6.3,5.09-11.25,11-12.36h0a12.63,12.63,0,0,1,2.13-.24,10.21,10.21,0,0,1,1.24,0A23.23,23.23,0,0,0,84.37,68.88Zm9.47,16.64a1,1,0,0,0,.14-.6q0-.3-.06-.6a.25.25,0,0,0,0-.12.88.88,0,0,0,0-.17,7.6,7.6,0,0,0-.24-1.19,8.73,8.73,0,0,0-1.16-2.64.47.47,0,0,0-.06-.09h0a9,9,0,0,0-7.22-3.95c-4.46-.24-7.8,3.36-8.6,7.4h0c0,.16-.06.32-.08.48s-.07.59-.09.89V85a1,1,0,0,0,.14.49,1.18,1.18,0,0,0,1.91,0,1.22,1.22,0,0,0,.2-.59h0a6.37,6.37,0,0,1,.11-.89,3.82,3.82,0,0,1,.11-.57C80.44,77.16,89.49,77,91.38,83a5.43,5.43,0,0,1,.24,1,3,3,0,0,1,.07.52c0,.12,0,.24,0,.37a1.13,1.13,0,0,0,.2.6,1,1,0,0,0,.53.4,1.23,1.23,0,0,0,1.08-.08h.14a.09.09,0,0,0,0-.09h0A.68.68,0,0,0,93.84,85.52Zm0,0a1,1,0,0,0,.14-.6q0-.3-.06-.6a.25.25,0,0,0,0-.12.88.88,0,0,0,0-.17,7.6,7.6,0,0,0-.24-1.19,8.73,8.73,0,0,0-1.16-2.64.47.47,0,0,0-.06-.09h0a9,9,0,0,0-7.22-3.95c-4.46-.24-7.8,3.36-8.6,7.4h0c0,.16-.06.32-.08.48s-.07.59-.09.89V85a1,1,0,0,0,.14.49,1.18,1.18,0,0,0,1.91,0,1.22,1.22,0,0,0,.2-.59h0a6.37,6.37,0,0,1,.11-.89,3.82,3.82,0,0,1,.11-.57C80.44,77.16,89.49,77,91.38,83a5.43,5.43,0,0,1,.24,1,3,3,0,0,1,.07.52c0,.12,0,.24,0,.37a1.13,1.13,0,0,0,.2.6,1,1,0,0,0,.53.4,1.23,1.23,0,0,0,1.08-.08h.14a.09.09,0,0,0,0-.09h0A.68.68,0,0,0,93.84,85.52ZM84.37,68.88A14.68,14.68,0,0,0,71,78.94a14.08,14.08,0,0,0-.66,3.12,14.72,14.72,0,0,0-.08,1.49c0,.16,0,.32,0,.48v.08a13,13,0,0,0,.13,1.41s0,0,0,0,0,.3.07.44c0,.34.12.68.2,1h0a10.4,10.4,0,0,0,.31,1.09,14.35,14.35,0,0,0,2.3,4.36l1-1.33a13.24,13.24,0,0,1-1.38-2.5A11.74,11.74,0,0,1,72.26,87s0-.1-.05-.15q-.18-.66-.3-1.35a.51.51,0,0,1,0-.13h0c0-.15,0-.31-.07-.46a.06.06,0,0,1,0,0c0-.28-.06-.56-.08-.84v-.11c0-.11,0-.21,0-.32v-.15a2.89,2.89,0,0,1,0-.48c.11-6.3,5.09-11.25,11-12.36h0a12.63,12.63,0,0,1,2.13-.24,10.21,10.21,0,0,1,1.24,0A23.23,23.23,0,0,0,84.37,68.88Zm9.47,16.64a1,1,0,0,0,.14-.6q0-.3-.06-.6a.25.25,0,0,0,0-.12.88.88,0,0,0,0-.17,7.6,7.6,0,0,0-.24-1.19,8.73,8.73,0,0,0-1.16-2.64.47.47,0,0,0-.06-.09h0a9,9,0,0,0-7.22-3.95c-4.46-.24-7.8,3.36-8.6,7.4h0c0,.16-.06.32-.08.48s-.07.59-.09.89V85a1,1,0,0,0,.14.49,1.18,1.18,0,0,0,1.91,0,1.22,1.22,0,0,0,.2-.59h0a6.37,6.37,0,0,1,.11-.89,3.82,3.82,0,0,1,.11-.57C80.44,77.16,89.49,77,91.38,83a5.43,5.43,0,0,1,.24,1,3,3,0,0,1,.07.52c0,.12,0,.24,0,.37a1.13,1.13,0,0,0,.2.6,1,1,0,0,0,.53.4,1.23,1.23,0,0,0,1.08-.08h.14a.09.09,0,0,0,0-.09h0A.68.68,0,0,0,93.84,85.52Zm0,0a1,1,0,0,0,.14-.6q0-.3-.06-.6a.25.25,0,0,0,0-.12.88.88,0,0,0,0-.17,7.6,7.6,0,0,0-.24-1.19,8.73,8.73,0,0,0-1.16-2.64.47.47,0,0,0-.06-.09h0a9,9,0,0,0-7.22-3.95c-4.46-.24-7.8,3.36-8.6,7.4h0c0,.16-.06.32-.08.48s-.07.59-.09.89V85a1,1,0,0,0,.14.49,1.18,1.18,0,0,0,1.91,0,1.22,1.22,0,0,0,.2-.59h0a6.37,6.37,0,0,1,.11-.89,3.82,3.82,0,0,1,.11-.57C80.44,77.16,89.49,77,91.38,83a5.43,5.43,0,0,1,.24,1,3,3,0,0,1,.07.52c0,.12,0,.24,0,.37a1.13,1.13,0,0,0,.2.6,1,1,0,0,0,.53.4,1.23,1.23,0,0,0,1.08-.08h.14a.09.09,0,0,0,0-.09h0A.68.68,0,0,0,93.84,85.52ZM82.75,70.61h0a12.63,12.63,0,0,1,2.13-.24,10.21,10.21,0,0,1,1.24,0,23.23,23.23,0,0,0-1.76-1.53A14.68,14.68,0,0,0,71,78.94a14.08,14.08,0,0,0-.66,3.12,14.72,14.72,0,0,0-.08,1.49c0,.16,0,.32,0,.48v.08a13,13,0,0,0,.13,1.41s0,0,0,0,0,.3.07.44c0,.34.12.68.2,1h0a10.4,10.4,0,0,0,.31,1.09,14.35,14.35,0,0,0,2.3,4.36l1-1.33a13.24,13.24,0,0,1-1.38-2.5A11.74,11.74,0,0,1,72.26,87s0-.1-.05-.15q-.18-.66-.3-1.35a.51.51,0,0,1,0-.13h0c0-.15,0-.31-.07-.46a.06.06,0,0,1,0,0c0-.28-.06-.56-.08-.84v-.11c0-.11,0-.21,0-.32v-.15a2.89,2.89,0,0,1,0-.48C71.82,76.67,76.8,71.72,82.75,70.61Zm8.55-.26a10.8,10.8,0,0,0-1.65-.68,0,0,0,0,0,0,0,14.8,14.8,0,0,0-4.75-.79h-.52A14.68,14.68,0,0,0,71,78.94a14.08,14.08,0,0,0-.66,3.12,14.72,14.72,0,0,0-.08,1.49c0,.16,0,.32,0,.48v.08a13,13,0,0,0,.13,1.41s0,0,0,0,0,.3.07.44c0,.34.12.68.2,1h0a10.4,10.4,0,0,0,.31,1.09,14.35,14.35,0,0,0,2.3,4.36,13.62,13.62,0,0,0,1,1.16h0a13.14,13.14,0,0,0,1.08,1,14.66,14.66,0,0,0,16.75,1.67l.41-.23A15.51,15.51,0,0,0,94,95.07l.28-.22h0a11.93,11.93,0,0,0,1.22-1.14q.4-.42.78-.87h0a14.67,14.67,0,0,0-5-22.47Zm4.18,20.9c-.17.24-.36.48-.55.71a10.12,10.12,0,0,1-1,1,13.44,13.44,0,0,1-1.07.93c-.14.11-.28.22-.43.32a13.69,13.69,0,0,1-7.59,2.51,12.21,12.21,0,0,1-8.65-3.29,11.9,11.9,0,0,1-1.06-1.07,12.46,12.46,0,0,1-1-1.22,13.24,13.24,0,0,1-1.38-2.5A11.74,11.74,0,0,1,72.26,87s0-.1-.05-.15q-.18-.66-.3-1.35a.51.51,0,0,1,0-.13h0c0-.15,0-.31-.07-.46a.06.06,0,0,1,0,0c0-.28-.06-.56-.08-.84v-.11c0-.11,0-.21,0-.32v-.15a2.89,2.89,0,0,1,0-.48c.11-6.3,5.09-11.25,11-12.36h0a12.63,12.63,0,0,1,2.13-.24,10.21,10.21,0,0,1,1.24,0h.08a12.26,12.26,0,0,1,2.72.54h0a10.87,10.87,0,0,1,2,.83c.3.16.6.33.88.51h0a14,14,0,0,1,6.28,11.24,13.82,13.82,0,0,1-1.34,5.6A12.65,12.65,0,0,1,95.48,91.25Zm-1.57-7a.88.88,0,0,0,0-.17,7.6,7.6,0,0,0-.24-1.19,8.73,8.73,0,0,0-1.16-2.64.47.47,0,0,0-.06-.09h0a9,9,0,0,0-7.22-3.95c-4.46-.24-7.8,3.36-8.6,7.4h0c0,.16-.06.32-.08.48s-.07.59-.09.89V85a1,1,0,0,0,.14.49,1.18,1.18,0,0,0,1.91,0,1.22,1.22,0,0,0,.2-.59h0a6.37,6.37,0,0,1,.11-.89,3.82,3.82,0,0,1,.11-.57C80.44,77.16,89.49,77,91.38,83a5.43,5.43,0,0,1,.24,1,3,3,0,0,1,.07.52c0,.12,0,.24,0,.37a1.13,1.13,0,0,0,.2.6,1,1,0,0,0,.53.4,1.23,1.23,0,0,0,1.08-.08h.14a.09.09,0,0,0,0-.09h0a.68.68,0,0,0,.17-.21,1,1,0,0,0,.14-.6q0-.3-.06-.6A.25.25,0,0,0,93.91,84.2ZM84.37,68.88A14.68,14.68,0,0,0,71,78.94a14.08,14.08,0,0,0-.66,3.12,14.72,14.72,0,0,0-.08,1.49c0,.16,0,.32,0,.48v.08a13,13,0,0,0,.13,1.41s0,0,0,0,0,.3.07.44c0,.34.12.68.2,1h0a10.4,10.4,0,0,0,.31,1.09,14.35,14.35,0,0,0,2.3,4.36l1-1.33a13.24,13.24,0,0,1-1.38-2.5A11.74,11.74,0,0,1,72.26,87s0-.1-.05-.15q-.18-.66-.3-1.35a.51.51,0,0,1,0-.13h0c0-.15,0-.31-.07-.46a.06.06,0,0,1,0,0c0-.28-.06-.56-.08-.84v-.11c0-.11,0-.21,0-.32v-.15a2.89,2.89,0,0,1,0-.48c.11-6.3,5.09-11.25,11-12.36h0a12.63,12.63,0,0,1,2.13-.24,10.21,10.21,0,0,1,1.24,0A23.23,23.23,0,0,0,84.37,68.88Zm9.47,16.64a1,1,0,0,0,.14-.6q0-.3-.06-.6a.25.25,0,0,0,0-.12.88.88,0,0,0,0-.17,7.6,7.6,0,0,0-.24-1.19,8.73,8.73,0,0,0-1.16-2.64.47.47,0,0,0-.06-.09h0a9,9,0,0,0-7.22-3.95c-4.46-.24-7.8,3.36-8.6,7.4h0c0,.16-.06.32-.08.48s-.07.59-.09.89V85a1,1,0,0,0,.14.49,1.18,1.18,0,0,0,1.91,0,1.22,1.22,0,0,0,.2-.59h0a6.37,6.37,0,0,1,.11-.89,3.82,3.82,0,0,1,.11-.57C80.44,77.16,89.49,77,91.38,83a5.43,5.43,0,0,1,.24,1,3,3,0,0,1,.07.52c0,.12,0,.24,0,.37a1.13,1.13,0,0,0,.2.6,1,1,0,0,0,.53.4,1.23,1.23,0,0,0,1.08-.08h.14a.09.09,0,0,0,0-.09h0A.68.68,0,0,0,93.84,85.52Zm0,0a1,1,0,0,0,.14-.6q0-.3-.06-.6a.25.25,0,0,0,0-.12.88.88,0,0,0,0-.17,7.6,7.6,0,0,0-.24-1.19,8.73,8.73,0,0,0-1.16-2.64.47.47,0,0,0-.06-.09h0a9,9,0,0,0-7.22-3.95c-4.46-.24-7.8,3.36-8.6,7.4h0c0,.16-.06.32-.08.48s-.07.59-.09.89V85a1,1,0,0,0,.14.49,1.18,1.18,0,0,0,1.91,0,1.22,1.22,0,0,0,.2-.59h0a6.37,6.37,0,0,1,.11-.89,3.82,3.82,0,0,1,.11-.57C80.44,77.16,89.49,77,91.38,83a5.43,5.43,0,0,1,.24,1,3,3,0,0,1,.07.52c0,.12,0,.24,0,.37a1.13,1.13,0,0,0,.2.6,1,1,0,0,0,.53.4,1.23,1.23,0,0,0,1.08-.08h.14a.09.09,0,0,0,0-.09h0A.68.68,0,0,0,93.84,85.52ZM84.37,68.88A14.68,14.68,0,0,0,71,78.94a14.08,14.08,0,0,0-.66,3.12,14.72,14.72,0,0,0-.08,1.49c0,.16,0,.32,0,.48v.08a13,13,0,0,0,.13,1.41s0,0,0,0,0,.3.07.44c0,.34.12.68.2,1h0a10.4,10.4,0,0,0,.31,1.09,14.35,14.35,0,0,0,2.3,4.36l1-1.33a13.24,13.24,0,0,1-1.38-2.5A11.74,11.74,0,0,1,72.26,87s0-.1-.05-.15q-.18-.66-.3-1.35a.51.51,0,0,1,0-.13h0c0-.15,0-.31-.07-.46a.06.06,0,0,1,0,0c0-.28-.06-.56-.08-.84v-.11c0-.11,0-.21,0-.32v-.15a2.89,2.89,0,0,1,0-.48c.11-6.3,5.09-11.25,11-12.36h0a12.63,12.63,0,0,1,2.13-.24,10.21,10.21,0,0,1,1.24,0A23.23,23.23,0,0,0,84.37,68.88Zm9.47,16.64a1,1,0,0,0,.14-.6q0-.3-.06-.6a.25.25,0,0,0,0-.12.88.88,0,0,0,0-.17,7.6,7.6,0,0,0-.24-1.19,8.73,8.73,0,0,0-1.16-2.64.47.47,0,0,0-.06-.09h0a9,9,0,0,0-7.22-3.95c-4.46-.24-7.8,3.36-8.6,7.4h0c0,.16-.06.32-.08.48s-.07.59-.09.89V85a1,1,0,0,0,.14.49,1.18,1.18,0,0,0,1.91,0,1.22,1.22,0,0,0,.2-.59h0a6.37,6.37,0,0,1,.11-.89,3.82,3.82,0,0,1,.11-.57C80.44,77.16,89.49,77,91.38,83a5.43,5.43,0,0,1,.24,1,3,3,0,0,1,.07.52c0,.12,0,.24,0,.37a1.13,1.13,0,0,0,.2.6,1,1,0,0,0,.53.4,1.23,1.23,0,0,0,1.08-.08h.14a.09.09,0,0,0,0-.09h0A.68.68,0,0,0,93.84,85.52Zm0,0a1,1,0,0,0,.14-.6q0-.3-.06-.6a.25.25,0,0,0,0-.12.88.88,0,0,0,0-.17,7.6,7.6,0,0,0-.24-1.19,8.73,8.73,0,0,0-1.16-2.64.47.47,0,0,0-.06-.09h0a9,9,0,0,0-7.22-3.95c-4.46-.24-7.8,3.36-8.6,7.4h0c0,.16-.06.32-.08.48s-.07.59-.09.89V85a1,1,0,0,0,.14.49,1.18,1.18,0,0,0,1.91,0,1.22,1.22,0,0,0,.2-.59h0a6.37,6.37,0,0,1,.11-.89,3.82,3.82,0,0,1,.11-.57C80.44,77.16,89.49,77,91.38,83a5.43,5.43,0,0,1,.24,1,3,3,0,0,1,.07.52c0,.12,0,.24,0,.37a1.13,1.13,0,0,0,.2.6,1,1,0,0,0,.53.4,1.23,1.23,0,0,0,1.08-.08h.14a.09.09,0,0,0,0-.09h0A.68.68,0,0,0,93.84,85.52ZM84.37,68.88A14.68,14.68,0,0,0,71,78.94a14.08,14.08,0,0,0-.66,3.12,14.72,14.72,0,0,0-.08,1.49c0,.16,0,.32,0,.48v.08a13,13,0,0,0,.13,1.41s0,0,0,0,0,.3.07.44c0,.34.12.68.2,1h0a10.4,10.4,0,0,0,.31,1.09,14.35,14.35,0,0,0,2.3,4.36l1-1.33a13.24,13.24,0,0,1-1.38-2.5A11.74,11.74,0,0,1,72.26,87s0-.1-.05-.15q-.18-.66-.3-1.35a.51.51,0,0,1,0-.13h0c0-.15,0-.31-.07-.46a.06.06,0,0,1,0,0c0-.28-.06-.56-.08-.84v-.11c0-.11,0-.21,0-.32v-.15a2.89,2.89,0,0,1,0-.48c.11-6.3,5.09-11.25,11-12.36h0a12.63,12.63,0,0,1,2.13-.24,10.21,10.21,0,0,1,1.24,0A23.23,23.23,0,0,0,84.37,68.88Zm9.47,16.64a1,1,0,0,0,.14-.6q0-.3-.06-.6a.25.25,0,0,0,0-.12.88.88,0,0,0,0-.17,7.6,7.6,0,0,0-.24-1.19,8.73,8.73,0,0,0-1.16-2.64.47.47,0,0,0-.06-.09h0a9,9,0,0,0-7.22-3.95c-4.46-.24-7.8,3.36-8.6,7.4h0c0,.16-.06.32-.08.48s-.07.59-.09.89V85a1,1,0,0,0,.14.49,1.18,1.18,0,0,0,1.91,0,1.22,1.22,0,0,0,.2-.59h0a6.37,6.37,0,0,1,.11-.89,3.82,3.82,0,0,1,.11-.57C80.44,77.16,89.49,77,91.38,83a5.43,5.43,0,0,1,.24,1,3,3,0,0,1,.07.52c0,.12,0,.24,0,.37a1.13,1.13,0,0,0,.2.6,1,1,0,0,0,.53.4,1.23,1.23,0,0,0,1.08-.08h.14a.09.09,0,0,0,0-.09h0A.68.68,0,0,0,93.84,85.52Zm0,0a1,1,0,0,0,.14-.6q0-.3-.06-.6a.25.25,0,0,0,0-.12.88.88,0,0,0,0-.17,7.6,7.6,0,0,0-.24-1.19,8.73,8.73,0,0,0-1.16-2.64.47.47,0,0,0-.06-.09h0a9,9,0,0,0-7.22-3.95c-4.46-.24-7.8,3.36-8.6,7.4h0c0,.16-.06.32-.08.48s-.07.59-.09.89V85a1,1,0,0,0,.14.49,1.18,1.18,0,0,0,1.91,0,1.22,1.22,0,0,0,.2-.59h0a6.37,6.37,0,0,1,.11-.89,3.82,3.82,0,0,1,.11-.57C80.44,77.16,89.49,77,91.38,83a5.43,5.43,0,0,1,.24,1,3,3,0,0,1,.07.52c0,.12,0,.24,0,.37a1.13,1.13,0,0,0,.2.6,1,1,0,0,0,.53.4,1.23,1.23,0,0,0,1.08-.08h.14a.09.09,0,0,0,0-.09h0A.68.68,0,0,0,93.84,85.52ZM84.37,68.88A14.68,14.68,0,0,0,71,78.94a14.08,14.08,0,0,0-.66,3.12,14.72,14.72,0,0,0-.08,1.49c0,.16,0,.32,0,.48v.08a13,13,0,0,0,.13,1.41s0,0,0,0,0,.3.07.44c0,.34.12.68.2,1h0a10.4,10.4,0,0,0,.31,1.09,14.35,14.35,0,0,0,2.3,4.36l1-1.33a13.24,13.24,0,0,1-1.38-2.5A11.74,11.74,0,0,1,72.26,87s0-.1-.05-.15q-.18-.66-.3-1.35a.51.51,0,0,1,0-.13h0c0-.15,0-.31-.07-.46a.06.06,0,0,1,0,0c0-.28-.06-.56-.08-.84v-.11c0-.11,0-.21,0-.32v-.15a2.89,2.89,0,0,1,0-.48c.11-6.3,5.09-11.25,11-12.36h0a12.63,12.63,0,0,1,2.13-.24,10.21,10.21,0,0,1,1.24,0A23.23,23.23,0,0,0,84.37,68.88Zm9.47,16.64a1,1,0,0,0,.14-.6q0-.3-.06-.6a.25.25,0,0,0,0-.12.88.88,0,0,0,0-.17,7.6,7.6,0,0,0-.24-1.19,8.73,8.73,0,0,0-1.16-2.64.47.47,0,0,0-.06-.09h0a9,9,0,0,0-7.22-3.95c-4.46-.24-7.8,3.36-8.6,7.4h0c0,.16-.06.32-.08.48s-.07.59-.09.89V85a1,1,0,0,0,.14.49,1.18,1.18,0,0,0,1.91,0,1.22,1.22,0,0,0,.2-.59h0a6.37,6.37,0,0,1,.11-.89,3.82,3.82,0,0,1,.11-.57C80.44,77.16,89.49,77,91.38,83a5.43,5.43,0,0,1,.24,1,3,3,0,0,1,.07.52c0,.12,0,.24,0,.37a1.13,1.13,0,0,0,.2.6,1,1,0,0,0,.53.4,1.23,1.23,0,0,0,1.08-.08h.14a.09.09,0,0,0,0-.09h0A.68.68,0,0,0,93.84,85.52Zm0,0a1,1,0,0,0,.14-.6q0-.3-.06-.6a.25.25,0,0,0,0-.12.88.88,0,0,0,0-.17,7.6,7.6,0,0,0-.24-1.19,8.73,8.73,0,0,0-1.16-2.64.47.47,0,0,0-.06-.09h0a9,9,0,0,0-7.22-3.95c-4.46-.24-7.8,3.36-8.6,7.4h0c0,.16-.06.32-.08.48s-.07.59-.09.89V85a1,1,0,0,0,.14.49,1.18,1.18,0,0,0,1.91,0,1.22,1.22,0,0,0,.2-.59h0a6.37,6.37,0,0,1,.11-.89,3.82,3.82,0,0,1,.11-.57C80.44,77.16,89.49,77,91.38,83a5.43,5.43,0,0,1,.24,1,3,3,0,0,1,.07.52c0,.12,0,.24,0,.37a1.13,1.13,0,0,0,.2.6,1,1,0,0,0,.53.4,1.23,1.23,0,0,0,1.08-.08h.14a.09.09,0,0,0,0-.09h0A.68.68,0,0,0,93.84,85.52Z" fill="#fff"/><path d="M72.21,86.87q-.18-.66-.3-1.35a.51.51,0,0,1,0-.13h0c0-.15,0-.31-.07-.46a.06.06,0,0,1,0,0c0-.28-.06-.56-.08-.84v-.11c0-.11,0-.21,0-.32a.13.13,0,0,1,0,.06,2.26,2.26,0,0,1,0,.26V84c0,.18,0,.35,0,.52s0,.35-.05.52,0,.24,0,.36c-.27,0-.55,0-.82.09h-.38s0,0,0,0,0,.3.07.44l.72.79.12.13,0,0,0,.06h.91S72.23,86.92,72.21,86.87Zm12.16-18A14.68,14.68,0,0,0,71,78.94a14.08,14.08,0,0,0-.66,3.12,14.72,14.72,0,0,0-.08,1.49c0,.16,0,.32,0,.48v0c0,.25,0,.5,0,.75s-.05.46-.08.69h.28s0,0,0,0,0,.3.07.44c0,.34.12.68.2,1h0a10.4,10.4,0,0,0,.31,1.09,14.35,14.35,0,0,0,2.3,4.36l1-1.33a13.24,13.24,0,0,1-1.38-2.5A11.74,11.74,0,0,1,72.26,87s0-.1-.05-.15q-.18-.66-.3-1.35a.51.51,0,0,1,0-.13h0c0-.15,0-.31-.07-.46a.06.06,0,0,1,0,0c0-.28-.06-.56-.08-.84v-.11c0-.11,0-.21,0-.32v-.15a2.89,2.89,0,0,1,0-.48c.11-6.3,5.09-11.25,11-12.36h0a12.63,12.63,0,0,1,2.13-.24,10.21,10.21,0,0,1,1.24,0A23.23,23.23,0,0,0,84.37,68.88Zm0,0A14.68,14.68,0,0,0,71,78.94a14.08,14.08,0,0,0-.66,3.12,14.72,14.72,0,0,0-.08,1.49c0,.16,0,.32,0,.48v.08a13,13,0,0,0,.13,1.41s0,0,0,0,0,.3.07.44c0,.34.12.68.2,1h0a10.4,10.4,0,0,0,.31,1.09,14.35,14.35,0,0,0,2.3,4.36l1-1.33a13.24,13.24,0,0,1-1.38-2.5A11.74,11.74,0,0,1,72.26,87s0-.1-.05-.15q-.18-.66-.3-1.35a.51.51,0,0,1,0-.13h0c0-.15,0-.31-.07-.46a.06.06,0,0,1,0,0c0-.28-.06-.56-.08-.84v-.11c0-.11,0-.21,0-.32v-.15a2.89,2.89,0,0,1,0-.48c.11-6.3,5.09-11.25,11-12.36h0a12.63,12.63,0,0,1,2.13-.24,10.21,10.21,0,0,1,1.24,0A23.23,23.23,0,0,0,84.37,68.88Zm0,0A14.68,14.68,0,0,0,71,78.94a14.08,14.08,0,0,0-.66,3.12,14.72,14.72,0,0,0-.08,1.49c0,.16,0,.32,0,.48v.08a13,13,0,0,0,.13,1.41s0,0,0,0,0,.3.07.44c0,.34.12.68.2,1h0a10.4,10.4,0,0,0,.31,1.09,14.35,14.35,0,0,0,2.3,4.36l1-1.33a13.24,13.24,0,0,1-1.38-2.5A11.74,11.74,0,0,1,72.26,87s0-.1-.05-.15q-.18-.66-.3-1.35a.51.51,0,0,1,0-.13h0c0-.15,0-.31-.07-.46a.06.06,0,0,1,0,0c0-.28-.06-.56-.08-.84v-.11c0-.11,0-.21,0-.32v-.15a2.89,2.89,0,0,1,0-.48c.11-6.3,5.09-11.25,11-12.36h0a12.63,12.63,0,0,1,2.13-.24,10.21,10.21,0,0,1,1.24,0A23.23,23.23,0,0,0,84.37,68.88Zm0,0A14.68,14.68,0,0,0,71,78.94a14.08,14.08,0,0,0-.66,3.12,14.72,14.72,0,0,0-.08,1.49c0,.16,0,.32,0,.48v.08a13,13,0,0,0,.13,1.41s0,0,0,0,0,.3.07.44c0,.34.12.68.2,1h0a10.4,10.4,0,0,0,.31,1.09,14.35,14.35,0,0,0,2.3,4.36l1-1.33a13.24,13.24,0,0,1-1.38-2.5A11.74,11.74,0,0,1,72.26,87s0-.1-.05-.15q-.18-.66-.3-1.35a.51.51,0,0,1,0-.13h0c0-.15,0-.31-.07-.46a.06.06,0,0,1,0,0c0-.28-.06-.56-.08-.84v-.11c0-.11,0-.21,0-.32v-.15a2.89,2.89,0,0,1,0-.48c.11-6.3,5.09-11.25,11-12.36h0a12.63,12.63,0,0,1,2.13-.24,10.21,10.21,0,0,1,1.24,0A23.23,23.23,0,0,0,84.37,68.88Zm0,0A14.68,14.68,0,0,0,71,78.94a14.08,14.08,0,0,0-.66,3.12,14.72,14.72,0,0,0-.08,1.49c0,.16,0,.32,0,.48v.08a13,13,0,0,0,.13,1.41s0,0,0,0,0,.3.07.44c0,.34.12.68.2,1h0a10.4,10.4,0,0,0,.31,1.09,14.35,14.35,0,0,0,2.3,4.36l1-1.33a13.24,13.24,0,0,1-1.38-2.5A11.74,11.74,0,0,1,72.26,87s0-.1-.05-.15q-.18-.66-.3-1.35a.51.51,0,0,1,0-.13h0c0-.15,0-.31-.07-.46a.06.06,0,0,1,0,0c0-.28-.06-.56-.08-.84v-.11c0-.11,0-.21,0-.32v-.15a2.89,2.89,0,0,1,0-.48c.11-6.3,5.09-11.25,11-12.36h0a12.63,12.63,0,0,1,2.13-.24,10.21,10.21,0,0,1,1.24,0A23.23,23.23,0,0,0,84.37,68.88Zm16.68,14.55A16.39,16.39,0,0,0,91.69,69a16.72,16.72,0,0,0-4.07-1.32h-.06A17.49,17.49,0,0,0,85,67.38h-.14a14.43,14.43,0,0,0-2.38.13.07.07,0,0,0-.06,0h0a14.33,14.33,0,0,0-5,1.62A16.58,16.58,0,0,0,70.23,77a17.35,17.35,0,0,0-.75,2,16.91,16.91,0,0,0-.74,4l0,.62c0,.16,0,.32,0,.48a1.77,1.77,0,0,0,0,.23,8.44,8.44,0,0,0,0,.87l0,.39,0,.24A12.73,12.73,0,0,0,69,87a0,0,0,0,0,0,0,.58.58,0,0,0,0,.19,9.8,9.8,0,0,0,.32,1.18,12.49,12.49,0,0,0,.73,1.87,15.53,15.53,0,0,0,2.21,3.44c.33.39.67.75,1,1.11s.72.67,1.11,1a17.28,17.28,0,0,0,10.42,3.92,14.72,14.72,0,0,0,6.17-1.16,14.39,14.39,0,0,0,1.42-.7,9.46,9.46,0,0,0,.91-.54c.2-.13.4-.26.59-.4a15.68,15.68,0,0,0,1.5-1.22l.1-.09a17.25,17.25,0,0,0,5.47-11.94.15.15,0,0,0,0-.07v-.06A.49.49,0,0,0,101.05,83.43Zm-4.32,5.72a12.65,12.65,0,0,1-1.25,2.1c-.17.24-.36.48-.55.71a10.12,10.12,0,0,1-1,1,13.44,13.44,0,0,1-1.07.93c-.14.11-.28.22-.43.32a13.69,13.69,0,0,1-7.59,2.51,12.21,12.21,0,0,1-8.65-3.29,11.9,11.9,0,0,1-1.06-1.07,12.46,12.46,0,0,1-1-1.22,13.24,13.24,0,0,1-1.38-2.5A11.74,11.74,0,0,1,72.26,87s0-.1-.05-.15q-.18-.66-.3-1.35a.51.51,0,0,1,0-.13h0c0-.15,0-.31-.07-.46a.06.06,0,0,1,0,0c0-.28-.06-.56-.08-.84v-.11c0-.11,0-.21,0-.32v-.15a2.89,2.89,0,0,1,0-.48c.11-6.3,5.09-11.25,11-12.36h0a12.63,12.63,0,0,1,2.13-.24,10.21,10.21,0,0,1,1.24,0h.08a12.26,12.26,0,0,1,2.72.54h0a10.87,10.87,0,0,1,2,.83c.3.16.6.33.88.51h0a14,14,0,0,1,6.28,11.24A13.82,13.82,0,0,1,96.73,89.15ZM84.37,68.88A14.68,14.68,0,0,0,71,78.94a14.08,14.08,0,0,0-.66,3.12,14.72,14.72,0,0,0-.08,1.49c0,.16,0,.32,0,.48v.08a13,13,0,0,0,.13,1.41s0,0,0,0,0,.3.07.44c0,.34.12.68.2,1h0a10.4,10.4,0,0,0,.31,1.09,14.35,14.35,0,0,0,2.3,4.36l1-1.33a13.24,13.24,0,0,1-1.38-2.5A11.74,11.74,0,0,1,72.26,87s0-.1-.05-.15q-.18-.66-.3-1.35a.51.51,0,0,1,0-.13h0c0-.15,0-.31-.07-.46a.06.06,0,0,1,0,0c0-.28-.06-.56-.08-.84v-.11c0-.11,0-.21,0-.32v-.15a2.89,2.89,0,0,1,0-.48c.11-6.3,5.09-11.25,11-12.36h0a12.63,12.63,0,0,1,2.13-.24,10.21,10.21,0,0,1,1.24,0A23.23,23.23,0,0,0,84.37,68.88Zm0,0A14.68,14.68,0,0,0,71,78.94a14.08,14.08,0,0,0-.66,3.12,14.72,14.72,0,0,0-.08,1.49c0,.16,0,.32,0,.48v.08a13,13,0,0,0,.13,1.41s0,0,0,0,0,.3.07.44c0,.34.12.68.2,1h0a10.4,10.4,0,0,0,.31,1.09,14.35,14.35,0,0,0,2.3,4.36l1-1.33a13.24,13.24,0,0,1-1.38-2.5A11.74,11.74,0,0,1,72.26,87s0-.1-.05-.15q-.18-.66-.3-1.35a.51.51,0,0,1,0-.13h0c0-.15,0-.31-.07-.46a.06.06,0,0,1,0,0c0-.28-.06-.56-.08-.84v-.11c0-.11,0-.21,0-.32v-.15a2.89,2.89,0,0,1,0-.48c.11-6.3,5.09-11.25,11-12.36h0a12.63,12.63,0,0,1,2.13-.24,10.21,10.21,0,0,1,1.24,0A23.23,23.23,0,0,0,84.37,68.88Zm0,0A14.68,14.68,0,0,0,71,78.94a14.08,14.08,0,0,0-.66,3.12,14.72,14.72,0,0,0-.08,1.49c0,.16,0,.32,0,.48v.08a13,13,0,0,0,.13,1.41s0,0,0,0,0,.3.07.44c0,.34.12.68.2,1h0a10.4,10.4,0,0,0,.31,1.09,14.35,14.35,0,0,0,2.3,4.36l1-1.33a13.24,13.24,0,0,1-1.38-2.5A11.74,11.74,0,0,1,72.26,87s0-.1-.05-.15q-.18-.66-.3-1.35a.51.51,0,0,1,0-.13h0c0-.15,0-.31-.07-.46a.06.06,0,0,1,0,0c0-.28-.06-.56-.08-.84v-.11c0-.11,0-.21,0-.32v-.15a2.89,2.89,0,0,1,0-.48c.11-6.3,5.09-11.25,11-12.36h0a12.63,12.63,0,0,1,2.13-.24,10.21,10.21,0,0,1,1.24,0A23.23,23.23,0,0,0,84.37,68.88Zm0,0A14.68,14.68,0,0,0,71,78.94a14.08,14.08,0,0,0-.66,3.12,14.72,14.72,0,0,0-.08,1.49c0,.16,0,.32,0,.48v.08a13,13,0,0,0,.13,1.41s0,0,0,0,0,.3.07.44c0,.34.12.68.2,1h0a10.4,10.4,0,0,0,.31,1.09,14.35,14.35,0,0,0,2.3,4.36l1-1.33a13.24,13.24,0,0,1-1.38-2.5A11.74,11.74,0,0,1,72.26,87s0-.1-.05-.15q-.18-.66-.3-1.35a.51.51,0,0,1,0-.13h0c0-.15,0-.31-.07-.46a.06.06,0,0,1,0,0c0-.28-.06-.56-.08-.84v-.11c0-.11,0-.21,0-.32v-.15a2.89,2.89,0,0,1,0-.48c.11-6.3,5.09-11.25,11-12.36h0a12.63,12.63,0,0,1,2.13-.24,10.21,10.21,0,0,1,1.24,0A23.23,23.23,0,0,0,84.37,68.88Zm-12.55,16a.06.06,0,0,1,0,0c0-.28-.06-.56-.08-.84v-.11c0-.11,0-.21,0-.32a.13.13,0,0,1,0,.06,2.26,2.26,0,0,1,0,.26V84c0,.18,0,.35,0,.52s0,.35-.05.52,0,.24,0,.36l.34,0h0C71.86,85.22,71.84,85.06,71.82,84.91Zm.39,2q-.18-.66-.3-1.35a.51.51,0,0,1,0-.13h0c0-.15,0-.31-.07-.46a.06.06,0,0,1,0,0c0-.28-.06-.56-.08-.84v-.11c0-.11,0-.21,0-.32a.13.13,0,0,1,0,.06,2.26,2.26,0,0,1,0,.26V84c0,.18,0,.35,0,.52s0,.35-.05.52,0,.24,0,.36c-.27,0-.55,0-.82.09h-.38s0,0,0,0,0,.3.07.44l.72.79.12.13,0,0,0,.06h.91S72.23,86.92,72.21,86.87Z" fill="#231f20"/><path d="M47.79,128.06l-1.32-.44-.09,0-1.63-.52c0-.52,0-1,0-1.58v-1.56l1.37.42.19.05c.78.25,1.56.5,2.33.77C50.4,125.79,49.62,128.69,47.79,128.06Z" fill="#20856f"/><path d="M52.53,135.71a14.7,14.7,0,0,1-3.33,1.5H47.66c-.14-.25-.27-.51-.39-.77s-.24-.49-.35-.73Z" fill="#20856f"/><path d="M59.82,122.78a13.62,13.62,0,0,1-.07,1.44c0,.3-.06.61-.11.91a13.79,13.79,0,0,1-.33,1.55,12.62,12.62,0,0,1-.48,1.47c-.45-.31-.91-.61-1.38-.91A52.12,52.12,0,0,0,46.21,122l-.23-.08c-.43-.14-.85-.28-1.28-.4V107.67a13.56,13.56,0,0,1,1.43.07h.07a15.1,15.1,0,0,1,13.55,13.59A13.75,13.75,0,0,1,59.82,122.78Z" fill="#20856f"/><path d="M46.38,127.59l-1.63-.52-1.44-.42h0c-.12-1-.19-2.11-.24-3.17h.06l1.6.44,1.37.42.19.05c0,1.08.09,2.16.21,3.22Z" fill="#231f20"/><path d="M55.31,135.71a13.2,13.2,0,0,1-2.1,1.5,11.06,11.06,0,0,1-5.55,1.5,1.49,1.49,0,0,1-1.29-.74c-.13-.25-.25-.5-.37-.76s-.16-.33-.23-.5c-.15-.33-.29-.66-.42-1Z" fill="#231f20"/><path d="M61.31,122.78v.11A16.6,16.6,0,0,1,60.9,126c-.1.51-.24,1-.39,1.52s-.33,1-.53,1.47c-.38-.28-.76-.55-1.15-.81s-.91-.61-1.38-.91a13.1,13.1,0,0,0,.43-1.44,13,13,0,0,0,.31-1.58,12,12,0,0,0,.13-1.44,13.79,13.79,0,0,0-12.12-13.5v11.33c0,.47,0,.93,0,1.39l-.23-.08c-.43-.14-.85-.28-1.28-.4s-1.1-.34-1.66-.49H43c0-.44,0-.89,0-1.34s0-1.16,0-1.74c0-3.48.22-6.94.22-10.26a1.51,1.51,0,0,1,1.49-1.5,14.7,14.7,0,0,1,1.5.11A17.06,17.06,0,0,1,53.85,109h0l.06,0,1,.74,0,0a16.84,16.84,0,0,1,6.32,12.79A.49.49,0,0,1,61.31,122.78Z" fill="#231f20"/><path d="M91.77,135.71l-.07.16c-.22.46-.44.9-.68,1.34H89.49a14.62,14.62,0,0,1-3.32-1.5h3.92a.14.14,0,0,0,0-.06h0a8.72,8.72,0,0,0,.9.05Z" fill="#20856f"/><path d="M94,124.4v1.09c0,.49,0,1,0,1.45,0,.21,0,.42,0,.63l-1.47.49-.12,0-.06,0c-1.7.39-2.37-2.34-.62-2.94l.86-.29a.45.45,0,0,1,.11,0l0,0Z" fill="#20856f"/><path d="M94,107.67V122l-1.28.44-.22.09A50.9,50.9,0,0,0,81.55,128c-.46.3-.91.62-1.36.94-.21-.47-.39-.94-.56-1.43a15.33,15.33,0,0,1-.76-4.76,15.1,15.1,0,0,1,13.61-15h.07A13.56,13.56,0,0,1,94,107.67Z" fill="#20856f"/><path d="M93.36,135.71c-.16.41-.35.82-.54,1.23l-.12.27c-.12.25-.25.51-.38.76a.78.78,0,0,1-.11.18,1.64,1.64,0,0,1-.31.28l-.15.09a.8.8,0,0,1-.16.08l-.19.06-.13,0-.25,0h-.17a11.11,11.11,0,0,1-5.42-1.49,12.76,12.76,0,0,1-2.1-1.5h6.76a.14.14,0,0,0,0-.06h0a8.72,8.72,0,0,0,.9.05h2.34Z" fill="#231f20"/><path d="M95.48,123.94v1.55c0,.54,0,1.07-.08,1.6l-.07,0-1.44.46-1.47.49-.12,0c.06-.47.1-.94.12-1.42s0-.78.06-1.18v-.61a.45.45,0,0,1,.11,0l0,0L94,124.4l.69-.22Z" fill="#231f20"/><path d="M95.48,107.67v13.86c-.5.14-1,.3-1.5.47l-1.28.44-.22.09V109.29c-6.33.85-11.9,5.95-12.09,12.66a14,14,0,0,0,.28,3.11c.1.51.23,1,.38,1.52s.31,1,.5,1.45c-.46.3-.91.62-1.36.94l-1.12.85c-.22-.47-.41-1-.59-1.45s-.32-1-.45-1.47a17.1,17.1,0,0,1-.57-5.77,15.63,15.63,0,0,1,4.16-9.39h0a17.2,17.2,0,0,1,6.53-4.4h0a17.09,17.09,0,0,1,4.31-1c.5-.06,1-.1,1.5-.11A1.51,1.51,0,0,1,95.48,107.67Z" fill="#231f20"/><path d="M94,84.92a1,1,0,0,1-.14.6.68.68,0,0,1-.17.21h0l-.13.1a1.23,1.23,0,0,1-1.08.08,1,1,0,0,1-.53-.4,1.13,1.13,0,0,1-.2-.6c0-.13,0-.25,0-.37a3,3,0,0,0-.07-.52,5.43,5.43,0,0,0-.24-1c-1.89-6-10.94-5.85-12.48.45a3.82,3.82,0,0,0-.11.57,6.37,6.37,0,0,0-.11.89h0a1.22,1.22,0,0,1-.2.59,1.18,1.18,0,0,1-1.91,0,1,1,0,0,1-.14-.49v-.11c0-.3,0-.59.09-.89s0-.32.08-.48h0c.8-4,4.14-7.64,8.6-7.4a9,9,0,0,1,7.22,3.95h0a.47.47,0,0,1,.06.09,8.73,8.73,0,0,1,1.16,2.64A7.6,7.6,0,0,1,93.89,84a.88.88,0,0,1,0,.17.25.25,0,0,1,0,.12Q94,84.62,94,84.92Z" fill="#231f20"/><path d="M118,138.71H22a1.5,1.5,0,0,1,0-3H118A1.5,1.5,0,0,1,118,138.71Z" fill="#231f20"/><path d="M48.59,125.17c-.77-.27-1.55-.52-2.33-.77l-.19-.05c.07,1.09.16,2.17.31,3.24l.09,0,1.32.44C49.62,128.69,50.4,125.79,48.59,125.17Zm0,0c-.77-.27-1.55-.52-2.33-.77l-.19-.05c.07,1.09.16,2.17.31,3.24l.09,0,1.32.44C49.62,128.69,50.4,125.79,48.59,125.17Zm0,0c-.77-.27-1.55-.52-2.33-.77l-.19-.05c.07,1.09.16,2.17.31,3.24l.09,0,1.32.44C49.62,128.69,50.4,125.79,48.59,125.17Zm0,0c-.77-.27-1.55-.52-2.33-.77l-.19-.05c.07,1.09.16,2.17.31,3.24l.09,0,1.32.44C49.62,128.69,50.4,125.79,48.59,125.17Zm0,0c-.77-.27-1.55-.52-2.33-.77l-.19-.05c.07,1.09.16,2.17.31,3.24l.09,0,1.32.44C49.62,128.69,50.4,125.79,48.59,125.17Zm0,0c-.77-.27-1.55-.52-2.33-.77l-.19-.05c.07,1.09.16,2.17.31,3.24l.09,0,1.32.44C49.62,128.69,50.4,125.79,48.59,125.17Zm0,0c-.77-.27-1.55-.52-2.33-.77l-.19-.05c.07,1.09.16,2.17.31,3.24l.09,0,1.32.44C49.62,128.69,50.4,125.79,48.59,125.17Zm0,0c-.77-.27-1.55-.52-2.33-.77l-.19-.05c.07,1.09.16,2.17.31,3.24l.09,0,1.32.44C49.62,128.69,50.4,125.79,48.59,125.17Zm21.52,11.89-.37-.53-.55-.75,0-.07a37.87,37.87,0,0,0-8.63-8.22c-.4-.28-.8-.54-1.2-.81s-1-.6-1.43-.88a55.43,55.43,0,0,0-11.68-5.19l-.24-.07-1.26-.39c-.56-.16-1.12-.32-1.67-.46l-.06,0a70.58,70.58,0,0,0-12.37-2.13h-.08c-.91-.07-1.42-.08-1.42-.08v19.76H70.21ZM30.6,135.71v-5.58a62.7,62.7,0,0,1,6.26.83c1.89.33,2.7-2.56.8-2.89a69.93,69.93,0,0,0-7.06-.93v-2.79a61.07,61.07,0,0,1,12.68,2.29h0l1.44.42,1.63.52.09,0,1.32.44c1.83.63,2.61-2.27.8-2.89-.77-.27-1.55-.52-2.33-.77l-.19-.05-1.37-.42-1.6-.44H43a63.6,63.6,0,0,0-12.44-2.12V119A60.15,60.15,0,0,1,43,121H43c.56.15,1.11.31,1.66.49s.85.26,1.28.4l.23.08a52.12,52.12,0,0,1,11.24,5.24c.47.3.93.6,1.38.91s.77.53,1.15.81a38,38,0,0,1,7.23,6.75Zm18-10.54c-.77-.27-1.55-.52-2.33-.77l-.19-.05c.07,1.09.16,2.17.31,3.24l.09,0,1.32.44C49.62,128.69,50.4,125.79,48.59,125.17Zm0,0c-.77-.27-1.55-.52-2.33-.77l-.19-.05c.07,1.09.16,2.17.31,3.24l.09,0,1.32.44C49.62,128.69,50.4,125.79,48.59,125.17Zm0,0c-.77-.27-1.55-.52-2.33-.77l-.19-.05c.07,1.09.16,2.17.31,3.24l.09,0,1.32.44C49.62,128.69,50.4,125.79,48.59,125.17Zm0,0c-.77-.27-1.55-.52-2.33-.77l-.19-.05c.07,1.09.16,2.17.31,3.24l.09,0,1.32.44C49.62,128.69,50.4,125.79,48.59,125.17Zm0,0c-.77-.27-1.55-.52-2.33-.77l-.19-.05c.07,1.09.16,2.17.31,3.24l.09,0,1.32.44C49.62,128.69,50.4,125.79,48.59,125.17Zm0,0c-.77-.27-1.55-.52-2.33-.77l-.19-.05c.07,1.09.16,2.17.31,3.24l.09,0,1.32.44C49.62,128.69,50.4,125.79,48.59,125.17Zm0,0c-.77-.27-1.55-.52-2.33-.77l-.19-.05c.07,1.09.16,2.17.31,3.24l.09,0,1.32.44C49.62,128.69,50.4,125.79,48.59,125.17Zm0,0c-.77-.27-1.55-.52-2.33-.77l-.19-.05c.07,1.09.16,2.17.31,3.24l.09,0,1.32.44C49.62,128.69,50.4,125.79,48.59,125.17Z" fill="#fff"/><path d="M71.5,136.45c-.16-.23-.31-.45-.48-.67a.18.18,0,0,0,0-.07c-.28-.39-.57-.77-.86-1.15A42.49,42.49,0,0,0,60.9,126q-.61-.43-1.26-.84c-.48-.32-1-.62-1.45-.91a55.92,55.92,0,0,0-12-5.36l-.23-.07c-.42-.14-.84-.27-1.27-.38s-1.1-.32-1.65-.46l-.06,0a63.06,63.06,0,0,0-13.89-2,1.5,1.5,0,0,0-1.5,1.5v19.76a1.34,1.34,0,0,0,.42,1,.21.21,0,0,0,.1.09,1.33,1.33,0,0,0,1,.38H70.21a1.59,1.59,0,0,0,1.52-1.5A1.35,1.35,0,0,0,71.5,136.45Zm-40.9-.74V119A60.15,60.15,0,0,1,43,121H43c.56.15,1.11.31,1.66.49s.85.26,1.28.4l.23.08a52.12,52.12,0,0,1,11.24,5.24c.47.3.93.6,1.38.91s.77.53,1.15.81a38,38,0,0,1,7.23,6.75Z" fill="#231f20"/><path d="M47.79,128.06l-1.32-.44-.09,0-1.63-.52-1.44-.42h0a61.07,61.07,0,0,0-12.68-2.29l-1.5-.07c-1.93-.06-1.93-3.06,0-3l1.5.07A63.6,63.6,0,0,1,43,123.47h.06l1.6.44,1.37.42.19.05c.78.25,1.56.5,2.33.77C50.4,125.79,49.62,128.69,47.79,128.06Z" fill="#231f20"/><path d="M36.86,131a62.7,62.7,0,0,0-6.26-.83c-.5,0-1-.06-1.5-.08-1.93-.05-1.93-3.05,0-3,.5,0,1,0,1.5.08a69.93,69.93,0,0,1,7.06.93C39.56,128.4,38.75,131.29,36.86,131Z" fill="#231f20"/><path d="M92.48,124.88l-.86.29c-1.75.6-1.08,3.33.62,2.94l.06,0c.06-.47.1-.94.12-1.42q.06-.42.09-.84v0c0-.27,0-.54.07-.82,0,0,0-.08,0-.13A.45.45,0,0,0,92.48,124.88Zm-11.43,1.7c.14.49.31,1,.5,1.45a50.9,50.9,0,0,1,10.93-5.5v-1.41A53.14,53.14,0,0,0,81.05,126.58Zm-2.57,1.79a36.77,36.77,0,0,0-7.41,7.34H73a38.1,38.1,0,0,1,6.08-5.89C78.85,129.35,78.66,128.86,78.48,128.37Zm14-3.49-.86.29c-1.75.6-1.08,3.33.62,2.94l.06,0c.06-.47.1-.94.12-1.42q.06-.42.09-.84v0c0-.27,0-.54.07-.82,0,0,0-.08,0-.13A.45.45,0,0,0,92.48,124.88Zm-11.43,1.7c.14.49.31,1,.5,1.45a50.9,50.9,0,0,1,10.93-5.5v-1.41A53.14,53.14,0,0,0,81.05,126.58Zm-2.57,1.79a36.77,36.77,0,0,0-7.41,7.34H73a38.1,38.1,0,0,1,6.08-5.89C78.85,129.35,78.66,128.86,78.48,128.37Zm14-3.49-.86.29c-1.75.6-1.08,3.33.62,2.94l.06,0c.06-.47.1-.94.12-1.42q.06-.42.09-.84v0c0-.27,0-.54.07-.82,0,0,0-.08,0-.13A.45.45,0,0,0,92.48,124.88Zm-11.43,1.7c.14.49.31,1,.5,1.45a50.9,50.9,0,0,1,10.93-5.5v-1.41A53.14,53.14,0,0,0,81.05,126.58Zm-2.57,1.79a36.77,36.77,0,0,0-7.41,7.34H73a38.1,38.1,0,0,1,6.08-5.89C78.85,129.35,78.66,128.86,78.48,128.37Zm14-3.49-.86.29c-1.75.6-1.08,3.33.62,2.94l.06,0c.06-.47.1-.94.12-1.42q.06-.42.09-.84v0c0-.27,0-.54.07-.82,0,0,0-.08,0-.13A.45.45,0,0,0,92.48,124.88Zm-11.43,1.7c.14.49.31,1,.5,1.45a50.9,50.9,0,0,1,10.93-5.5v-1.41A53.14,53.14,0,0,0,81.05,126.58Zm-2.57,1.79a36.77,36.77,0,0,0-7.41,7.34H73a38.1,38.1,0,0,1,6.08-5.89C78.85,129.35,78.66,128.86,78.48,128.37Zm14-3.49-.86.29c-1.75.6-1.08,3.33.62,2.94l.06,0c.06-.47.1-.94.12-1.42q.06-.42.09-.84v0c0-.27,0-.54.07-.82,0,0,0-.08,0-.13A.45.45,0,0,0,92.48,124.88Zm-11.43,1.7c.14.49.31,1,.5,1.45a50.9,50.9,0,0,1,10.93-5.5v-1.41A53.14,53.14,0,0,0,81.05,126.58Zm-2.57,1.79a36.77,36.77,0,0,0-7.41,7.34H73a38.1,38.1,0,0,1,6.08-5.89C78.85,129.35,78.66,128.86,78.48,128.37Zm14-3.49-.86.29c-1.75.6-1.08,3.33.62,2.94l.06,0c.06-.47.1-.94.12-1.42q.06-.42.09-.84v0c0-.27,0-.54.07-.82,0,0,0-.08,0-.13A.45.45,0,0,0,92.48,124.88Zm-11.43,1.7c.14.49.31,1,.5,1.45a50.9,50.9,0,0,1,10.93-5.5v-1.41A53.14,53.14,0,0,0,81.05,126.58Zm-2.57,1.79a36.77,36.77,0,0,0-7.41,7.34H73a38.1,38.1,0,0,1,6.08-5.89C78.85,129.35,78.66,128.86,78.48,128.37Zm14-3.49-.86.29c-1.75.6-1.08,3.33.62,2.94l.06,0c.06-.47.1-.94.12-1.42q.06-.42.09-.84v0c0-.27,0-.54.07-.82,0,0,0-.08,0-.13A.45.45,0,0,0,92.48,124.88Zm-11.43,1.7c.14.49.31,1,.5,1.45a50.9,50.9,0,0,1,10.93-5.5v-1.41A53.14,53.14,0,0,0,81.05,126.58Zm-2.57,1.79a36.77,36.77,0,0,0-7.41,7.34H73a38.1,38.1,0,0,1,6.08-5.89C78.85,129.35,78.66,128.86,78.48,128.37Zm14-3.49-.86.29c-1.75.6-1.08,3.33.62,2.94l.06,0c.06-.47.1-.94.12-1.42q.06-.42.09-.84v0c0-.27,0-.54.07-.82,0,0,0-.08,0-.13A.45.45,0,0,0,92.48,124.88Zm-11.43,1.7c.14.49.31,1,.5,1.45a50.9,50.9,0,0,1,10.93-5.5v-1.41A53.14,53.14,0,0,0,81.05,126.58Zm-2.57,1.79a36.77,36.77,0,0,0-7.41,7.34H73a38.1,38.1,0,0,1,6.08-5.89C78.85,129.35,78.66,128.86,78.48,128.37Zm14-3.49-.86.29c-1.75.6-1.08,3.33.62,2.94l.06,0c.06-.47.1-.94.12-1.42q.06-.42.09-.84v0c0-.27,0-.54.07-.82,0,0,0-.08,0-.13A.45.45,0,0,0,92.48,124.88Zm0-3.76a53.14,53.14,0,0,0-11.43,5.46c.14.49.31,1,.5,1.45a50.9,50.9,0,0,1,10.93-5.5ZM71.07,135.71H73a38.1,38.1,0,0,1,6.08-5.89c-.22-.47-.41-1-.59-1.45A36.77,36.77,0,0,0,71.07,135.71Zm38.62-18.18h-.08a71.77,71.77,0,0,0-14,2.57l-.16,0-1.5.46-1.25.41-.25.09a53.14,53.14,0,0,0-11.43,5.46c-.48.31-1,.63-1.42,1s-.77.54-1.15.83a36.77,36.77,0,0,0-7.41,7.34l0,.07-.55.75c-.12.17-.25.35-.36.53l-.11.15h41.11V117.45S110.6,117.46,109.69,117.53Zm-14.21,6.41-.81.24-.69.22-1.35.43,0,0a.45.45,0,0,0-.11,0l-.86.29c-1.75.6-1.08,3.33.62,2.94l.06,0,.12,0,1.47-.49,1.44-.46.07,0a62.76,62.76,0,0,1,14.21-2.74v2.79a66.84,66.84,0,0,0-7.06.93c-1.9.33-1.09,3.22.8,2.89a62.7,62.7,0,0,1,6.26-.83v5.58H91a8.72,8.72,0,0,1-.9-.05h0a.14.14,0,0,1,0,.06H73a38.1,38.1,0,0,1,6.08-5.89l1.12-.85c.45-.32.9-.64,1.36-.94a50.9,50.9,0,0,1,10.93-5.5l.22-.09L94,122c.5-.17,1-.33,1.5-.47a.44.44,0,0,1,.15,0,59.62,59.62,0,0,1,14-2.47v2.34a64.85,64.85,0,0,0-14,2.57Zm-17,4.43a36.77,36.77,0,0,0-7.41,7.34H73a38.1,38.1,0,0,1,6.08-5.89C78.85,129.35,78.66,128.86,78.48,128.37Zm2.57-1.79c.14.49.31,1,.5,1.45a50.9,50.9,0,0,1,10.93-5.5v-1.41A53.14,53.14,0,0,0,81.05,126.58Zm11.43-1.7-.86.29c-1.75.6-1.08,3.33.62,2.94l.06,0c.06-.47.1-.94.12-1.42q.06-.42.09-.84v0c0-.27,0-.54.07-.82,0,0,0-.08,0-.13A.45.45,0,0,0,92.48,124.88Zm-14,3.49a36.77,36.77,0,0,0-7.41,7.34H73a38.1,38.1,0,0,1,6.08-5.89C78.85,129.35,78.66,128.86,78.48,128.37Zm2.57-1.79c.14.49.31,1,.5,1.45a50.9,50.9,0,0,1,10.93-5.5v-1.41A53.14,53.14,0,0,0,81.05,126.58Zm11.43-1.7-.86.29c-1.75.6-1.08,3.33.62,2.94l.06,0c.06-.47.1-.94.12-1.42q.06-.42.09-.84v0c0-.27,0-.54.07-.82,0,0,0-.08,0-.13A.45.45,0,0,0,92.48,124.88Zm-14,3.49a36.77,36.77,0,0,0-7.41,7.34H73a38.1,38.1,0,0,1,6.08-5.89C78.85,129.35,78.66,128.86,78.48,128.37Zm2.57-1.79c.14.49.31,1,.5,1.45a50.9,50.9,0,0,1,10.93-5.5v-1.41A53.14,53.14,0,0,0,81.05,126.58Zm11.43-1.7-.86.29c-1.75.6-1.08,3.33.62,2.94l.06,0c.06-.47.1-.94.12-1.42q.06-.42.09-.84v0c0-.27,0-.54.07-.82,0,0,0-.08,0-.13A.45.45,0,0,0,92.48,124.88Zm-14,3.49a36.77,36.77,0,0,0-7.41,7.34H73a38.1,38.1,0,0,1,6.08-5.89C78.85,129.35,78.66,128.86,78.48,128.37Zm2.57-1.79c.14.49.31,1,.5,1.45a50.9,50.9,0,0,1,10.93-5.5v-1.41A53.14,53.14,0,0,0,81.05,126.58Zm11.43-1.7-.86.29c-1.75.6-1.08,3.33.62,2.94l.06,0c.06-.47.1-.94.12-1.42q.06-.42.09-.84v0c0-.27,0-.54.07-.82,0,0,0-.08,0-.13A.45.45,0,0,0,92.48,124.88Zm-14,3.49a36.77,36.77,0,0,0-7.41,7.34H73a38.1,38.1,0,0,1,6.08-5.89C78.85,129.35,78.66,128.86,78.48,128.37Zm2.57-1.79c.14.49.31,1,.5,1.45a50.9,50.9,0,0,1,10.93-5.5v-1.41A53.14,53.14,0,0,0,81.05,126.58Zm11.43-1.7-.86.29c-1.75.6-1.08,3.33.62,2.94l.06,0c.06-.47.1-.94.12-1.42q.06-.42.09-.84v0c0-.27,0-.54.07-.82,0,0,0-.08,0-.13A.45.45,0,0,0,92.48,124.88Zm-14,3.49a36.77,36.77,0,0,0-7.41,7.34H73a38.1,38.1,0,0,1,6.08-5.89C78.85,129.35,78.66,128.86,78.48,128.37Zm2.57-1.79c.14.49.31,1,.5,1.45a50.9,50.9,0,0,1,10.93-5.5v-1.41A53.14,53.14,0,0,0,81.05,126.58Zm11.43-1.7-.86.29c-1.75.6-1.08,3.33.62,2.94l.06,0c.06-.47.1-.94.12-1.42q.06-.42.09-.84v0c0-.27,0-.54.07-.82,0,0,0-.08,0-.13A.45.45,0,0,0,92.48,124.88Zm-14,3.49a36.77,36.77,0,0,0-7.41,7.34H73a38.1,38.1,0,0,1,6.08-5.89C78.85,129.35,78.66,128.86,78.48,128.37Zm2.57-1.79c.14.49.31,1,.5,1.45a50.9,50.9,0,0,1,10.93-5.5v-1.41A53.14,53.14,0,0,0,81.05,126.58Zm11.43-1.7-.86.29c-1.75.6-1.08,3.33.62,2.94l.06,0c.06-.47.1-.94.12-1.42q.06-.42.09-.84v0c0-.27,0-.54.07-.82,0,0,0-.08,0-.13A.45.45,0,0,0,92.48,124.88Zm-14,3.49a36.77,36.77,0,0,0-7.41,7.34H73a38.1,38.1,0,0,1,6.08-5.89C78.85,129.35,78.66,128.86,78.48,128.37Zm2.57-1.79c.14.49.31,1,.5,1.45a50.9,50.9,0,0,1,10.93-5.5v-1.41A53.14,53.14,0,0,0,81.05,126.58Zm11.43-1.7-.86.29c-1.75.6-1.08,3.33.62,2.94l.06,0c.06-.47.1-.94.12-1.42q.06-.42.09-.84v0c0-.27,0-.54.07-.82,0,0,0-.08,0-.13A.45.45,0,0,0,92.48,124.88Zm-14,3.49a36.77,36.77,0,0,0-7.41,7.34H73a38.1,38.1,0,0,1,6.08-5.89C78.85,129.35,78.66,128.86,78.48,128.37Zm2.57-1.79c.14.49.31,1,.5,1.45a50.9,50.9,0,0,1,10.93-5.5v-1.41A53.14,53.14,0,0,0,81.05,126.58Zm11.43-1.7-.86.29c-1.75.6-1.08,3.33.62,2.94l.06,0c.06-.47.1-.94.12-1.42q.06-.42.09-.84v0c0-.27,0-.54.07-.82,0,0,0-.08,0-.13A.45.45,0,0,0,92.48,124.88Z" fill="#fff"/><path d="M81.05,126.58c.14.49.31,1,.5,1.45a50.9,50.9,0,0,1,10.93-5.5v-1.41A53.14,53.14,0,0,0,81.05,126.58Zm-2.57,1.79a36.77,36.77,0,0,0-7.41,7.34H73a38.1,38.1,0,0,1,6.08-5.89C78.85,129.35,78.66,128.86,78.48,128.37Zm2.57-1.79c.14.49.31,1,.5,1.45a50.9,50.9,0,0,1,10.93-5.5v-1.41A53.14,53.14,0,0,0,81.05,126.58Zm-2.57,1.79a36.77,36.77,0,0,0-7.41,7.34H73a38.1,38.1,0,0,1,6.08-5.89C78.85,129.35,78.66,128.86,78.48,128.37Zm2.57-1.79c.14.49.31,1,.5,1.45a50.9,50.9,0,0,1,10.93-5.5v-1.41A53.14,53.14,0,0,0,81.05,126.58Zm-2.57,1.79a36.77,36.77,0,0,0-7.41,7.34H73a38.1,38.1,0,0,1,6.08-5.89C78.85,129.35,78.66,128.86,78.48,128.37Zm2.57-1.79c.14.49.31,1,.5,1.45a50.9,50.9,0,0,1,10.93-5.5v-1.41A53.14,53.14,0,0,0,81.05,126.58Zm-2.57,1.79a36.77,36.77,0,0,0-7.41,7.34H73a38.1,38.1,0,0,1,6.08-5.89C78.85,129.35,78.66,128.86,78.48,128.37Zm2.57-1.79c.14.49.31,1,.5,1.45a50.9,50.9,0,0,1,10.93-5.5v-1.41A53.14,53.14,0,0,0,81.05,126.58Zm-2.57,1.79a36.77,36.77,0,0,0-7.41,7.34H73a38.1,38.1,0,0,1,6.08-5.89C78.85,129.35,78.66,128.86,78.48,128.37Zm2.57-1.79c.14.49.31,1,.5,1.45a50.9,50.9,0,0,1,10.93-5.5v-1.41A53.14,53.14,0,0,0,81.05,126.58Zm-2.57,1.79a36.77,36.77,0,0,0-7.41,7.34H73a38.1,38.1,0,0,1,6.08-5.89C78.85,129.35,78.66,128.86,78.48,128.37Zm2.57-1.79c.14.49.31,1,.5,1.45a50.9,50.9,0,0,1,10.93-5.5v-1.41A53.14,53.14,0,0,0,81.05,126.58Zm-2.57,1.79a36.77,36.77,0,0,0-7.41,7.34H73a38.1,38.1,0,0,1,6.08-5.89C78.85,129.35,78.66,128.86,78.48,128.37Zm2.57-1.79c.14.49.31,1,.5,1.45a50.9,50.9,0,0,1,10.93-5.5v-1.41A53.14,53.14,0,0,0,81.05,126.58Zm-2.57,1.79a36.77,36.77,0,0,0-7.41,7.34H73a38.1,38.1,0,0,1,6.08-5.89C78.85,129.35,78.66,128.86,78.48,128.37Zm2.57-1.79c.14.49.31,1,.5,1.45a50.9,50.9,0,0,1,10.93-5.5v-1.41A53.14,53.14,0,0,0,81.05,126.58Zm-10,9.13H73a38.1,38.1,0,0,1,6.08-5.89c-.22-.47-.41-1-.59-1.45A36.77,36.77,0,0,0,71.07,135.71Zm40-19.76a63.06,63.06,0,0,0-15.48,2.42l-.15,0c-.5.14-1,.29-1.5.45l-1.25.41a1.84,1.84,0,0,0-.25.09,54.74,54.74,0,0,0-11.81,5.69l-1.45,1c-.4.28-.8.57-1.19.87a41.37,41.37,0,0,0-7.92,7.66c-.3.38-.59.76-.87,1.15a.18.18,0,0,0,0,.07c-.17.22-.32.44-.48.67a1.35,1.35,0,0,0-.23.76,1.23,1.23,0,0,0,0,.19,1.6,1.6,0,0,0,1.5,1.31h41.11a1.4,1.4,0,0,0,1-.4l0,0,0,0a1.4,1.4,0,0,0,.4-1V117.45A1.51,1.51,0,0,0,111.11,116Zm-1.5,19.76H73a38.1,38.1,0,0,1,6.08-5.89l1.12-.85c.45-.32.9-.64,1.36-.94a50.9,50.9,0,0,1,10.93-5.5l.22-.09L94,122c.5-.17,1-.33,1.5-.47a.44.44,0,0,1,.15,0,59.62,59.62,0,0,1,14-2.47Zm-31.13-7.34a36.77,36.77,0,0,0-7.41,7.34H73a38.1,38.1,0,0,1,6.08-5.89C78.85,129.35,78.66,128.86,78.48,128.37Zm2.57-1.79c.14.49.31,1,.5,1.45a50.9,50.9,0,0,1,10.93-5.5v-1.41A53.14,53.14,0,0,0,81.05,126.58Zm-2.57,1.79a36.77,36.77,0,0,0-7.41,7.34H73a38.1,38.1,0,0,1,6.08-5.89C78.85,129.35,78.66,128.86,78.48,128.37Zm2.57-1.79c.14.49.31,1,.5,1.45a50.9,50.9,0,0,1,10.93-5.5v-1.41A53.14,53.14,0,0,0,81.05,126.58Zm-2.57,1.79a36.77,36.77,0,0,0-7.41,7.34H73a38.1,38.1,0,0,1,6.08-5.89C78.85,129.35,78.66,128.86,78.48,128.37Zm2.57-1.79c.14.49.31,1,.5,1.45a50.9,50.9,0,0,1,10.93-5.5v-1.41A53.14,53.14,0,0,0,81.05,126.58Zm-2.57,1.79a36.77,36.77,0,0,0-7.41,7.34H73a38.1,38.1,0,0,1,6.08-5.89C78.85,129.35,78.66,128.86,78.48,128.37Zm2.57-1.79c.14.49.31,1,.5,1.45a50.9,50.9,0,0,1,10.93-5.5v-1.41A53.14,53.14,0,0,0,81.05,126.58Zm-2.57,1.79a36.77,36.77,0,0,0-7.41,7.34H73a38.1,38.1,0,0,1,6.08-5.89C78.85,129.35,78.66,128.86,78.48,128.37Zm2.57-1.79c.14.49.31,1,.5,1.45a50.9,50.9,0,0,1,10.93-5.5v-1.41A53.14,53.14,0,0,0,81.05,126.58Zm-2.57,1.79a36.77,36.77,0,0,0-7.41,7.34H73a38.1,38.1,0,0,1,6.08-5.89C78.85,129.35,78.66,128.86,78.48,128.37Zm2.57-1.79c.14.49.31,1,.5,1.45a50.9,50.9,0,0,1,10.93-5.5v-1.41A53.14,53.14,0,0,0,81.05,126.58Zm-2.57,1.79a36.77,36.77,0,0,0-7.41,7.34H73a38.1,38.1,0,0,1,6.08-5.89C78.85,129.35,78.66,128.86,78.48,128.37Zm2.57-1.79c.14.49.31,1,.5,1.45a50.9,50.9,0,0,1,10.93-5.5v-1.41A53.14,53.14,0,0,0,81.05,126.58Zm-2.57,1.79a36.77,36.77,0,0,0-7.41,7.34H73a38.1,38.1,0,0,1,6.08-5.89C78.85,129.35,78.66,128.86,78.48,128.37Zm2.57-1.79c.14.49.31,1,.5,1.45a50.9,50.9,0,0,1,10.93-5.5v-1.41A53.14,53.14,0,0,0,81.05,126.58Zm-2.57,1.79a36.77,36.77,0,0,0-7.41,7.34H73a38.1,38.1,0,0,1,6.08-5.89C78.85,129.35,78.66,128.86,78.48,128.37Zm2.57-1.79c.14.49.31,1,.5,1.45a50.9,50.9,0,0,1,10.93-5.5v-1.41A53.14,53.14,0,0,0,81.05,126.58Z" fill="#231f20"/><path d="M111.11,124.28l-1.5.07a62.76,62.76,0,0,0-14.21,2.74l-.07,0-1.44.46-1.47.49-.12,0-.06,0c-1.7.39-2.37-2.34-.62-2.94l.86-.29a.45.45,0,0,1,.11,0l0,0L94,124.4l.69-.22.81-.24.08,0a64.85,64.85,0,0,1,14-2.57l1.5-.07C113,121.22,113,124.22,111.11,124.28Z" fill="#231f20"/><path d="M111.11,130.05c-.5,0-1,0-1.5.08a62.7,62.7,0,0,0-6.26.83c-1.89.33-2.7-2.56-.8-2.89a66.84,66.84,0,0,1,7.06-.93c.5,0,1-.07,1.5-.08C113,127,113,130,111.11,130.05Z" fill="#231f20"/><path d="M45.81,157.79a4.39,4.39,0,0,0,1.07-3,4.33,4.33,0,0,0-4.49-4.38H38.25v16.11h4.87a4.77,4.77,0,0,0,2.69-8.72Zm-5.05-4.72c0-.11,0-.18.15-.18h1.4A2,2,0,0,1,44.45,155a2,2,0,0,1-2.08,2.12H40.89c-.09,0-.13,0-.13-.15Zm2.32,11H40.91c-.11,0-.15,0-.15-.15v-4.38c0-.07,0-.11.13-.13h2.19a2.33,2.33,0,0,1,0,4.66Z" fill="#231f20"/><path d="M59.57,150.23a8.23,8.23,0,1,0,8.23,8.23A8.21,8.21,0,0,0,59.57,150.23Zm0,14a5.73,5.73,0,1,1,5.72-5.73A5.75,5.75,0,0,1,59.57,164.19Z" fill="#231f20"/><path d="M79.57,150.23a8.23,8.23,0,1,0,8.22,8.23A8.21,8.21,0,0,0,79.57,150.23Zm0,14a5.73,5.73,0,1,1,5.71-5.73A5.75,5.75,0,0,1,79.57,164.19Z" fill="#231f20"/><path d="M97.11,159.21c-.15-.24-.34-.47-.47-.73,0,0,0-.09.15-.28,1-1.66,2.45-3.87,4.9-7.8H98.83l-4.25,6.75c-.45.64-.13.13-.26.3v-7H91.81v16.11h2.51v-7s0,0,.09.08c.92,1.42,2.21,3.48,4.38,6.94h3Z" fill="#231f20"/><rect width="140" height="210" fill="none"/></svg>